<svg fill="#ff6952" id="Layer_1" enable-background="new 0 0 499.92 499.92" height="512" viewBox="0 0 499.92 499.92" width="512" xmlns="http://www.w3.org/2000/svg"><path d="m324.046 372.216c-1.693 0-10.226-2.625-12.072-4.773-1.501-1.747-2.191-4.113-1.852-6.392.722-4.843 5.783-7.963 10.432-6.422l6.007 1.991c3.664 1.215 6.013 5.101 5.374 8.91-.632 3.773-4.06 6.686-7.889 6.686z"/><path d="m251.52 200.233c-22.607 0-41-18.393-41-41s18.393-41 41-41 41 18.393 41 41-18.393 41-41 41zm0-66c-13.785 0-25 11.215-25 25s11.215 25 25 25 25-11.215 25-25-11.215-25-25-25z"/><path d="m290.683 90.413h-6.163c-4.418 0-8-3.582-8-8s3.582-8 8-8h6.163c4.418 0 8 3.582 8 8s-3.582 8-8 8z"/><path d="m385.064 294.027-44.393-36.789c7.544-24.044 13.936-49.774 14.77-73.983 1.128-38.315-11.81-77.252-38.455-115.729-20.091-29.016-43.876-51.704-60.291-65.627-3.002-2.546-7.411-2.531-10.395.038-24.061 20.715-44.307 42.776-60.176 65.571-26.773 38.458-39.872 77.387-38.933 115.694.54 23.497 6.683 48.665 14.101 72.341l-46.437 38.483c-1.834 1.521-2.896 3.778-2.896 6.16v82.562c0 5.359 5.418 9.283 10.517 7.594l80.942-26.832c3.57 7.324 7.271 14.543 11.088 21.653-3.893 28.56.97 57.16 14.172 82.888l14.163 27.601c2.888 5.625 11.165 5.708 14.162.14l15.12-28.088c13.676-25.409 19.154-53.858 15.952-82.443 15.526-28.894 29.05-59.647 40.2-91.447 2.278-6.461 4.665-13.237 7.04-20.233l36.643 30.367v67.721l-17.44-5.781c-4.19-1.39-8.72.882-10.111 5.076-1.39 4.194.883 8.721 5.077 10.111l27.958 9.268c5.099 1.689 10.517-2.235 10.517-7.594v-82.562c.001-2.382-1.061-4.639-2.895-6.16zm-257.104 77.642v-67.721l38.693-32.066c.033.096.065.189.098.285.473 1.386.947 2.762 1.421 4.131.035.1.069.2.104.301 1.53 4.412 4.572 12.983 4.582 13.01.502 1.41 15.512 41.43 23.682 59.328zm130.075 88.451-7.906 14.688-7.215-14.061c-11.025-21.485-15.507-45.231-13.097-69.076h42.817c1.784 23.769-3.214 47.298-14.599 68.449zm81.415-277.376c-.827 24.002-7.756 50.303-15.651 74.739-.024.074-.051.148-.072.223-3.477 10.749-7.137 21.136-10.544 30.802-10.62 30.29-23.433 59.589-38.113 87.163h-47.505c-14.678-27.569-27.491-56.87-38.127-87.204-11.936-33.462-25.464-71.389-26.251-105.644-.745-30.357 8.374-61.38 27.124-92.41h70.778c4.418 0 8-3.582 8-8s-3.582-8-8-8h-60.248c13.693-19.257 30.717-37.998 50.711-55.808 15.245 13.449 35.202 33.365 52.281 58.029 24.658 35.609 36.641 71.323 35.617 106.11z"/></svg>