<svg fill="#ff6952" height="512" viewBox="0 0 499.92 499.92" width="512" xmlns="http://www.w3.org/2000/svg"><path d="M324.046 372.216c-1.693 0-10.226-2.625-12.072-4.773a8.067 8.067 0 0 1-1.852-6.392c.722-4.843 5.783-7.963 10.432-6.422l6.007 1.991c3.664 1.215 6.013 5.101 5.374 8.91-.632 3.773-4.06 6.686-7.889 6.686zM251.52 200.233c-22.607 0-41-18.393-41-41s18.393-41 41-41 41 18.393 41 41-18.393 41-41 41zm0-66c-13.785 0-25 11.215-25 25s11.215 25 25 25 25-11.215 25-25-11.215-25-25-25zm39.163-43.82h-6.163a8 8 0 0 1 0-16h6.163a8 8 0 0 1 0 16z"/><path d="M385.064 294.027l-44.393-36.789c7.544-24.044 13.936-49.774 14.77-73.983 1.128-38.315-11.81-77.252-38.455-115.729-20.091-29.016-43.876-51.704-60.291-65.627a8 8 0 0 0-10.395.038c-24.061 20.715-44.307 42.776-60.176 65.571-26.773 38.458-39.872 77.387-38.933 115.694.54 23.497 6.683 48.665 14.101 72.341l-46.437 38.483a8.003 8.003 0 0 0-2.896 6.16v82.562c0 5.359 5.418 9.283 10.517 7.594l80.942-26.832a621.578 621.578 0 0 0 11.088 21.653c-3.893 28.56.97 57.16 14.172 82.888l14.163 27.601c2.888 5.625 11.165 5.708 14.162.14l15.12-28.088c13.676-25.409 19.154-53.858 15.952-82.443 15.526-28.894 29.05-59.647 40.2-91.447 2.278-6.461 4.665-13.237 7.04-20.233l36.643 30.367v67.721l-17.44-5.781a8 8 0 0 0-5.034 15.187l27.958 9.268c5.099 1.689 10.517-2.235 10.517-7.594v-82.562a7.998 7.998 0 0 0-2.895-6.16zM127.96 371.669v-67.721l38.693-32.066.098.285c.473 1.386.947 2.762 1.421 4.131l.104.301a2584.8 2584.8 0 0 0 4.582 13.01c.502 1.41 15.512 41.43 23.682 59.328zm130.075 88.451l-7.906 14.688-7.215-14.061c-11.025-21.485-15.507-45.231-13.097-69.076h42.817c1.784 23.769-3.214 47.298-14.599 68.449zm81.415-277.376c-.827 24.002-7.756 50.303-15.651 74.739-.024.074-.051.148-.072.223-3.477 10.749-7.137 21.136-10.544 30.802-10.62 30.29-23.433 59.589-38.113 87.163h-47.505c-14.678-27.569-27.491-56.87-38.127-87.204-11.936-33.462-25.464-71.389-26.251-105.644-.745-30.357 8.374-61.38 27.124-92.41h70.778a8 8 0 0 0 0-16h-60.248c13.693-19.257 30.717-37.998 50.711-55.808 15.245 13.449 35.202 33.365 52.281 58.029 24.658 35.609 36.641 71.323 35.617 106.11z"/></svg>