<svg fill="#ff6952" height="512" viewBox="0 0 64 64" width="512" xmlns="http://www.w3.org/2000/svg"><path d="M61 52h-1V15a5.006 5.006 0 0 0-5-5H9a5.006 5.006 0 0 0-5 5v37H3a1 1 0 0 0-1 1v4a5.006 5.006 0 0 0 5 5h50a5.006 5.006 0 0 0 5-5v-4a1 1 0 0 0-1-1zM6 15a3 3 0 0 1 3-3h46a3 3 0 0 1 3 3v37H6zm21 39h10v1a1 1 0 0 1-1 1h-8a1 1 0 0 1-1-1zm33 3a3 3 0 0 1-3 3H7a3 3 0 0 1-3-3v-3h21v1a3 3 0 0 0 3 3h8a3 3 0 0 0 3-3v-1h21z"/><path d="M16 21h2v2h-2zm4 0h2v2h-2zm4 0h2v2h-2z"/><path d="M55 50a1 1 0 0 0 1-1V15a1 1 0 0 0-1-1H9a1 1 0 0 0-1 1v34a1 1 0 0 0 1 1zm-31.353-9.937l-2.253-2.253 1.416-1.416 2.253 2.253a1 1 0 0 0 1.278.114 9.684 9.684 0 0 1 3.837-1.6A1 1 0 0 0 31 36.18V33h2v3.18a1 1 0 0 0 .822.984 9.684 9.684 0 0 1 3.837 1.6 1 1 0 0 0 1.278-.114l2.253-2.25 1.415 1.415-2.252 2.253a1 1 0 0 0-.114 1.278 9.7 9.7 0 0 1 1.6 3.837 1 1 0 0 0 .981.817H46v2h-6.072a8 8 0 1 0-15.856 0H18v-2h3.18a1 1 0 0 0 .984-.822 9.684 9.684 0 0 1 1.6-3.837 1 1 0 0 0-.117-1.278zM26 47a6 6 0 1 1 11.91 1H26.09a6.126 6.126 0 0 1-.09-1zm24-23H14v-4h36zM10 48V16h44v32h-2V18H12v30zm4-22h36v22h-2v-3a1 1 0 0 0-1-1h-3.375a11.591 11.591 0 0 0-1.288-3.093l2.39-2.39a1 1 0 0 0 0-1.414l-2.83-2.83a1 1 0 0 0-1.414 0l-2.389 2.389A11.627 11.627 0 0 0 35 35.375V32a1 1 0 0 0-1-1h-4a1 1 0 0 0-1 1v3.375a11.588 11.588 0 0 0-3.093 1.287l-2.39-2.389a1 1 0 0 0-1.414 0l-2.83 2.83a1 1 0 0 0 0 1.414l2.389 2.39A11.588 11.588 0 0 0 20.375 44H17a1 1 0 0 0-1 1v3h-2z"/><path d="M18 32h2v2h-2zm0-4h2v2h-2zm-2 2h2v2h-2zm4 0h2v2h-2zm24 2h2v2h-2zm0-4h2v2h-2zm2 2h2v2h-2zm-4 0h2v2h-2z"/></svg>