<svg xmlns="http://www.w3.org/2000/svg" viewBox="0 0 512 512" fill="#ff6952"><path d="M475.684 126.824a7.489 7.489 0 0 0-8.23 6.689c-1.428 13.833-6.285 26.531-13.696 37.317V79.86a79.77 79.77 0 0 1 12.451 29.065c.844 4.055 4.815 6.663 8.869 5.816a7.498 7.498 0 0 0 5.816-8.869c-9.245-44.472-49.327-76.75-95.306-76.75-53.645 0-97.29 43.116-97.29 96.112 0 52.997 43.644 96.113 97.29 96.113 24.198 0 47.406-8.866 65.35-24.965 17.842-16.007 29.006-37.788 31.436-61.33a7.494 7.494 0 0 0-6.69-8.228zm-36.926-62.537v122.977c-14.371 11.958-32.952 19.082-53.169 19.082-45.375 0-82.29-36.388-82.29-81.113s36.915-81.112 82.29-81.112c20.022 0 38.717 7.215 53.214 19.338-.03.271-.045.548-.045.828z"/><path d="M334.885 125.233c0-13.377 5.257-25.94 14.802-35.377a7.5 7.5 0 0 0-10.546-10.666c-12.416 12.275-19.255 28.627-19.255 46.042 0 17.416 6.838 33.769 19.255 46.045a7.479 7.479 0 0 0 5.273 2.167 7.474 7.474 0 0 0 5.333-2.227 7.5 7.5 0 0 0-.06-10.606c-9.545-9.438-14.802-22.002-14.802-35.378zM97.07 424.902a7.5 7.5 0 0 0 7.5 7.5h223.264c4.143 0 7.5-3.357 7.5-7.5s-3.357-7.5-7.5-7.5h-31.328V381.22c0-6.812-5.542-12.354-12.354-12.354h-19.414c-6.812 0-12.354 5.542-12.354 12.354v36.182h-14.121v-94.424c0-6.812-5.542-12.354-12.354-12.354h-19.414c-6.812 0-12.354 5.542-12.354 12.354v94.424H180.02v-55.596c0-6.812-5.542-12.354-12.354-12.354h-19.414c-6.812 0-12.354 5.542-12.354 12.354v55.596H112.07v-99.277a7.5 7.5 0 0 0-7.5-7.5 7.5 7.5 0 0 0-7.5 7.5v106.777zm170.313-41.035h14.121v33.535h-14.121v-33.535zm-58.242-58.242h14.121v91.777h-14.121v-91.777zm-58.243 38.828h14.121v52.949h-14.121v-52.949zM104.57 247.969h165.02c4.143 0 7.5-3.357 7.5-7.5s-3.357-7.5-7.5-7.5H104.57a7.5 7.5 0 0 0 0 15zm0-87.364h38.828c4.142 0 7.5-3.357 7.5-7.5s-3.358-7.5-7.5-7.5H104.57c-4.142 0-7.5 3.357-7.5 7.5s3.358 7.5 7.5 7.5zm0 58.243h135.898c4.142 0 7.5-3.357 7.5-7.5s-3.358-7.5-7.5-7.5H104.57c-4.142 0-7.5 3.357-7.5 7.5s3.358 7.5 7.5 7.5zm0-135.899h116.484c4.142 0 7.5-3.357 7.5-7.5s-3.358-7.5-7.5-7.5H104.57c-4.142 0-7.5 3.357-7.5 7.5s3.358 7.5 7.5 7.5z"/><path d="M512 125.233C512 56.18 455.292 0 385.589 0c-24.918 0-48.179 7.182-67.779 19.562a7.54 7.54 0 0 0-1.491-.148H36.621C16.428 19.414 0 35.842 0 56.035v77.656a7.5 7.5 0 0 0 7.5 7.5h50.742v312.833c0 9.488 7.719 17.207 17.207 17.207h252.52c4.143 0 7.5-3.357 7.5-7.5s-3.357-7.5-7.5-7.5H75.449a2.21 2.21 0 0 1-2.207-2.207V56.036c0-8.08-2.631-15.558-7.08-21.621h232.474c-24.292 22.836-39.458 55.103-39.458 90.819 0 61.602 45.125 112.959 104.351 123.325l-.005 72.775c-8.817 2.797-15.219 11.007-15.219 20.674v1.041c0 6.369 2.777 12.106 7.193 16.082-4.648 19.128-7.193 43.125-7.193 68.068 0 20.804 1.757 40.963 5.079 58.299C356.327 500.854 369.872 512 385.589 512c15.718 0 29.262-11.146 32.205-26.502a253.906 253.906 0 0 0 2.299-14.268h16.458c9.488 0 17.207-7.719 17.207-17.207V255.026c0-4.143-3.357-7.5-7.5-7.5s-7.5 3.357-7.5 7.5v198.998a2.21 2.21 0 0 1-2.207 2.207H421.7c.776-9.375 1.173-19.13 1.173-29.031 0-24.938-2.545-48.937-7.191-68.063 4.415-3.971 7.191-9.707 7.191-16.073v-1.041c0-9.673-6.407-17.889-15.229-20.687l.005-72.777C466.875 238.192 512 186.836 512 125.233zm-453.758.958H15V56.035c0-11.922 9.699-21.621 21.621-21.621s21.621 9.699 21.621 21.621v70.156zm344.821 356.483C401.472 490.975 394.124 497 385.59 497s-15.882-6.025-17.473-14.326c-3.148-16.42-4.812-35.603-4.812-55.475 0-22.886 2.215-44.808 6.276-62.447.199.005.398.008.597.008h30.837c.194 0 .389-.003.582-.008 4.06 17.638 6.276 39.564 6.276 62.447 0 19.872-1.664 39.055-4.81 55.475zm4.81-140.651v1.041c0 3.692-3.076 6.696-6.858 6.696h-30.837c-3.79 0-6.873-3.011-6.873-6.711v-1.041c0-3.692 3.076-6.696 6.858-6.696H401c3.79 0 6.873 3.01 6.873 6.711zm-29.349-21.711l.005-70.037c4.676.258 9.445.258 14.121 0l-.005 70.037h-14.121zm7.065-84.845c-61.432 0-111.411-49.451-111.411-110.234C274.178 64.45 324.157 15 385.589 15S497 64.45 497 125.233c0 60.784-49.979 110.234-111.411 110.234z"/><path d="M104.57 112.07h77.656c4.142 0 7.5-3.357 7.5-7.5s-3.358-7.5-7.5-7.5H104.57c-4.142 0-7.5 3.357-7.5 7.5s3.358 7.5 7.5 7.5zm0 165.02h135.898c4.142 0 7.5-3.357 7.5-7.5s-3.358-7.5-7.5-7.5H104.57c-4.142 0-7.5 3.357-7.5 7.5s3.358 7.5 7.5 7.5z"/></svg>