<svg height="680" viewBox="-63 0 510 510.656" width="680" xmlns="http://www.w3.org/2000/svg" fill="#ff6952"><path d="M200.328 414.656h-16a8 8 0 0 1 0-16h32v-16h-16v-16h-16v16c-13.254 0-24 10.746-24 24s10.746 24 24 24h16a8 8 0 0 1 0 16h-32v16h16v16h16v-16c13.254 0 24-10.746 24-24s-10.746-24-24-24zm21.656-218.344L210.672 185l-10.344 10.344v-52.688h-16v52.688L173.984 185l-11.312 11.313 29.656 29.656zm0 0"/><path d="M192.328 334.656c-48.601 0-88 39.399-88 88s39.399 88 88 88 88-39.398 88-88c-.058-48.578-39.422-87.941-88-88zm0 160c-39.766 0-72-32.234-72-72s32.234-72 72-72 72 32.235 72 72c-.047 39.746-32.254 71.953-72 72zM220.77 13.312L211.887 0l-19.559 13.04L172.77 0l-8.883 13.313 28.441 18.96zm0 44L211.887 44l-19.559 13.04L172.77 44l-8.883 13.313 28.441 18.96zm104-44L315.887 0l-19.559 13.04L276.77 0l-8.883 13.313 28.441 18.96zm0 44L315.887 44l-19.559 13.04L276.77 44l-8.883 13.313 28.441 18.96zm-208-44L107.887 0 88.328 13.04 68.77 0l-8.883 13.313 28.441 18.96zm0 44L107.887 44 88.328 57.04 68.77 44l-8.883 13.313 28.441 18.96zm35.558 263.59l80-20V249.97l104-104V94.656h-288v51.313l104 104zm-88-181.558v-28.688h256v28.688l-104 104v45.062l-48 12v-57.062zm304 179.312h16v192h-16zm-32 32h16v160h-16zm-336-32h16v192h-16zm32 32h16v160h-16zm272 32h16v128h-16zm-240 0h16v128h-16zm0-32h16v16h-16zm-32-32h16v16h-16zm-32-32h16v16h-16zm304 64h16v16h-16zm32-32h16v16h-16zm32-32h16v16h-16zm0 0"/></svg>