<svg xmlns="http://www.w3.org/2000/svg" viewBox="0 0 489.336 489.336" fill="#ff6952"><path d="M188.833 76.26c-62.799 0-113.889 51.09-113.889 113.889 0 62.798 51.09 113.889 113.889 113.89 62.798 0 113.888-51.091 113.888-113.89S251.632 76.26 188.833 76.26zm0 219.279c-58.112-.001-105.389-47.278-105.389-105.39S130.721 84.76 188.833 84.76c58.111 0 105.388 47.277 105.388 105.389s-47.276 105.39-105.388 105.39z"/><path d="M188.833 104.021a4.25 4.25 0 0 0 0-8.5h-.001c-25.275 0-49.041 9.844-66.913 27.716-17.873 17.873-27.716 41.637-27.716 66.913a4.25 4.25 0 0 0 8.5 0c0-23.005 8.959-44.634 25.227-60.902 16.268-16.269 37.897-25.228 60.903-25.227z"/><path d="M188.833 122.169c-37.484.001-67.98 30.496-67.98 67.98 0 37.484 30.496 67.98 67.98 67.98 37.484 0 67.979-30.496 67.979-67.98s-30.495-67.98-67.979-67.98zm0 127.46c-32.798 0-59.48-26.683-59.48-59.48s26.683-59.48 59.48-59.48 59.48 26.683 59.48 59.48c0 32.798-26.683 59.48-59.48 59.48z"/><path d="M349.239 285.478L334.061 270.3a164.948 164.948 0 0 0 14.145-34.135h21.459c4.412 0 8.002-3.596 8.002-8.017V152.15c0-4.42-3.589-8.017-8.001-8.017h-21.46a164.922 164.922 0 0 0-14.145-34.135l15.178-15.178a7.943 7.943 0 0 0 2.341-5.67 7.964 7.964 0 0 0-2.351-5.656L295.49 29.752a7.976 7.976 0 0 0-5.656-2.35h-.017a7.944 7.944 0 0 0-5.654 2.341l-15.178 15.179a164.893 164.893 0 0 0-34.135-14.146V9.318c0-4.412-3.596-8.002-8.017-8.002h-75.998c-4.42 0-8.017 3.589-8.017 8.002v21.46a164.876 164.876 0 0 0-34.135 14.145l-15.179-15.18a7.944 7.944 0 0 0-5.654-2.34h-.014a7.962 7.962 0 0 0-5.658 2.351L28.441 83.492a7.97 7.97 0 0 0-2.354 5.658 7.942 7.942 0 0 0 2.341 5.67l15.178 15.179a164.951 164.951 0 0 0-14.144 34.134H8.002C3.59 144.133 0 147.73 0 152.151v75.997c0 4.421 3.59 8.017 8.002 8.017h21.459A164.963 164.963 0 0 0 43.606 270.3L28.43 285.476a7.937 7.937 0 0 0-2.342 5.672 7.965 7.965 0 0 0 2.352 5.657l53.738 53.739a7.971 7.971 0 0 0 5.657 2.351h.017a7.935 7.935 0 0 0 5.652-2.34l15.179-15.178a165.022 165.022 0 0 0 34.135 14.145v21.458c0 4.413 3.597 8.002 8.017 8.002l75.998-.001c4.42 0 8.017-3.589 8.017-8.001v-21.459a164.957 164.957 0 0 0 34.135-14.146l15.177 15.179c1.515 1.515 3.492 2.332 5.672 2.341a7.966 7.966 0 0 0 5.656-2.352l53.74-53.739c3.124-3.126 3.128-8.207.009-11.326zm-59.418 58.714L272.71 327.08a4.25 4.25 0 0 0-5.136-.673 156.398 156.398 0 0 1-38.161 15.802 4.252 4.252 0 0 0-3.063 4.505v23.767l-75.032.001v-9.268h35.544a4.25 4.25 0 0 0 0-8.5h-35.544v-6.062a4.252 4.252 0 0 0-3.14-4.465 156.51 156.51 0 0 1-38.136-15.809 4.252 4.252 0 0 0-5.365.984l-16.83 16.829-53.055-53.056 16.851-16.85a4.252 4.252 0 0 0 .978-5.316l-.038-.066a156.491 156.491 0 0 1-15.787-38.096 4.247 4.247 0 0 0-4.441-3.142H8.5v-75.032h24.192a4.25 4.25 0 0 0 4.106-3.154 156.488 156.488 0 0 1 15.775-38.07 4.25 4.25 0 0 0-.672-5.135l-17.11-17.111 53.054-53.057 17.112 17.112a4.252 4.252 0 0 0 5.136.672 156.38 156.38 0 0 1 38.084-15.78 4.247 4.247 0 0 0 3.14-4.435V9.816h75.032v6.309h-39.488a4.25 4.25 0 0 0 0 8.5h39.488v9.084a4.264 4.264 0 0 0 3.215 4.421 156.422 156.422 0 0 1 38.009 15.761 4.25 4.25 0 0 0 5.135-.672l17.112-17.113 53.055 53.057-17.111 17.111a4.25 4.25 0 0 0-.672 5.135 156.454 156.454 0 0 1 15.776 38.07 4.25 4.25 0 0 0 4.106 3.154h24.192v75.032h-23.813a4.259 4.259 0 0 0-4.481 3.139 156.462 156.462 0 0 1-15.78 38.086 4.25 4.25 0 0 0 .672 5.135l17.112 17.111-53.055 53.056z"/><path d="M188.833 55.38c-74.312 0-134.77 60.457-134.77 134.77 0 74.311 60.458 134.769 134.77 134.77 74.312 0 134.77-60.457 134.77-134.77 0-74.313-60.457-134.77-134.77-134.77zm0 261.039c-69.626-.001-126.27-56.645-126.27-126.27 0-69.626 56.645-126.27 126.27-126.27 69.626 0 126.27 56.644 126.27 126.27s-56.644 126.27-126.27 126.27zm296.69 88.265l-7.93-3.131a80.461 80.461 0 0 0-.239-14.682l7.818-3.39c3.051-1.323 4.456-4.884 3.132-7.939l-14.35-33.094c-1.325-3.051-4.883-4.462-7.935-3.138l-7.819 3.391a80.49 80.49 0 0 0-10.553-10.207l3.133-7.93c1.221-3.089-.302-6.6-3.399-7.828l-33.549-13.253c-3.098-1.221-6.608.301-7.829 3.392l-3.133 7.929a80.541 80.541 0 0 0-14.681.239l-3.392-7.822a6.038 6.038 0 0 0-7.938-3.127l-33.09 14.35a6.003 6.003 0 0 0-3.212 3.31 5.985 5.985 0 0 0 .07 4.624l3.391 7.819a80.499 80.499 0 0 0-10.208 10.554l-7.928-3.133a5.99 5.99 0 0 0-4.624.081 5.998 5.998 0 0 0-3.204 3.319L304.8 378.566c-1.22 3.097.302 6.608 3.392 7.829l7.93 3.132a80.447 80.447 0 0 0 .239 14.68l-7.819 3.391c-3.051 1.322-4.456 4.883-3.132 7.939l14.351 33.092c1.324 3.054 4.884 4.462 7.934 3.14l7.82-3.391a80.553 80.553 0 0 0 10.553 10.208l-3.129 7.923a5.983 5.983 0 0 0 .078 4.63 6.01 6.01 0 0 0 3.318 3.204l33.542 13.25a6.01 6.01 0 0 0 4.625-.073 5.985 5.985 0 0 0 3.21-3.316l3.132-7.929c4.892.368 9.807.288 14.681-.24l3.392 7.82c1.323 3.049 4.881 4.454 7.938 3.13l33.091-14.35c3.054-1.324 4.464-4.883 3.142-7.935v-.001l-3.391-7.819a80.357 80.357 0 0 0 10.207-10.553l7.928 3.132a5.99 5.99 0 0 0 4.626-.081 6.005 6.005 0 0 0 3.203-3.318l13.253-33.546c1.222-3.094-.297-6.607-3.391-7.83zm-16.863 35.965l-8.605-3.399a4.25 4.25 0 0 0-4.979 1.426 71.994 71.994 0 0 1-13.188 13.634 4.251 4.251 0 0 0-1.261 5.022l3.68 8.486-28.574 12.391-3.575-8.243a4.246 4.246 0 0 0-4.625-2.756 72.112 72.112 0 0 1-18.976.311 4.252 4.252 0 0 0-4.443 2.66l-3.399 8.604-28.966-11.442 3.399-8.605a4.249 4.249 0 0 0-1.426-4.979 71.977 71.977 0 0 1-13.707-13.278 4.252 4.252 0 0 0-5.223-1.052l-8.212 3.561-12.391-28.574 8.247-3.577a4.252 4.252 0 0 0 2.74-4.708 71.998 71.998 0 0 1-.297-18.898 4.25 4.25 0 0 0-2.905-4.532l-8.362-3.304 11.443-28.966 8.376 3.31a4.252 4.252 0 0 0 5.251-1.396 72.081 72.081 0 0 1 13.138-13.57 4.252 4.252 0 0 0 1.17-5.251l-3.582-8.261 28.574-12.391 3.679 8.485a4.248 4.248 0 0 0 4.527 2.512 72.045 72.045 0 0 1 18.967-.308 4.253 4.253 0 0 0 4.444-2.66l3.4-8.606 28.966 11.443-3.4 8.606a4.252 4.252 0 0 0 1.426 4.979 71.968 71.968 0 0 1 13.639 13.194 4.248 4.248 0 0 0 5.193 1.18l8.312-3.605 12.39 28.574-8.231 3.569a4.252 4.252 0 0 0-2.768 4.629 72.026 72.026 0 0 1 .31 18.976 4.25 4.25 0 0 0 2.661 4.445l8.605 3.398-11.442 28.966z"/><path d="M419.023 339.433c-14.986-5.921-31.381-5.65-46.165.76-14.784 6.411-26.186 18.194-32.107 33.181-5.92 14.986-5.65 31.382.76 46.166 9.855 22.726 32.105 36.326 55.43 36.324a60.01 60.01 0 0 0 23.916-4.978c30.517-13.233 44.579-48.828 31.346-79.346-6.41-14.784-18.194-26.187-33.18-32.107zm-1.547 103.653c-26.217 11.371-56.797-.711-68.166-26.928-5.508-12.701-5.74-26.786-.654-39.661s14.882-22.998 27.584-28.506a51.536 51.536 0 0 1 20.545-4.277c20.036 0 39.154 11.684 47.62 31.206 11.369 26.219-.711 56.798-26.929 68.166z"/><path d="M381.306 359.675a4.25 4.25 0 0 0 3.381 7.798c15.473-6.71 33.524.419 40.236 15.895a4.25 4.25 0 1 0 7.798-3.382c-8.575-19.774-31.638-28.885-51.415-20.311zm27.722 63.93c-7.497 3.251-15.811 3.388-23.41.386-7.6-3.002-13.575-8.784-16.826-16.281a4.25 4.25 0 0 0-7.798 3.382c4.154 9.58 11.79 16.968 21.501 20.805a39.062 39.062 0 0 0 14.371 2.755c5.28 0 10.553-1.084 15.543-3.248a4.25 4.25 0 0 0-3.381-7.799z"/></svg>