<svg xmlns="http://www.w3.org/2000/svg" viewBox="0 0 636.25 652.93"><defs><style>.cls-1,.cls-2{fill:none;stroke-miterlimit:10}.cls-1{stroke:#ff6952}.cls-2{stroke:#000}.cls-3{fill:#ff6952}.cls-4{fill:#ffdd57}</style></defs><g id="Layer_2" data-name="Layer 2"><g id="Layer_1-2" data-name="Layer 1"><path class="cls-1" d="M523.96 189.42L635.75 189.42 635.75 280.95 523.96 189.42z"/><path class="cls-2" d="M89.2 206.39H28A20.41 20.41 0 0 0 7.55 226.8V632A20.41 20.41 0 0 0 28 652.43 20.41 20.41 0 0 0 48.38 632v-21.43"/><circle class="cls-3" cx="7.81" cy="535.4" r="7.81"/><path class="cls-2" d="M76.46 91.47H579.85V108.33H76.46z"/><path class="cls-2" transform="rotate(90 189 214.93)" d="M82.4 180.28H295.6V249.57999999999998H82.4z"/><path class="cls-2" d="M154.35 274.33L223.65 274.33"/><path class="cls-2" d="M223.65 274.33L154.35 321.53"/><path class="cls-2" d="M154.35 227.97L223.65 227.97"/><path class="cls-2" d="M223.65 227.97L154.35 275.17"/><path class="cls-2" d="M154.35 181.6L223.65 181.6"/><path class="cls-2" d="M223.65 181.6L154.35 228.81"/><path class="cls-2" d="M154.35 135.24L223.65 135.24"/><path class="cls-2" d="M223.65 135.24L154.35 182.45"/><path class="cls-2" d="M76.46 91.47L190.43 1.39 579.85 91.47"/><path class="cls-2" d="M154.35 91.47L190.43 1.39 223.65 91.47"/><path class="cls-2" d="M579.85 108.33L579.85 148.2"/><path class="cls-2" d="M552.81 148.2H602.75V158.85H552.81z"/><path class="cls-2" d="M577.78 158.52L577.78 173.23"/><path class="cls-2" d="M320.54 227.97H432.33000000000004V319.5H320.54z"/><path class="cls-4" d="M231.55 227.97H311.82V319.5H231.55z"/><path class="cls-2" d="M553.87 319.5L442.08 319.5 442.08 227.97 553.87 319.5z"/><path class="cls-2" d="M577.78 173.23c10.91 0 19.77 7.25 19.77 16.19s-8.86 16.18-19.77 16.18"/></g></g></svg>