<svg xmlns="http://www.w3.org/2000/svg" viewBox="0 0 636.25 652.93"><defs><style>.cls-1,.cls-2{fill:none;stroke-miterlimit:10;}.cls-1{stroke:#ff6952;}.cls-2{stroke:#000;}.cls-3{fill:#ff6952;}.cls-4{fill:#ffdd57;}</style></defs><title>Asset 6</title><g id="Layer_2" data-name="Layer 2"><g id="Layer_1-2" data-name="Layer 1"><polygon class="cls-1" points="523.96 189.42 635.75 189.42 635.75 280.95 523.96 189.42"/><path class="cls-2" d="M89.2,206.39H28A20.41,20.41,0,0,0,7.55,226.8V632A20.41,20.41,0,0,0,28,652.43h0A20.41,20.41,0,0,0,48.38,632V610.57"/><circle class="cls-3" cx="7.81" cy="535.4" r="7.81"/><rect class="cls-2" x="76.46" y="91.47" width="503.39" height="16.86"/><rect class="cls-2" x="82.4" y="180.28" width="213.2" height="69.3" transform="translate(403.93 25.93) rotate(90)"/><line class="cls-2" x1="154.35" y1="274.33" x2="223.65" y2="274.33"/><line class="cls-2" x1="223.65" y1="274.33" x2="154.35" y2="321.53"/><line class="cls-2" x1="154.35" y1="227.97" x2="223.65" y2="227.97"/><line class="cls-2" x1="223.65" y1="227.97" x2="154.35" y2="275.17"/><line class="cls-2" x1="154.35" y1="181.6" x2="223.65" y2="181.6"/><line class="cls-2" x1="223.65" y1="181.6" x2="154.35" y2="228.81"/><line class="cls-2" x1="154.35" y1="135.24" x2="223.65" y2="135.24"/><line class="cls-2" x1="223.65" y1="135.24" x2="154.35" y2="182.45"/><polyline class="cls-2" points="76.46 91.47 190.43 1.39 579.85 91.47"/><polyline class="cls-2" points="154.35 91.47 190.43 1.39 223.65 91.47"/><line class="cls-2" x1="579.85" y1="108.33" x2="579.85" y2="148.2"/><rect class="cls-2" x="552.81" y="148.2" width="49.94" height="10.65"/><line class="cls-2" x1="577.78" y1="158.52" x2="577.78" y2="173.23"/><rect class="cls-2" x="320.54" y="227.97" width="111.79" height="91.53"/><rect class="cls-4" x="231.55" y="227.97" width="80.27" height="91.53"/><polygon class="cls-2" points="553.87 319.5 442.08 319.5 442.08 227.97 553.87 319.5"/><path class="cls-2" d="M577.78,173.23c10.91,0,19.77,7.25,19.77,16.19s-8.86,16.18-19.77,16.18"/></g></g></svg>