<svg xmlns="http://www.w3.org/2000/svg" xmlns:xlink="http://www.w3.org/1999/xlink" viewBox="0 0 714.03 331.89"><defs><style>.cls-1,.cls-2,.cls-4{fill:none;}.cls-2{stroke:#000;}.cls-2,.cls-4{stroke-miterlimit:10;}.cls-3{clip-path:url(#clip-path);}.cls-4{stroke:#3d8ca3;}</style><clipPath id="clip-path"><rect class="cls-1" x="443.17" y="20.89" width="188.68" height="245.12"/></clipPath></defs><title>Asset 7</title><g id="Layer_2" data-name="Layer 2"><g id="Layer_1-2" data-name="Layer 1"><rect class="cls-2" x="0.5" y="168.78" width="188.68" height="97.22"/><rect class="cls-2" x="222.95" y="93.23" width="188.68" height="172.78"/><g class="cls-3"><line class="cls-4" x1="359.66" y1="191.06" x2="548.73" y2="331.49"/><line class="cls-4" x1="366.99" y1="185.12" x2="556.06" y2="325.55"/><line class="cls-4" x1="374.33" y1="179.17" x2="563.39" y2="319.6"/><line class="cls-4" x1="381.66" y1="173.22" x2="570.73" y2="313.65"/><line class="cls-4" x1="388.99" y1="167.28" x2="578.06" y2="307.71"/><line class="cls-4" x1="396.33" y1="161.33" x2="585.4" y2="301.76"/><line class="cls-4" x1="403.66" y1="155.39" x2="592.73" y2="295.82"/><line class="cls-4" x1="411" y1="149.44" x2="600.06" y2="289.87"/><line class="cls-4" x1="418.33" y1="143.49" x2="607.4" y2="283.92"/><line class="cls-4" x1="425.66" y1="137.55" x2="614.73" y2="277.98"/><line class="cls-4" x1="433" y1="131.6" x2="622.06" y2="272.03"/><line class="cls-4" x1="440.33" y1="125.66" x2="629.4" y2="266.09"/><line class="cls-4" x1="443.99" y1="118.18" x2="633.06" y2="258.61"/><line class="cls-4" x1="377.86" y1="57.61" x2="637.36" y2="250.41"/><line class="cls-4" x1="385.49" y1="51.89" x2="645" y2="244.69"/><line class="cls-4" x1="393.13" y1="46.17" x2="652.63" y2="238.97"/><line class="cls-4" x1="400.77" y1="40.45" x2="660.27" y2="233.25"/><line class="cls-4" x1="408.4" y1="34.73" x2="667.91" y2="227.53"/><line class="cls-4" x1="416.04" y1="29.01" x2="675.54" y2="221.81"/><line class="cls-4" x1="423.68" y1="23.28" x2="683.18" y2="216.08"/><line class="cls-4" x1="431.32" y1="17.56" x2="690.82" y2="210.36"/><line class="cls-4" x1="438.95" y1="11.84" x2="698.46" y2="204.64"/><line class="cls-4" x1="446.59" y1="6.12" x2="706.09" y2="198.92"/><line class="cls-4" x1="454.23" y1="0.4" x2="713.73" y2="193.2"/></g><rect class="cls-2" x="443.17" y="20.89" width="188.68" height="245.12"/></g></g></svg>