<svg xmlns="http://www.w3.org/2000/svg" viewBox="0 0 714.03 331.89"><defs><style>.cls-1,.cls-2,.cls-4{fill:none}.cls-2{stroke:#000}.cls-2,.cls-4{stroke-miterlimit:10}.cls-3{clip-path:url(#clip-path)}.cls-4{stroke:#3d8ca3}</style><clipPath id="clip-path"><path class="cls-1" d="M443.17 20.89H631.85V266.01H443.17z"/></clipPath></defs><g id="Layer_2" data-name="Layer 2"><g id="Layer_1-2" data-name="Layer 1"><path class="cls-2" d="M0.5 168.78H189.18V266H0.5z"/><path class="cls-2" d="M222.95 93.23H411.63V266.01H222.95z"/><g class="cls-3"><path class="cls-4" d="M359.66 191.06L548.73 331.49"/><path class="cls-4" d="M366.99 185.12L556.06 325.55"/><path class="cls-4" d="M374.33 179.17L563.39 319.6"/><path class="cls-4" d="M381.66 173.22L570.73 313.65"/><path class="cls-4" d="M388.99 167.28L578.06 307.71"/><path class="cls-4" d="M396.33 161.33L585.4 301.76"/><path class="cls-4" d="M403.66 155.39L592.73 295.82"/><path class="cls-4" d="M411 149.44L600.06 289.87"/><path class="cls-4" d="M418.33 143.49L607.4 283.92"/><path class="cls-4" d="M425.66 137.55L614.73 277.98"/><path class="cls-4" d="M433 131.6L622.06 272.03"/><path class="cls-4" d="M440.33 125.66L629.4 266.09"/><path class="cls-4" d="M443.99 118.18L633.06 258.61"/><path class="cls-4" d="M377.86 57.61L637.36 250.41"/><path class="cls-4" d="M385.49 51.89L645 244.69"/><path class="cls-4" d="M393.13 46.17L652.63 238.97"/><path class="cls-4" d="M400.77 40.45L660.27 233.25"/><path class="cls-4" d="M408.4 34.73L667.91 227.53"/><path class="cls-4" d="M416.04 29.01L675.54 221.81"/><path class="cls-4" d="M423.68 23.28L683.18 216.08"/><path class="cls-4" d="M431.32 17.56L690.82 210.36"/><path class="cls-4" d="M438.95 11.84L698.46 204.64"/><path class="cls-4" d="M446.59 6.12L706.09 198.92"/><path class="cls-4" d="M454.23 0.4L713.73 193.2"/></g><path class="cls-2" d="M443.17 20.89H631.85V266.01H443.17z"/></g></g></svg>