<svg xmlns="http://www.w3.org/2000/svg" viewBox="0 0 694.21 417.62"><defs><style>.cls-1,.cls-2{fill:none;stroke-miterlimit:10}.cls-1{stroke:#000}.cls-2{stroke:#ff6952}.cls-3{fill:#ffdd57}</style></defs><g id="Layer_2" data-name="Layer 2"><g id="Layer_1-2" data-name="Layer 1"><path class="cls-1" d="M408.06 107.35L408.06 50.35 388.23 50.35 388.23 107.35"/><path class="cls-1" d="M376.89 110.18L376.89 33.34 357.06 33.34 357.06 109.85"/><path class="cls-1" d="M345.72 109.85L345.72 13.51 325.88 13.51 325.88 109.85"/><path class="cls-1" d="M429.72 115.52L311.72 115.52"/><rect class="cls-1" x=".5" y="13.51" width="137.98" height="100.35" rx="2" transform="rotate(180 69.49 63.68)"/><path class="cls-1" d="M78.9 132.67L78.9 113.86"/><path class="cls-1" d="M60.08 113.86L60.08 132.67"/><path class="cls-1" d="M97.71 132.67L41.27 132.67"/><path class="cls-1" d="M138.48 95.04L0.5 95.04"/><path class="cls-1" d="M72.62 104.45L66.35 104.45"/><circle class="cls-1" cx="63.22" cy="51.14" r="25.09"/><path class="cls-1" d="M50.67 51.14A12.54 12.54 0 0 1 63.22 38.6"/><path class="cls-1" d="M82.45 67.24L100.85 85.63"/><path class="cls-1" d="M280.01 102.3L280.01 132.82 182.9 132.82 182.9 13.51 280.01 13.51 280.01 108.48"/><path class="cls-1" d="M182.9 30.16L280.01 30.16"/><path class="cls-1" d="M191.22 21.83L196.77 21.83"/><path class="cls-1" d="M199.55 21.83L205.09 21.83"/><path class="cls-1" d="M196.77 44.03H268.91V71.78H196.77z"/><path class="cls-1" d="M194 85.65L265.16 85.65"/><path class="cls-1" d="M194 96.75L266.71 96.75"/><path class="cls-1" d="M194 107.85L227.29 107.85"/><path class="cls-1" d="M194 118.94L227.29 118.94"/><path class="cls-1" d="M235.62 107.85L268.91 107.85"/><path class="cls-1" d="M235.62 118.94L268.91 118.94"/><path class="cls-1" d="M581.02 108.79L475.07 108.79 475.07 24.74 581.74 24.74 581.74 110.23"/><path class="cls-1" d="M468.78 46.38L453.78 48.4 465 131.69 569.62 117.6"/><path class="cls-1" d="M484.77 92.62L510.63 66.77 530.02 86.16"/><path class="cls-1" d="M520.33 76.46L539.72 57.07 549.42 66.77"/><circle class="cls-1" cx="500.93" cy="47.37" r="9.7"/><path class="cls-2" d="M475.69 23.1S429.41 10.3 408 8.7s-45.1-4.29-75.74 4.3c-30.2 8.45-13 11.25-47 11.33-34-.08-16.78-2.88-47-11.33-30.61-8.59-54.21-5.9-75.66-4.3S94.87 23.1 94.87 23.1c-1.54 16-.62 13.49 2.75 19.92S102.47 78 105 91.14c3.68 19.31 13.49 38.31 27.28 48.43s37.08 12 71.41 8.58c26.37-2.59 34.05-12.8 43.52-27.28 8.82-13.48 18.39-46 23-65C273.31 43 284.47 42 285.21 42s12 .91 15.17 13.86c4.6 19 14.17 51.49 23 65 9.46 14.48 17.14 24.69 43.52 27.28 34.32 3.37 57.62 1.53 71.41-8.58s23.6-29.12 27.28-48.43c2.5-13.17 4-41.68 7.35-48.12s4.28-3.9 2.75-19.91zM259.45 55.9c-4.6 32.18-14.71 63.13-27.89 72.94s-39.54 14.1-68.65 11-39.23-23.6-45.06-42.29-8-35.25-6.43-54.56c0 0 3.37-16.85 31.56-24.21 24.2-6.31 56.7-6.74 76.93-2.76s44.14 7.7 39.54 39.88zM452.7 97.58c-5.82 18.69-15.93 39.23-45.05 42.29s-55.47-1.22-68.65-11-23.29-40.79-27.89-72.97 19.31-35.9 39.53-39.85 52.74-3.55 76.93 2.76C455.77 26.17 459.14 43 459.14 43c1.53 19.33-.61 35.88-6.44 54.58z"/><path class="cls-3" d="M479.69 16.1S433.41 3.3 412 1.7 366.9-2.59 336.26 6c-30.2 8.45-13 11.25-47 11.33-34-.08-16.78-2.88-47-11.33-30.61-8.59-54.21-5.9-75.66-4.3S98.87 16.1 98.87 16.1c-1.54 16-.62 13.49 2.75 19.92S106.47 71 109 84.14c3.68 19.31 13.49 38.31 27.28 48.43s37.08 12 71.41 8.58c26.37-2.59 34.05-12.8 43.52-27.28 8.82-13.48 18.39-46 23-65C277.31 36 288.47 35 289.21 35s12 .91 15.17 13.86c4.6 19 14.17 51.49 23 65 9.46 14.48 17.14 24.69 43.52 27.28 34.32 3.37 57.62 1.53 71.41-8.58s23.6-29.12 27.28-48.43c2.5-13.17 4-41.68 7.35-48.12s4.28-3.9 2.75-19.91zM263.45 48.9c-4.6 32.18-14.71 63.13-27.89 72.94s-39.54 14.1-68.65 11-39.23-23.6-45.06-42.29-8-35.25-6.43-54.56c0 0 3.37-16.85 31.56-24.21 24.2-6.31 56.7-6.74 76.93-2.76s44.14 7.7 39.54 39.88zM456.7 90.58c-5.82 18.69-15.93 39.23-45.05 42.29s-55.47-1.22-68.65-11-23.29-40.79-27.89-72.97S334.42 13 354.64 9.05s52.74-3.55 76.93 2.76C459.77 19.17 463.14 36 463.14 36c1.53 19.33-.61 35.88-6.44 54.58z"/><path class="cls-1" d="M606 67.49h44.24a36 36 0 0 1 36 36v217.85a18.71 18.71 0 0 1-18.7 18.7h-2.72a18.7 18.7 0 0 1-18.7-18.7 18.7 18.7 0 0 0-18.7-18.7h-175.1a18.7 18.7 0 0 0-18.7 18.7v96.28"/><circle class="cls-3" cx="686.39" cy="166.45" r="7.81"/></g></g></svg>