<svg data-name="Layer 1" xmlns="http://www.w3.org/2000/svg" width="974" height="757.15"><path fill="#f2f2f2" d="M264 27H512V299H264z"/><path fill="none" stroke="#3f3d56" stroke-miterlimit="10" stroke-width="2" d="M289 1H537V273H289z"/><path fill="#3d8ca3" d="M302 242.314H315.371V255.685H302z"/><path fill="#3f3d56" d="M321.314 242.314H334.685V255.685H321.314z"/><path fill="#575a89" d="M340.629 242.314H354V255.685H340.629z"/><path fill="#3f3d56" d="M452 248.122H504V250.23000000000002H452z"/><path fill="#3f3d56" d="M452 254.446H504V256.554H452z"/><path fill="#3f3d56" d="M452 260.77H504V262.878H452z"/><path d="M413 49v22a66 66 0 0 1 46.67 112.67l15.555 15.555A88 88 0 0 0 413 49z" fill="#3f3d56"/><path d="M475.225 199.225L459.67 183.67a65.983 65.983 0 0 1-86.6 5.872l-13.316 17.52a87.998 87.998 0 0 0 115.472-7.836z" fill="#575a89"/><path d="M347 137a66 66 0 0 1 66-66V49a88 88 0 0 0-53.247 158.061l13.316-17.52A65.885 65.885 0 0 1 347 137z" fill="#3d8ca3"/><path d="M578.122 576.9A50.122 50.122 0 0 1 528 526.778V468.4c0-116.808 94.692-211.5 211.5-211.5S951 351.592 951 468.4v45.894a62.606 62.606 0 0 1-62.606 62.606" fill="#f2f2f2"/><path d="M909.394 639.9v-2A61.676 61.676 0 0 0 971 576.294V456.4c0-116.07-94.43-210.5-210.5-210.5S550 340.33 550 456.4v132.378a49.178 49.178 0 0 0 49.122 49.122v2A51.18 51.18 0 0 1 548 588.778V456.4c0-117.173 95.327-212.5 212.5-212.5S973 339.227 973 456.4v119.894a63.68 63.68 0 0 1-63.606 63.606z" fill="#3f3d56"/><path fill="#3f3d56" d="M547 562.9H974V738.9H547z"/><path transform="rotate(-35.41 765.268 629.306)" fill="#3d8ca3" d="M907.86 462.785H957.86V512.7850000000001H907.86z"/><path transform="rotate(-35.41 768.547 618.387)" fill="none" stroke="#3f3d56" stroke-miterlimit="10" stroke-width="2" d="M911.14 451.865H961.14V501.865H911.14z"/><circle cx="750" cy="341.9" r="21" fill="#3d8ca3"/><circle cx="744" cy="338.9" r="21" fill="none" stroke="#3f3d56" stroke-miterlimit="10" stroke-width="2"/><path fill="#3d8ca3" d="M687.934 425.82L713.068 440.287 738.201 454.754 713.105 469.287 688.01 483.82 687.972 454.82 687.934 425.82z"/><path fill="none" stroke="#3f3d56" stroke-miterlimit="10" stroke-width="2" d="M683.895 436.803L709.028 451.271 734.162 465.738 709.066 480.271 683.97 494.803 683.932 465.803 683.895 436.803z"/><path d="M585.435 378.724a87.84 87.84 0 0 1 55.558-59.227c3.63-1.248 2.07-7.046-1.595-5.786a94.081 94.081 0 0 0-59.749 63.418c-1.03 3.727 4.758 5.318 5.786 1.595zm-11.38 32.767c3.86 0 3.867-6 0-6-3.86 0-3.867 6 0 6z" fill="#fff"/><path transform="rotate(17.605 545.51 62.495)" fill="#f2f2f2" d="M324 402.825H422V522.825H324z"/><path transform="rotate(17.605 548.666 23.586)" fill="#3f3d56" d="M356.916 422.852H395.396V424.981H356.916z"/><path transform="rotate(17.605 555.828 29.981)" fill="#3f3d56" d="M355.317 429.247H411.317V431.37600000000003H355.317z"/><path transform="rotate(17.605 544.605 36.384)" fill="#3f3d56" d="M352.855 435.65H391.33500000000004V437.779H352.855z"/><path transform="rotate(17.605 539.851 51.367)" fill="#3f3d56" d="M348.1 450.633H386.58000000000004V452.762H348.1z"/><path transform="rotate(17.605 551.767 42.78)" fill="#3f3d56" d="M351.256 442.045H407.256V444.17400000000004H351.256z"/><path transform="rotate(17.605 550.578 46.525)" fill="#3f3d56" d="M350.067 445.791H406.067V447.92H350.067z"/><path transform="rotate(17.605 549.39 50.27)" fill="#3f3d56" d="M348.879 449.537H404.879V451.666H348.879z"/><path transform="rotate(17.605 527.718 59.285)" fill="#3d8ca3" d="M345.138 456.832H365.27799999999996V462.399H345.138z"/><ellipse cx="131" cy="740.15" rx="131" ry="17" fill="#3f3d56"/><path d="M69.123 269.526l-4.351 10.335 4.895 66.905s-2.72 3.807 0 6.527 2.176 3.808 2.176 3.808-4.352 0-2.176 3.263 2.176 4.896 2.176 4.896l-1.088 3.263s2.176 2.72 2.176 4.896 14.142 69.08 14.142 69.08l13.599-26.653-7.615-106.068z" fill="#3d8ca3"/><path d="M208.758 439.662s29.699-1.2 39.168 9.277-37.202 2.897-39.842-.054.674-9.223.674-9.223z" fill="#ffb9b9"/><path d="M62.052 703.59l-5.983 19.582s-8.703 19.038 3.263 21.758 23.39-7.615 23.39-7.615V724.26l4.351-20.67zm97.91 0s-2.72 36.988 3.263 39.164 27.197 2.72 27.74 0 7.072-5.44 2.177-9.247-8.16-26.109-8.16-26.109z" fill="#2f2e41"/><path d="M105.023 353.293v16.318s-17.95 37.532-24.477 96.822-28.829 239.877-23.39 243.14 64.185 5.44 65.817 1.089 3.264-131.634 3.264-131.634l20.126-89.75s3.807 32.093 7.07 37.532-5.439 182.22 0 184.94 78.872 7.615 77.784-1.088-25.565-244.773-25.565-244.773-12.51-111.508-16.318-112.596-38.62-2.176-44.06-1.088-40.25 1.088-40.25 1.088z" fill="#2f2e41"/><circle cx="146.363" cy="187.391" r="31.005" fill="#ffb9b9"/><path d="M152.89 213.5s-15.774 24.478-11.967 31.005-40.251-6.527-40.251-6.527 26.653-32.637 26.109-36.444S152.89 213.5 152.89 213.5z" fill="#ffb9b9"/><path d="M185.526 249.944s-28.828-9.247-32.636-13.054a52.318 52.318 0 0 1-6.527-8.16s-34.813-4.895-35.9-4.895-9.247 9.791-11.423 11.967-29.917 16.862-29.917 20.67-4.351 23.389-4.351 23.389 9.79 20.126 15.774 24.477 7.615 3.264 8.16 10.335 8.158 18.494 8.158 18.494 4.896 12.51 3.808 16.318-5.984 7.072 5.44 5.984 67.992 2.176 67.992-3.808-10.88-63.097-10.88-63.097z" fill="#3d8ca3"/><path d="M175.192 251.032l10.334-1.088s3.808 2.176 4.352 23.39.544 72.344 4.351 76.695 19.582 71.8 19.582 71.8 4.352 1.088 4.352 4.896 4.895 7.071 2.72 11.423 2.175 3.263-.544 5.983-15.775 8.16-16.319 4.895 1.632-3.807-.544-4.895-2.175-1.632-2.72-5.44-5.439-7.615-4.895-9.246-23.933-48.955-23.933-50.587-1.632-7.615-3.808-8.703-5.44-2.176-3.807-4.895-4.352-84.311-4.352-84.311z" fill="#3d8ca3"/><path d="M172.581 167.729c-9.507-10.321-24.438-15.799-38.13-12.729s-25.223 15.226-26.293 29.218c-.22 2.862-.037 5.785-.778 8.558-1.245 4.665-4.952 8.362-6.258 13.01-.875 3.112-.616 6.464-1.544 9.562-1.713 5.724-7.018 9.456-11.062 13.855a14.02 14.02 0 0 0-3.54 5.795 21.852 21.852 0 0 0-.269 5.896A41.057 41.057 0 0 1 73.7 269.536a70.652 70.652 0 0 1 13.698-7.963c-2.404 7.655-.207 16.713 5.842 21.986s15.737 6.09 22.277 1.442c3.886-2.762 6.41-7 8.82-11.113l9.125-15.57c1.65-2.817 3.374-5.715 6.012-7.64 2.096-1.528 4.642-2.341 6.752-3.851 5.322-3.808 6.751-11.261 5.76-17.73s-3.9-12.475-5.568-18.803c-1.32-5.005-1.734-10.74 1.235-14.98 3.94-5.63 12.039-6.347 17.393-10.652 2.016-1.621 2.917-3.593 4.36-5.622 1.334-1.873 1.673-1.202 3.739-1.288 5.67-.235 1.538-7.742-.564-10.023z" fill="#2f2e41"/><ellipse cx="145.5" cy="198.15" rx="2.5" ry="6" fill="#ffb9b9"/><circle cx="421" cy="598.9" r="32" fill="#f2f2f2"/><circle cx="101" cy="48.9" r="32" fill="#f2f2f2"/><circle cx="771" cy="123.9" r="32" fill="#f2f2f2"/></svg>