<svg xmlns="http://www.w3.org/2000/svg" viewBox="0 0 694.21 417.62"><defs><style>.cls-1,.cls-2{fill:none;stroke-miterlimit:10;}.cls-1{stroke:#000;}.cls-2{stroke:#ff6952;}.cls-3{fill:#ffdd57;}</style></defs><title>Asset 5</title><g id="Layer_2" data-name="Layer 2"><g id="Layer_1-2" data-name="Layer 1"><polyline class="cls-1" points="408.06 107.35 408.06 50.35 388.23 50.35 388.23 107.35"/><polyline class="cls-1" points="376.89 110.18 376.89 33.34 357.06 33.34 357.06 109.85"/><polyline class="cls-1" points="345.72 109.85 345.72 13.51 325.88 13.51 325.88 109.85"/><line class="cls-1" x1="429.72" y1="115.52" x2="311.72" y2="115.52"/><rect class="cls-1" x="0.5" y="13.51" width="137.98" height="100.35" rx="2" transform="translate(138.98 127.36) rotate(180)"/><line class="cls-1" x1="78.9" y1="132.67" x2="78.9" y2="113.86"/><line class="cls-1" x1="60.08" y1="113.86" x2="60.08" y2="132.67"/><line class="cls-1" x1="97.71" y1="132.67" x2="41.27" y2="132.67"/><line class="cls-1" x1="138.48" y1="95.04" x2="0.5" y2="95.04"/><line class="cls-1" x1="72.62" y1="104.45" x2="66.35" y2="104.45"/><circle class="cls-1" cx="63.22" cy="51.14" r="25.09"/><path class="cls-1" d="M50.67,51.14A12.54,12.54,0,0,1,63.22,38.6"/><line class="cls-1" x1="82.45" y1="67.24" x2="100.85" y2="85.63"/><polyline class="cls-1" points="280.01 102.3 280.01 132.82 182.9 132.82 182.9 13.51 280.01 13.51 280.01 108.48"/><line class="cls-1" x1="182.9" y1="30.16" x2="280.01" y2="30.16"/><line class="cls-1" x1="191.22" y1="21.83" x2="196.77" y2="21.83"/><line class="cls-1" x1="199.55" y1="21.83" x2="205.09" y2="21.83"/><rect class="cls-1" x="196.77" y="44.03" width="72.14" height="27.75"/><line class="cls-1" x1="194" y1="85.65" x2="265.16" y2="85.65"/><line class="cls-1" x1="194" y1="96.75" x2="266.71" y2="96.75"/><line class="cls-1" x1="194" y1="107.85" x2="227.29" y2="107.85"/><line class="cls-1" x1="194" y1="118.94" x2="227.29" y2="118.94"/><line class="cls-1" x1="235.62" y1="107.85" x2="268.91" y2="107.85"/><line class="cls-1" x1="235.62" y1="118.94" x2="268.91" y2="118.94"/><polyline class="cls-1" points="581.02 108.79 475.07 108.79 475.07 24.74 581.74 24.74 581.74 110.23"/><polyline class="cls-1" points="468.78 46.38 453.78 48.4 465 131.69 569.62 117.6"/><polyline class="cls-1" points="484.77 92.62 510.63 66.77 530.02 86.16"/><polyline class="cls-1" points="520.33 76.46 539.72 57.07 549.42 66.77"/><circle class="cls-1" cx="500.93" cy="47.37" r="9.7"/><path class="cls-2" d="M475.69,23.1S429.41,10.3,408,8.7,362.9,4.41,332.26,13c-30.2,8.45-13,11.25-47,11.33-34-.08-16.78-2.88-47-11.33C207.65,4.41,184.05,7.1,162.6,8.7S94.87,23.1,94.87,23.1c-1.54,16-.62,13.49,2.75,19.92S102.47,78,105,91.14c3.68,19.31,13.49,38.31,27.28,48.43s37.08,12,71.41,8.58c26.37-2.59,34.05-12.8,43.52-27.28,8.82-13.48,18.39-46,23-65C273.31,43,284.47,42,285.21,42s12,.91,15.17,13.86c4.6,19,14.17,51.49,23,65,9.46,14.48,17.14,24.69,43.52,27.28,34.32,3.37,57.62,1.53,71.41-8.58s23.6-29.12,27.28-48.43c2.5-13.17,4-41.68,7.35-48.12S477.22,39.11,475.69,23.1ZM259.45,55.9c-4.6,32.18-14.71,63.13-27.89,72.94s-39.54,14.1-68.65,11-39.23-23.6-45.06-42.29-8-35.25-6.43-54.56c0,0,3.37-16.85,31.56-24.21,24.2-6.31,56.7-6.74,76.93-2.76S264.05,23.72,259.45,55.9ZM452.7,97.58c-5.82,18.69-15.93,39.23-45.05,42.29s-55.47-1.22-68.65-11S315.71,88.08,311.11,55.9,330.42,20,350.64,16.05s52.74-3.55,76.93,2.76C455.77,26.17,459.14,43,459.14,43,460.67,62.33,458.53,78.88,452.7,97.58Z"/><path class="cls-3" d="M479.69,16.1S433.41,3.3,412,1.7,366.9-2.59,336.26,6c-30.2,8.45-13,11.25-47,11.33-34-.08-16.78-2.88-47-11.33C211.65-2.59,188.05.1,166.6,1.7S98.87,16.1,98.87,16.1c-1.54,16-.62,13.49,2.75,19.92S106.47,71,109,84.14c3.68,19.31,13.49,38.31,27.28,48.43s37.08,12,71.41,8.58c26.37-2.59,34.05-12.8,43.52-27.28,8.82-13.48,18.39-46,23-65C277.31,36,288.47,35,289.21,35s12,.91,15.17,13.86c4.6,19,14.17,51.49,23,65,9.46,14.48,17.14,24.69,43.52,27.28,34.32,3.37,57.62,1.53,71.41-8.58s23.6-29.12,27.28-48.43c2.5-13.17,4-41.68,7.35-48.12S481.22,32.11,479.69,16.1ZM263.45,48.9c-4.6,32.18-14.71,63.13-27.89,72.94s-39.54,14.1-68.65,11-39.23-23.6-45.06-42.29-8-35.25-6.43-54.56c0,0,3.37-16.85,31.56-24.21,24.2-6.31,56.7-6.74,76.93-2.76S268.05,16.72,263.45,48.9ZM456.7,90.58c-5.82,18.69-15.93,39.23-45.05,42.29s-55.47-1.22-68.65-11S319.71,81.08,315.11,48.9,334.42,13,354.64,9.05s52.74-3.55,76.93,2.76C459.77,19.17,463.14,36,463.14,36,464.67,55.33,462.53,71.88,456.7,90.58Z"/><path class="cls-1" d="M606,67.49h44.24a36,36,0,0,1,36,36V321.34a18.71,18.71,0,0,1-18.7,18.7h-2.72a18.7,18.7,0,0,1-18.7-18.7h0a18.7,18.7,0,0,0-18.7-18.7H452.32a18.7,18.7,0,0,0-18.7,18.7v96.28"/><circle class="cls-3" cx="686.39" cy="166.45" r="7.81"/></g></g></svg>