<svg data-name="Layer 1" xmlns="http://www.w3.org/2000/svg" width="583.904" height="652"><circle cx="137.032" cy="553.164" r="14.92" fill="#cfe0e8" opacity=".4"/><circle cx="109.419" cy="560.29" r="10.466" fill="#cfe0e8" opacity=".4"/><path d="M531.002 349.261A255.44 255.44 0 0 0 513.1 124.494L105 181l391.09-81.506A254.562 254.562 0 0 0 294 0C153.167 0 39 114.167 39 255a257.19 257.19 0 0 0 2.373 34.797zm-474.957-2.45C92.903 442.273 185.535 510 294 510c101.778 0 189.617-59.634 230.515-145.861z" fill="#f2f2f2"/><circle cx="106" cy="112" r="12" fill="#3f3d56"/><circle cx="538" cy="252" r="12" fill="#cfe0e8"/><path fill="#cfe0e8" d="M105 339H125V359H105z"/><path d="M268 193s33-14.38 48.5.81S275 204 268 193z" fill="#3f3d56"/><path d="M324.982 124.805c-11.09-18.739-33.03-19.612-33.03-19.612s-21.38-2.734-35.094 25.805c-12.784 26.6-30.427 52.284-2.84 58.51L259 174l3.086 16.663a107.934 107.934 0 0 0 11.803.202c29.542-.954 57.676.279 56.77-10.322-1.204-14.092 4.994-37.708-5.677-55.738z" fill="#2f2e41"/><ellipse cx="294.5" cy="398" rx="56" ry="13" fill="#3f3d56"/><path transform="rotate(-4.229 -1212.64 4793.973)" fill="#2f2e41" d="M593.474 683.5H647.6220000000001V685.5H593.474z"/><path transform="rotate(-61.189 308.665 879.496)" fill="#2f2e41" d="M566.548 669.587H568.548V692.412H566.548z"/><path fill="#2f2e41" d="M288.5 543.5H306.5V545.5H288.5z"/><path fill="#2f2e41" d="M241.498 650.568L239.502 650.432 254.502 418.432 256.498 418.568 241.498 650.568z"/><path fill="#2f2e41" d="M315.501 650.549L305.501 422.549 307.499 422.451 317.499 650.451 315.501 650.549z"/><path transform="rotate(-4.722 -1005.623 4332.943)" fill="#2f2e41" d="M651.048 544.108H653.048V774.891H651.048z"/><path d="M340.5 464.5s-14 26-23 26-8 17-6 21 7 13-1 26c-2.794 4.54-2.295 9.692-.46 14.473 5.137 13.395 25.123 9.336 24.486-4.996q-.011-.237-.026-.477c-1-16 7-41 15-47s15-22 15-22zm-96-6s14 26 23 26 8 17 6 21-7 13 1 26c2.794 4.54 2.295 9.692.46 14.473-5.137 13.395-25.123 9.336-24.486-4.996q.011-.237.026-.477c1-16-7-41-15-47s-15-22-15-22z" fill="#ffb8b8"/><path d="M255.5 330.5l-6 13s-88 29-80 63 47 87 53 85 38-8 39-25-23-47-23-47l33-30 48.02-1 40.98 31s-43 38-24 53 47 25 51 19 49-95 42-103-78-38-78-38l-19-27-74-4z" fill="#2f2e41"/><path d="M273.5 165.5s5 33-5 37 20 21 20 21h17l11-23s-10-18-4-35-39 0-39 0z" fill="#ffb8b8"/><path d="M273.5 165.5s5 33-5 37 20 21 20 21h17l11-23s-10-18-4-35-39 0-39 0z" opacity=".1"/><path d="M266.5 193.5s11 12 13 14 11 13 30-3 21 3 21 3v120s-16-7-29 0-40-2-40-2l-5-124z" fill="#d0cde1"/><path d="M273.845 193.5s-9.345-4-17.345 0-36 24-34 33 28 72 10 102-21 38-21 38l44-23s34-21 31-34-12.655-116-12.655-116zm39.667 0s20.988 2 21.988 4S367 208 365 217s-29.5 89.5-17.5 104.5 32 36 25 38-19-3-31 0-40-22-37-49 .024-110 9.012-117z" fill="#3f3d56"/><path d="M263.5 384.5v10s-5 23 11 22 6-28 6-28l-1-9zm45 1s-11 23 0 25 19-13 19-17-19-8-19-8z" fill="#ffb8b8"/><path fill="#2f2e41" d="M272.5 650.524L270.5 650.476 276.5 420.476 278.5 420.524 272.5 650.524z"/><ellipse cx="323" cy="152" rx="2" ry="4" fill="#ffb8b8"/><ellipse cx="264" cy="152" rx="2" ry="4" fill="#ffb8b8"/><path d="M340.5 206.5s25 0 24 10-34 182-34 182-14-13-26-10zm-97 3s-25 5-25 20 36 159 41 159 24-3 24-8-40-171-40-171z" fill="#3f3d56"/><path d="M249 239l22.5 87.991S261 250 249 239zm87.517-12.364L313.761 341.68s7.273-108.408 22.756-115.044z" opacity=".2"/><circle cx="293.5" cy="152.5" r="29" fill="#ffb8b8"/><path fill="#2f2e41" d="M320.079 122.998L298.403 111.644 268.47 116.289 262.277 143.642 277.693 143.049 282 133 282 142.884 289.114 142.61 293.242 126.611 295.823 143.642 321.112 143.126 320.079 122.998z"/><path fill="#2f2e41" d="M10 650H556V652H10z"/><path d="M464.583 650.02l-2-.04a463.835 463.835 0 0 1 7.1-66.287c8.648-46.88 23.029-77.67 42.743-91.511l1.148 1.636c-46.052 32.334-48.968 154.966-48.991 156.202zm25-.479l-2-.04c.043-2.214 1.293-54.413 21.843-68.84l1.148 1.636c-19.72 13.846-20.981 66.712-20.991 67.244z" fill="#2f2e41"/><circle cx="525" cy="483" r="10" fill="#cfe0e8"/><circle cx="520" cy="570" r="10" fill="#cfe0e8"/><path d="M484.922 499.995c1.88 12.004-3.02 22.74-3.02 22.74s-7.944-8.726-9.824-20.73 3.02-22.74 3.02-22.74 7.944 8.726 9.824 20.73zm32.687 29.153c-11.493 3.943-22.919.99-22.919.99s7.208-9.344 18.701-13.286 22.919-.99 22.919-.99-7.208 9.344-18.701 13.286zm.37 76.161a31.134 31.134 0 0 1-16.065.694 28.374 28.374 0 0 1 29.172-10.006 31.134 31.134 0 0 1-13.108 9.313z" fill="#2f2e41"/><path fill="#2f2e41" d="M2 192L0 192 0 62 128 62 128 64 2 64 2 192z"/><path fill="#2f2e41" d="M583.904 192L581.904 192 581.904 64 455.904 64 455.904 62 583.904 62 583.904 192z"/><path fill="#2f2e41" d="M2 302L0 302 0 432 128 432 128 430 2 430 2 302z"/><path fill="#2f2e41" d="M583.904 302L581.904 302 581.904 430 455.904 430 455.904 432 583.904 432 583.904 302z"/><path fill="#3f3d56" d="M36 123H176V125H36z"/><path fill="#3f3d56" d="M74 105H76V123.5H74z"/><path fill="#3f3d56" d="M135 105H137V123.5H135z"/><path fill="#3f3d56" d="M414 264H554V266H414z"/><path fill="#3f3d56" d="M452 246H454V264.5H452z"/><path fill="#3f3d56" d="M513 246H515V264.5H513z"/><path fill="#3f3d56" d="M45 358H185V360H45z"/><path fill="#3f3d56" d="M83 340H85V358.5H83z"/><path fill="#3f3d56" d="M144 340H146V358.5H144z"/></svg>