<svg xmlns="http://www.w3.org/2000/svg" xmlns:xlink="http://www.w3.org/1999/xlink" viewBox="0 0 688.9 680.02"><defs><style>.cls-1,.cls-2,.cls-3{fill:none;}.cls-2{stroke:#ed6957;}.cls-2,.cls-3,.cls-7{stroke-miterlimit:10;stroke-width:4px;}.cls-3,.cls-7{stroke:#020203;}.cls-4{clip-path:url(#clip-path);}.cls-5{fill:#ed6957;}.cls-6{fill:#010202;}.cls-7{fill:#fff;}</style><clipPath id="clip-path"><circle class="cls-1" cx="306.62" cy="179.63" r="40.85"/></clipPath></defs><title>Asset 1home</title><g id="Layer_2" data-name="Layer 2"><g id="Layer_1-2" data-name="Layer 1"><path class="cls-2" d="M541.21,508.42V419.2c0-13,9.86-23.52,22-23.52h82c12.16,0,22,10.53,22,23.52V585.92c0,13-9.86,23.52-22,23.52H626.52"/><path class="cls-3" d="M521.56,492.54V410.48c0-18.72,14.57-33.89,32.53-33.89H654.37c18,0,32.53,15.17,32.53,33.89V594.63c0,18.72-14.57,33.89-32.53,33.89H624.06"/><path class="cls-3" d="M389.08,154H595.91a29.65,29.65,0,0,1,29.65,29.65V348.37"/><path class="cls-3" d="M102.32,485.18V183.69A29.65,29.65,0,0,1,132,154h90.8"/><path class="cls-2" d="M406.65,177.63H574.44a25.81,25.81,0,0,1,25.81,25.81V343.77"/><path class="cls-2" d="M128.39,458.89V204.69a27.06,27.06,0,0,1,27.06-27.06h47.06"/><path class="cls-3" d="M306.82,1.38s-69,72-68.52,268.07l-29,24.68V357l44.23-40.32h31.07l22.26,40.11"/><path class="cls-3" d="M305.41,1.38s69,72,68.52,268.07l29,24.68V357l-44.23-40.32H327.64l-22.26,40.11"/><circle class="cls-3" cx="306.62" cy="179.63" r="40.85"/><g class="cls-4"><polygon class="cls-5" points="281.06 177.49 306.16 236.99 331.7 177.46 306.38 197.9 281.06 177.49"/><polygon class="cls-6" points="311.59 202.66 281.48 178.37 281.48 201.61 280.64 201.61 280.64 177.49 281.33 177.16 312.12 202 311.59 202.66"/><polygon class="cls-6" points="301.02 202.77 300.49 202.11 331.43 177.13 332.12 177.46 332.12 201.82 331.28 201.82 331.28 178.34 301.02 202.77"/><polygon class="cls-6" points="306.41 237.33 305.9 237.33 286 222.54 286.5 221.87 306.16 236.47 326.17 221.86 326.66 222.55 306.41 237.33"/><path class="cls-6" d="M306.16,237.41h0a.42.42,0,0,1-.39-.26l-25.09-59.5a.42.42,0,0,1,.66-.49l25.05,20.2,25.05-20.23a.42.42,0,0,1,.65.49l-25.54,59.54A.43.43,0,0,1,306.16,237.41ZM282.1,178.87l24.06,57,24.48-57.06-24,19.38a.42.42,0,0,1-.53,0Z"/><polygon class="cls-6" points="300.4 232.72 312.01 232.72 306.16 236.99 300.4 232.72"/><path class="cls-6" d="M337.3,202.49s-7.51-2.08-11-2.34-7.32-.7-12.29.7-2.11,1.83-7.63,1.84-2.72-.47-7.63-1.84-8.81-1-12.29-.7-11,2.34-11,2.34c-.25,2.6-.1,2.19.45,3.23s.79,5.67,1.19,7.81c.6,3.14,2.19,6.22,4.43,7.86s6,1.94,11.6,1.39c4.28-.42,5.53-2.08,7.07-4.43,1.43-2.19,3-7.46,3.73-10.55a2.46,2.46,0,0,1,4.9,0c.75,3.09,2.3,8.36,3.73,10.55,1.54,2.35,2.78,4,7.07,4.43,5.57.55,9.36.25,11.6-1.39s3.83-4.73,4.43-7.86c.41-2.14.65-6.77,1.19-7.81S337.55,205.09,337.3,202.49Zm-35.11,5.32c-.75,5.23-2.39,10.25-4.53,11.84s-6.42,2.29-11.15,1.79-6.37-3.83-7.32-6.87a22.46,22.46,0,0,1-1.05-8.86s.55-2.74,5.13-3.93a32.09,32.09,0,0,1,12.49-.45C299.05,202,302.93,202.59,302.19,207.81Zm31.38,6.77c-.95,3-2.59,6.37-7.32,6.87s-9-.2-11.15-1.79-3.78-6.62-4.53-11.84,3.14-5.82,6.42-6.47a31.71,31.71,0,0,1,12.49.45c4.58,1.19,5.13,3.93,5.13,3.93A22.42,22.42,0,0,1,333.57,214.58Z"/></g><line class="cls-3" x1="347.47" y1="350.05" x2="402.94" y2="401.05"/><line class="cls-3" x1="260.19" y1="347.82" x2="209.19" y2="403.29"/><path class="cls-3" d="M77.48,662.94S60.59,555.6,147.66,554"/><path class="cls-7" d="M653.92,679.37c-12.37-36.07-64.64-40.86-64.64-40.86C583.93,538.64,498,498.23,449.15,498.35c-27.41-69.45-95.12-97.52-153.34-97.3s-127.89,57.44-140.38,106.6c-156.61-3.07-164.78,94-146.5,171.72"/></g></g></svg>