<?xml version="1.0" encoding="utf-8"?>
<!-- Generator: Adobe Illustrator 23.0.3, SVG Export Plug-In . SVG Version: 6.00 Build 0)  -->
<svg version="1.1" id="Layer_1" xmlns="http://www.w3.org/2000/svg" xmlns:xlink="http://www.w3.org/1999/xlink" x="0px" y="0px"
	 viewBox="0 0 706.96 698" style="enable-background:new 0 0 706.96 698;" xml:space="preserve">
<style type="text/css">
	.st0{fill:none;stroke:#ED6957;stroke-width:2;stroke-miterlimit:10;}
	.st1{fill:none;stroke:#020203;stroke-miterlimit:10;}
	.st2{clip-path:url(#SVGID_2_);}
	.st3{fill:#ED6957;}
	.st4{fill:none;stroke:#010202;stroke-linejoin:bevel;stroke-miterlimit:10;}
	.st5{fill:#010202;}
</style>
<path class="st0" d="M552.28,516.97v-89.22c0-12.99,9.86-23.52,22.02-23.52h82.01c12.16,0,22.02,10.53,22.02,23.52v166.72
	c0,12.99-9.86,23.52-22.02,23.52h-18.72"/>
<path class="st1" d="M532.63,501.09v-82.06c0-18.72,14.57-33.89,32.53-33.89h100.28c17.97,0,32.53,15.17,32.53,33.89v184.15
	c0,18.72-14.57,33.89-32.53,33.89h-30.31"/>
<path class="st1" d="M400.15,162.59h206.83c16.37,0,29.65,13.27,29.65,29.65v164.68"/>
<path class="st1" d="M113.39,493.73V192.24c0-16.37,13.27-29.65,29.65-29.65h90.8"/>
<path class="st0" d="M417.72,186.18h167.79c14.25,0,25.81,11.55,25.81,25.81v140.33"/>
<path class="st0" d="M139.46,467.44v-254.2c0-14.94,12.11-27.06,27.06-27.06h47.06"/>
<path class="st1" d="M317.89,9.93c0,0-68.97,72.02-68.52,268.07c-29.01,24.68-29.01,24.68-29.01,24.68v62.83l44.23-40.32h31.07
	l22.26,40.11"/>
<path class="st1" d="M316.48,9.93c0,0,68.97,72.02,68.52,268.07c29.01,24.68,29.01,24.68,29.01,24.68v62.83l-44.23-40.32h-31.07
	l-22.26,40.11"/>
<circle class="st1" cx="317.69" cy="188.18" r="40.85"/>
<g>
	<defs>
		<circle id="SVGID_1_" cx="317.69" cy="188.18" r="40.85"/>
	</defs>
	<clipPath id="SVGID_2_">
		<use xlink:href="#SVGID_1_"  style="overflow:visible;"/>
	</clipPath>
	<g class="st2">
		<g>
			<g>
				<polygon class="st3" points="292.13,186.04 317.23,245.54 342.77,186.01 317.45,206.45 				"/>
			</g>
		</g>
		<g>
			<g>
				<polygon class="st5" points="322.66,211.21 292.55,186.92 292.55,210.16 291.71,210.16 291.71,186.04 292.4,185.71 
					323.19,210.55 				"/>
			</g>
		</g>
		<g>
			<g>
				<polygon class="st5" points="312.09,211.32 311.56,210.66 342.5,185.68 343.19,186.01 343.19,210.37 342.35,210.37 
					342.35,186.89 				"/>
			</g>
		</g>
		<g>
			<g>
				<polygon class="st5" points="317.48,245.88 316.97,245.88 297.07,231.09 297.57,230.42 317.23,245.02 337.24,230.41 
					337.73,231.1 				"/>
			</g>
		</g>
		<g>
			<g>
				<path class="st5" d="M317.23,245.96L317.23,245.96c-0.17,0-0.32-0.1-0.39-0.26l-25.09-59.5c-0.07-0.18-0.02-0.38,0.14-0.5
					c0.15-0.12,0.37-0.11,0.52,0.01l25.05,20.2l25.05-20.23c0.15-0.12,0.37-0.13,0.52-0.01s0.21,0.32,0.13,0.5l-25.54,59.54
					C317.55,245.86,317.4,245.96,317.23,245.96z M293.17,187.42l24.06,57.04l24.48-57.06l-23.99,19.38c-0.15,0.13-0.38,0.12-0.53,0
					L293.17,187.42z"/>
			</g>
		</g>
		<g>
			<g>
				<polygon class="st5" points="311.47,241.27 323.08,241.27 317.23,245.54 				"/>
			</g>
		</g>
		<g>
			<g>
				<path class="st5" d="M348.37,211.04c0,0-7.51-2.08-11-2.34c-3.48-0.26-7.32-0.7-12.29,0.7c-4.9,1.37-2.11,1.83-7.63,1.84
					c-5.52-0.01-2.72-0.47-7.63-1.84c-4.98-1.39-8.81-0.96-12.29-0.7c-3.48,0.26-11,2.34-11,2.34c-0.25,2.6-0.1,2.19,0.45,3.23
					c0.55,1.05,0.79,5.67,1.19,7.81c0.6,3.14,2.19,6.22,4.43,7.86c2.24,1.64,6.02,1.94,11.6,1.39c4.28-0.42,5.53-2.08,7.07-4.43
					c1.43-2.19,2.99-7.46,3.73-10.55c0.51-2.1,2.32-2.25,2.44-2.25c0.13,0,1.95,0.15,2.46,2.25c0.75,3.09,2.3,8.36,3.73,10.55
					c1.54,2.35,2.78,4.01,7.07,4.43c5.57,0.55,9.36,0.25,11.6-1.39c2.24-1.64,3.83-4.73,4.43-7.86c0.41-2.14,0.65-6.77,1.19-7.81
					C348.47,213.23,348.62,213.64,348.37,211.04z M313.26,216.36c-0.75,5.23-2.39,10.25-4.53,11.84s-6.42,2.29-11.15,1.79
					c-4.73-0.5-6.37-3.83-7.32-6.87c-0.95-3.04-1.29-5.72-1.05-8.86c0,0,0.55-2.74,5.13-3.93c3.93-1.02,9.21-1.09,12.49-0.45
					C310.12,210.54,314,211.14,313.26,216.36z M344.64,223.13c-0.95,3.04-2.59,6.37-7.32,6.87c-4.73,0.5-9.01-0.2-11.15-1.79
					s-3.78-6.62-4.53-11.84c-0.75-5.23,3.14-5.82,6.42-6.47c3.28-0.65,8.56-0.58,12.49,0.45c4.58,1.19,5.13,3.93,5.13,3.93
					C345.93,217.41,345.58,220.09,344.64,223.13z"/>
			</g>
		</g>
	</g>
</g>
<line class="st1" x1="358.54" y1="358.6" x2="414.01" y2="409.6"/>
<line class="st1" x1="271.26" y1="356.37" x2="220.26" y2="411.84"/>
<path class="st1" d="M88.55,671.49c0,0-16.89-107.34,70.18-108.92"/>
<path class="st1" d="M664.99,687.92c-12.37-36.07-64.64-40.86-64.64-40.86C595,547.19,509.04,506.78,460.22,506.9
	c-27.41-69.45-95.12-97.52-153.34-97.3s-127.89,57.44-140.38,106.6C9.89,513.13,1.72,610.21,20,687.92"/>
</svg>
