<svg xmlns="http://www.w3.org/2000/svg" xmlns:xlink="http://www.w3.org/1999/xlink" viewBox="0 0 686.9 679.01"><defs><style>.cls-1,.cls-2,.cls-3{fill:none;}.cls-2{stroke:#ed6957;}.cls-2,.cls-3{stroke-miterlimit:10;stroke-width:2px;}.cls-3{stroke:#fff;}.cls-4{clip-path:url(#clip-path);}.cls-5{fill:#ed6957;}.cls-6{fill:#010202;}</style><clipPath id="clip-path"><circle class="cls-1" cx="305.62" cy="178.94" r="40.85"/></clipPath></defs><title>Asset 3home-white</title><g id="Layer_2" data-name="Layer 2"><g id="Layer_1-2" data-name="Layer 1"><path class="cls-2" d="M540.21,507.73V418.51c0-13,9.86-23.52,22-23.52h82c12.16,0,22,10.53,22,23.52V585.23c0,13-9.86,23.52-22,23.52H625.52"/><path class="cls-3" d="M520.56,491.85V409.79c0-18.72,14.57-33.89,32.53-33.89H653.37c18,0,32.53,15.17,32.53,33.89V593.94c0,18.72-14.57,33.89-32.53,33.89H623.06"/><path class="cls-3" d="M388.08,153.35H594.91A29.65,29.65,0,0,1,624.56,183V347.68"/><path class="cls-3" d="M101.32,484.49V183A29.65,29.65,0,0,1,131,153.35h90.8"/><path class="cls-2" d="M405.65,176.94H573.44a25.81,25.81,0,0,1,25.81,25.81V343.08"/><path class="cls-2" d="M127.39,458.2V204a27.06,27.06,0,0,1,27.06-27.06h47.06"/><path class="cls-3" d="M305.82.69s-69,72-68.52,268.07l-29,24.68v62.83L252.52,316h31.07l22.26,40.11"/><path class="cls-3" d="M304.41.69s69,72,68.52,268.07l29,24.68v62.83L357.71,316H326.64l-22.26,40.11"/><circle class="cls-3" cx="305.62" cy="178.94" r="40.85"/><g class="cls-4"><polygon class="cls-5" points="280.06 176.8 305.16 236.3 330.7 176.77 305.38 197.21 280.06 176.8"/><polygon class="cls-6" points="310.59 201.97 280.48 177.68 280.48 200.92 279.64 200.92 279.64 176.8 280.33 176.47 311.12 201.31 310.59 201.97"/><polygon class="cls-6" points="300.02 202.08 299.49 201.42 330.43 176.44 331.12 176.77 331.12 201.13 330.28 201.13 330.28 177.65 300.02 202.08"/><polygon class="cls-6" points="305.41 236.64 304.9 236.64 285 221.85 285.5 221.18 305.16 235.78 325.17 221.17 325.66 221.86 305.41 236.64"/><path class="cls-6" d="M305.16,236.72h0a.42.42,0,0,1-.39-.26L279.68,177a.42.42,0,0,1,.66-.49l25.05,20.2,25.05-20.23a.42.42,0,0,1,.65.49l-25.54,59.54A.43.43,0,0,1,305.16,236.72ZM281.1,178.18l24.06,57,24.48-57.06-24,19.38a.42.42,0,0,1-.53,0Z"/><polygon class="cls-6" points="299.4 232.03 311.01 232.03 305.16 236.3 299.4 232.03"/><path class="cls-6" d="M336.3,201.8s-7.51-2.08-11-2.34-7.32-.7-12.29.7S310.9,202,305.38,202s-2.72-.47-7.63-1.84-8.81-1-12.29-.7-11,2.34-11,2.34c-.25,2.6-.1,2.19.45,3.23s.79,5.67,1.19,7.81c.6,3.14,2.19,6.22,4.43,7.86s6,1.94,11.6,1.39c4.28-.42,5.53-2.08,7.07-4.43,1.43-2.19,3-7.46,3.73-10.55a2.46,2.46,0,0,1,4.9,0c.75,3.09,2.3,8.36,3.73,10.55,1.54,2.35,2.78,4,7.07,4.43,5.57.55,9.36.25,11.6-1.39s3.83-4.73,4.43-7.86c.41-2.14.65-6.77,1.19-7.81S336.55,204.4,336.3,201.8Zm-35.11,5.32c-.75,5.23-2.39,10.25-4.53,11.84s-6.42,2.29-11.15,1.79-6.37-3.83-7.32-6.87a22.46,22.46,0,0,1-1.05-8.86s.55-2.74,5.13-3.93a32.09,32.09,0,0,1,12.49-.45C298.05,201.3,301.93,201.9,301.19,207.12Zm31.38,6.77c-.95,3-2.59,6.37-7.32,6.87s-9-.2-11.15-1.79-3.78-6.62-4.53-11.84,3.14-5.82,6.42-6.47a31.71,31.71,0,0,1,12.49.45c4.58,1.19,5.13,3.93,5.13,3.93A22.42,22.42,0,0,1,332.57,213.89Z"/></g><line class="cls-3" x1="346.47" y1="349.36" x2="401.94" y2="400.36"/><line class="cls-3" x1="259.19" y1="347.13" x2="208.19" y2="402.6"/><path class="cls-3" d="M76.48,662.25S59.59,554.91,146.66,553.33"/><path class="cls-3" d="M652.92,678.68c-12.37-36.07-64.64-40.86-64.64-40.86C582.93,538,497,497.54,448.15,497.66c-27.41-69.45-95.12-97.52-153.34-97.3S166.92,457.8,154.43,507C-2.18,503.89-10.35,601,7.93,678.68"/></g></g></svg>