<svg id="layer" xmlns="http://www.w3.org/2000/svg" viewBox="0 0 652 652"><style>.st0{fill:#33475b}.st1{fill:#ff7a59}</style><g id="Layer_2"><path class="st0" d="M91 269.1L91 317.1 46.9 317.1 46.9 269.1 26 269.1 26 383.6 46.9 383.6 46.9 337.2 91 337.2 91 383.6 111.9 383.6 111.9 269.1z"/><path class="st0" d="M178.8 346.6c0 9.6-7.7 17.3-17.3 17.3s-17.3-7.7-17.3-17.3v-49.1h-19.8v49.1c0 20.5 16.6 37.1 37.1 37.1s37.1-16.6 37.1-37.1v-49.1h-19.8v49.1zm147-44c0-10.1 6.7-13.2 13.9-13.2 5.9 0 13.6 4.5 18.7 9.9l13-15.3c-6.5-8.8-19.6-14.8-30.4-14.8-21.5 0-37.1 12.6-37.1 33.5 0 38.8 47.4 26.5 47.4 48.2 0 6.7-6.5 12.6-13.9 12.6-11.7 0-15.5-5.7-20.9-11.8l-14.4 15c9.2 11.3 20.6 17.1 34.2 17.1 20.4 0 36.9-12.8 36.9-32.7 0-43.2-47.4-29.8-47.4-48.5M619 365.3c-11.7 0-15.1-5.1-15.1-12.8v-34.4h18.2v-17.4H604v-23l-20.1 9v70c0 17.9 12.4 26.9 29.3 26.9 2.7 0 5.3-.2 7.9-.6l4.9-18c-2.2.1-4.8.3-7 .3m-364.6-67.2c-9.8 0-16.7 2.8-23.3 9.4v-37.7h-19.9v69.9c0 26.2 18.9 44.1 40.2 44.1 23.6 0 44.3-18.2 44.3-42.8-.1-24.3-19.1-42.9-41.3-42.9m-.2 65.6c-12.5 0-22.5-10.1-22.5-22.5 0-12.5 10.1-22.5 22.5-22.5 12.5 0 22.5 10.1 22.5 22.5.1 12.4-10 22.5-22.5 22.5m215.9-23.8c0-24.6-20.7-42.8-44.3-42.8-21.2 0-40.2 17.9-40.2 44.1v69.9h19.9v-37.7c6.6 6.5 13.5 9.4 23.3 9.4 22.2-.1 41.3-18.7 41.3-42.9m-18.8-.3c0 12.5-10.1 22.5-22.5 22.5s-22.5-10.1-22.5-22.5 10.1-22.5 22.5-22.5 22.5 10.1 22.5 22.5"/><g><path class="st1" d="M534.3 296.1v-20c5.4-2.5 8.8-7.9 8.9-13.9v-.5c0-8.5-6.9-15.4-15.4-15.4h-.5c-8.5 0-15.4 6.9-15.4 15.4v.5c0 5.9 3.5 11.3 8.9 13.9v20c-7.6 1.2-14.7 4.3-20.7 9.1l-54.7-42.6c.4-1.4.6-2.9.6-4.3 0-9.6-7.7-17.3-17.3-17.4-9.6 0-17.3 7.7-17.4 17.3 0 9.6 7.7 17.3 17.3 17.4 3 0 5.9-.8 8.5-2.3l53.9 41.9c-9.9 15-9.7 34.5.7 49.2l-16.4 16.4c-1.3-.4-2.7-.6-4.1-.7-7.9 0-14.2 6.4-14.2 14.2 0 7.9 6.4 14.2 14.2 14.2 7.8 0 14.2-6.4 14.2-14.2 0-1.4-.2-2.8-.7-4.1l16.2-16.2c19.1 14.7 46.6 11.2 61.3-8 14.7-19.1 11.2-46.6-8-61.3-5.6-4.5-12.5-7.5-19.9-8.6m-6.7 65.7c-12.4 0-22.4-10.1-22.4-22.5s10.1-22.4 22.5-22.4 22.4 10.1 22.4 22.4c0 12.4-10.1 22.5-22.5 22.5"/></g></g></svg>