<?xml version="1.0" encoding="utf-8"?>
<!-- Generator: Adobe Illustrator 19.2.1, SVG Export Plug-In . SVG Version: 6.00 Build 0)  -->
<svg version="1.1" id="layer" xmlns="http://www.w3.org/2000/svg" xmlns:xlink="http://www.w3.org/1999/xlink" x="0px" y="0px"
	 viewBox="0 0 652 652" style="enable-background:new 0 0 652 652;" xml:space="preserve">
<style type="text/css">
	.st0{fill:#33475B;}
	.st1{fill:#FF7A59;}
</style>
<g id="Layer_2">
	<g>
		<g>
			<polygon class="st0" points="91,269.1 91,317.1 46.9,317.1 46.9,269.1 26,269.1 26,383.6 46.9,383.6 46.9,337.2 91,337.2 
				91,383.6 111.9,383.6 111.9,269.1 			"/>
			<path class="st0" d="M178.8,346.6c0,9.6-7.7,17.3-17.3,17.3s-17.3-7.7-17.3-17.3v-49.1h-19.8v49.1c0,20.5,16.6,37.1,37.1,37.1
				c20.5,0,37.1-16.6,37.1-37.1v-49.1h-19.8V346.6z"/>
			<path class="st0" d="M325.8,302.6c0-10.1,6.7-13.2,13.9-13.2c5.9,0,13.6,4.5,18.7,9.9l13-15.3c-6.5-8.8-19.6-14.8-30.4-14.8
				c-21.5,0-37.1,12.6-37.1,33.5c0,38.8,47.4,26.5,47.4,48.2c0,6.7-6.5,12.6-13.9,12.6c-11.7,0-15.5-5.7-20.9-11.8l-14.4,15
				c9.2,11.3,20.6,17.1,34.2,17.1c20.4,0,36.9-12.8,36.9-32.7C373.2,307.9,325.8,321.3,325.8,302.6"/>
			<path class="st0" d="M619,365.3c-11.7,0-15.1-5.1-15.1-12.8v-34.4h18.2v-17.4H604v-23l-20.1,9v70c0,17.9,12.4,26.9,29.3,26.9
				c2.7,0,5.3-0.2,7.9-0.6L626,365C623.8,365.1,621.2,365.3,619,365.3"/>
			<path class="st0" d="M254.4,298.1c-9.8,0-16.7,2.8-23.3,9.4v-37.7h-19.9v69.9c0,26.2,18.9,44.1,40.2,44.1
				c23.6,0,44.3-18.2,44.3-42.8C295.6,316.7,276.6,298.1,254.4,298.1 M254.2,363.7c-12.5,0-22.5-10.1-22.5-22.5
				c0-12.5,10.1-22.5,22.5-22.5c12.5,0,22.5,10.1,22.5,22.5C276.8,353.6,266.7,363.7,254.2,363.7"/>
			<path class="st0" d="M470.1,339.9c0-24.6-20.7-42.8-44.3-42.8c-21.2,0-40.2,17.9-40.2,44.1v69.9h19.9v-37.7
				c6.6,6.5,13.5,9.4,23.3,9.4C451,382.7,470.1,364.1,470.1,339.9 M451.3,339.6c0,12.5-10.1,22.5-22.5,22.5s-22.5-10.1-22.5-22.5
				s10.1-22.5,22.5-22.5S451.3,327.2,451.3,339.6"/>
		</g>
	</g>
	<g>
		<g>
			<path class="st1" d="M534.3,296.1v-20c5.4-2.5,8.8-7.9,8.9-13.9v-0.5c0-8.5-6.9-15.4-15.4-15.4h-0.5c-8.5,0-15.4,6.9-15.4,15.4
				v0.5c0,5.9,3.5,11.3,8.9,13.9v20c-7.6,1.2-14.7,4.3-20.7,9.1l-54.7-42.6c0.4-1.4,0.6-2.9,0.6-4.3c0-9.6-7.7-17.3-17.3-17.4
				c-9.6,0-17.3,7.7-17.4,17.3c0,9.6,7.7,17.3,17.3,17.4c0,0,0,0,0,0c3,0,5.9-0.8,8.5-2.3l53.9,41.9c-9.9,15-9.7,34.5,0.7,49.2
				l-16.4,16.4c-1.3-0.4-2.7-0.6-4.1-0.7c-7.9,0-14.2,6.4-14.2,14.2c0,7.9,6.4,14.2,14.2,14.2c7.8,0,14.2-6.4,14.2-14.2
				c0-1.4-0.2-2.8-0.7-4.1l16.2-16.2c19.1,14.7,46.6,11.2,61.3-8c14.7-19.1,11.2-46.6-8-61.3C548.6,300.2,541.7,297.2,534.3,296.1
				 M527.6,361.8c-12.4,0-22.4-10.1-22.4-22.5s10.1-22.4,22.5-22.4c12.4,0,22.4,10.1,22.4,22.4C550.1,351.7,540,361.8,527.6,361.8"
				/>
		</g>
	</g>
</g>
</svg>
