<svg id="Layer_1" xmlns="http://www.w3.org/2000/svg" viewBox="0 0 224 96.9"><style>.st0{fill:#716fb3}.st1{fill:#455560}</style><path class="st0" d="M221.6-.3h-7.5c-1.9.1-3.6 1.4-4.1 3.2l-9.7 41.2c4.4 1.3 8.8 3 13 5l10.9-46.3c.4-1.3-.4-2.7-1.7-3.1h-.9zm-20.4 12.9h-7.5c-1.9.1-3.6 1.4-4.1 3.2l-5.8 24.6c4.5.7 9 1.7 13.5 2.9l6.4-27.5c.4-1.3-.4-2.7-1.7-3.1-.2 0-.5-.1-.8-.1zm-38.2 16h-7.5c-1.9.1-3.6 1.4-4.1 3.2l-1.6 6.8c1.2-.1 2.4-.1 3.6-.2 3.7 0 7.2 0 10.5.1l1.6-6.8c.4-1.3-.4-2.7-1.7-3.1h-.8zm19.6-8.6h-7.5c-1.9.1-3.6 1.4-4.1 3.2l-3.6 15.5c5 .3 9.6.7 13.8 1.3l4-16.8c.4-1.3-.4-2.7-1.7-3.1-.4-.1-.6-.1-.9-.1z"/><path class="st1" d="M8.8 55.5c.5-2 2.3-3.4 4.4-3.5h7.4c1.9 0 3.5 1.5 3.5 3.4v.2l-.1 5.1c-.1 2-.2 5.2-.2 7.2 0 0-.1 2.9-.1 4.1-.2 3.7-.4 6.8-.6 10.8.9-2 1.9-4.6 3.1-7.3.9-2.2 2.2-5.3 2.9-6.8l6-13.5c1-1.9 2.9-3.2 5.1-3.3h7.4c1.5-.1 2.8 1.1 2.9 2.6 0 .3 0 .6-.1.9l-8.5 36.8c-.5 2-2.3 3.4-4.4 3.5h-2.7c-1.5.1-2.7-1-2.8-2.5 0-.3 0-.7.1-1l6.5-25.6c.5-1.9.2-2-.6-.2l-11.8 26c-1 1.9-2.9 3.2-5.1 3.3h-1.6c-2 0-3.6-1.6-3.6-3.6l.2-25.3c0-2-.3-2-.7-.1l-5.3 25.4c-.5 2-2.3 3.4-4.3 3.5H3.2C1.7 95.7.4 94.5.3 93c0-.3 0-.6.1-.9l8.4-36.6zM72.3 92c-.1.5-.2 1-.2 1.5-.1.9.2 1.7.9 2.3h-7.7c-2 0-3.4-.8-3.2-1.7s-.8-.7-2.3.6c-1.8 1.3-4 2-6.2 2-.7 0-6.6 0-6.6-6 0-2 1.3-7.9 3.4-10.2s5-3.2 16.6-6.6c.3-1.3.6-2.6.7-3.9 0-1.7-1.6-1.9-2.7-1.9-2.8 0-3.3 1.5-4.2 4.8H55c-1.4.1-2.7-1-2.8-2.4 0-.4 0-.8.2-1.1 0 0 1.2-4.2 4.2-5.8 2.8-1.3 5.9-1.8 8.9-1.7 5.7 0 11.6 1.4 11.6 7.2v1.2c-.3 1.4-.9 4.1-1.4 6L72.3 92zm-6.7-11.8c-2.2.7-5.1 1.5-6.3 2.5-1.6 1.3-2 4.8-2 5.5-.1 1 .7 1.9 1.7 2h2.2c1.5-1.5 2.6-3.4 3.2-5.4l1.2-4.6zm27.2-11c2.7-5.2 4.8-6.4 10-7.2l-1.6 5.8c-.5 1.9-1.5 3.5-2.3 3.4h-.7c-5.5 0-6.5 2.4-7.9 8.4l-3 12.7c-.5 2-2.3 3.4-4.4 3.5h-2.6c-1.5.1-2.8-1.1-2.9-2.6 0-.3 0-.6.1-.9L83.7 66c.5-2 2.3-3.4 4.4-3.5h2.6c1.5-.1 2.8 1.1 2.9 2.6 0 .3 0 .6-.1 1l-.7 3.1zM113.9 52c1.5-.1 2.8 1.1 2.9 2.6 0 .3 0 .6-.1.9l-3.7 16c-.5 1.9.2 2.3 1.5.7l5.7-7c1.5-1.7 3.6-2.7 5.9-2.8h3.9c2 0 2.5 1.2 1.2 2.7l-8.1 9c-1.4 1.7-1.9 4-1.4 6.1l3.6 12c.5 1.3-.1 2.8-1.4 3.3-.4.1-.7.2-1.1.2h-3c-2.1-.1-3.9-1.5-4.5-3.5l-2.8-10.8c-.5-1.9-1.3-1.9-1.7 0l-2.5 10.8c-.5 2-2.3 3.4-4.4 3.5h-2.7c-1.5.1-2.8-1.1-2.9-2.6 0-.3 0-.6.1-.9l8.5-36.8c.5-2 2.3-3.4 4.4-3.5l2.6.1zm43.2 33c-.6 2.5-1.3 5.4-3.4 7.6s-5.3 4-11.1 4c-1.7 0-6.3-.2-9.2-2.5-1.4-1.1-2.7-2.9-2.7-6.4 0-4.4 3.2-16.6 4.2-19.1 1.1-2.7 3.7-6.9 12.8-6.9 4 0 11.7.7 11.7 8.1 0 1.4-.2 2.8-.6 4.2-.5 2.4-1 4.6-1.6 7.4h-12.3c-2.1.1-3.9 1.5-4.4 3.5-.2.8-.3 1.7-.3 2.6 0 .3.1.7.2 1 .6.9 1.7 1.3 2.7 1.2 2.8 0 3.1-1.3 3.1-1.3.5-2 2.3-3.4 4.4-3.5l6.5.1zm-8-9.6c.4-1.5.7-3 .9-4.5 0-.6-.1-1.2-.5-1.7-.6-.6-1.5-.9-2.4-.9-3 0-3.7 3.5-3.7 3.5-.4 1.5.6 3.1 2.1 3.5.3.1.5.1.8.1h2.8zm20.4-20c.5-2 2.3-3.4 4.4-3.5h2.5c1.5-.1 2.8 1.1 2.9 2.6 0 .3 0 .6-.1 1l-.8 3.6c-.5 1.9.2 3.5 1.4 3.5s1.9 1.3 1.5 3-1.7 3-2.9 3-2.5 1.6-3 3.5L173 82.4c-.5 1.9-.9 4.1-1.1 4.9v.5c0 1.7 1.2 1.7 4 1.7l-.6 2.8c-.5 2-2.3 3.4-4.4 3.5 0 0-9.6 0-9.6-5 0-1.1.2-2.2.6-3.2l3.8-15.6c.5-1.9 0-3.5-1.1-3.5s-1.7-1.3-1.3-3 1.6-3 2.7-3 2.4-1.6 2.8-3.5l.7-3.6zM209 70.8c0 3.5-2.7 14.5-3.6 17.4-1.2 3.5-3.1 8.4-13 8.4-7.4 0-12.2-2.5-12.2-9 0-3.6 2.8-14.6 3.4-16.3 1-3.5 3.2-9.5 12.7-9.5 4.9-.1 12.7.7 12.7 9zm-9.8 1.3c.1-.4.2-.9.2-1.3.1-1.3-1-2.4-2.3-2.5h-.4c-2.7 0-3.2 2.3-3.5 3.8l-2.3 9.8c-.5 1.9-.9 4.1-1.1 4.8v.7c-.1 1.3.9 2.5 2.3 2.6h.4c2.7 0 2.9-1 2.9-1 .5-1.9 1.2-5.1 1.6-7l2.2-9.9zM216 61.7c2.4 0 4.3 1.9 4.3 4.3s-1.9 4.3-4.3 4.3-4.3-1.9-4.3-4.3 1.9-4.3 4.3-4.3c-.1 0 0 0 0 0zm0 .9c-1.9-.1-3.5 1.4-3.6 3.3s1.4 3.5 3.3 3.6c1.9.1 3.5-1.4 3.6-3.3v-.1c0-1.9-1.4-3.5-3.3-3.5zm-.8 5.9h-1v-4.7c.5-.1 1-.1 1.5-.1.6-.1 1.1.1 1.6.4.3.2.5.6.4 1 0 .5-.4 1-.9 1.1.5.2.8.6.8 1.2 0 .4.1.8.2 1.2h-1c-.2-.4-.3-.8-.3-1.2 0-.4-.4-.8-.8-.7h-.5v1.8zm0-2.8h.5c.6 0 1.1-.2 1.1-.7s-.3-.7-1-.7h-.5l-.1 1.4z"/></svg>