<svg xmlns="http://www.w3.org/2000/svg" width="1500" height="545"><path fill="#139CD8" d="M339.119 64.282c50.969-53.354 135.537-55.288 188.892-4.321a133.639 133.639 0 0 1 25.006 32.641 161.05 161.05 0 0 1 66.366-14.022c91.469 0 165.618 74.15 165.618 165.619 0 91.468-74.148 165.618-165.618 165.618a161.117 161.117 0 0 1-32.291-3.335c-21.255 37.896-61.286 61.396-104.735 61.479a116.197 116.197 0 0 1-52.342-12.196c-29.69 69.612-110.189 101.974-179.799 72.287a137.042 137.042 0 0 1-74.704-78.358 123.579 123.579 0 0 1-26.172 2.74c-71.03-.919-127.868-59.239-126.95-130.27.579-45.048 24.688-86.512 63.553-109.298a144.929 144.929 0 0 1-12.15-58.966C73.653 72.316 139.675 6.07 221.255 5.932A147.718 147.718 0 0 1 338.984 64.1"/><path fill="#FFF" d="M132.851 282.563a1.508 1.508 0 0 0 .321 1.826c1.506.913 2.74 1.827 4.247 2.74a45.401 45.401 0 0 0 22.837 5.164c15.53 0 25.258-8.222 25.258-21.607v-.319c0-12.469-10.962-16.762-21.328-20.097l-1.143-.457c-7.629-2.419-14.295-4.567-14.295-9.728v-.319c0-4.248 3.972-7.628 10.045-7.628a42.633 42.633 0 0 1 19.78 5.161 1.414 1.414 0 0 0 1.962-.319v-.319c.321-.914 3.062-7.903 3.062-8.542a1.737 1.737 0 0 0-.596-1.827 43.466 43.466 0 0 0-22.517-6.076h-1.507c-14.298 0-24.347 8.541-24.347 21.011v.319c0 13.109 10.962 17.357 21.332 20.099l1.506.592c7.629 2.421 14.024 4.248 14.024 9.455v.321c0 4.888-4.25 8.543-10.962 8.543a36.565 36.565 0 0 1-20.098-5.803c-1.234-.595-1.827-1.234-2.419-1.508a1.418 1.418 0 0 0-1.966.319v.319l-3.196 8.68zm228.332 0a1.503 1.503 0 0 0 .318 1.826c1.511.913 2.74 1.827 4.25 2.74a45.4 45.4 0 0 0 22.834 5.164c15.53 0 25.261-8.222 25.261-21.607v-.319c0-12.469-10.962-16.762-21.332-20.097l-1.097-.457c-7.628-2.419-14.295-4.567-14.295-9.728v-.319c0-4.248 3.971-7.628 10.049-7.628a42.63 42.63 0 0 1 19.776 5.161 1.414 1.414 0 0 0 1.962-.319v-.319c.321-.914 3.063-7.903 3.063-8.542a1.738 1.738 0 0 0-.595-1.827 43.512 43.512 0 0 0-22.518-6.076h-1.506c-14.299 0-24.343 8.541-24.343 21.011v.319c0 13.109 10.958 17.357 21.328 20.099l1.506.592c7.629 2.421 14.023 4.248 14.023 9.455v.321c0 4.888-4.246 8.543-10.962 8.543a36.571 36.571 0 0 1-20.097-5.803c-1.231-.595-1.827-1.234-2.419-1.508a1.42 1.42 0 0 0-1.967.319v.319l-3.239 8.68zM530.59 242.37a32.984 32.984 0 0 0-5.8-11.281 31.412 31.412 0 0 0-10.048-7.628 37.231 37.231 0 0 0-27.999 0 31.31 31.31 0 0 0-10.048 7.628 28.397 28.397 0 0 0-5.803 11.281 54.85 54.85 0 0 0 0 27.998 32.934 32.934 0 0 0 5.803 11.282 31.336 31.336 0 0 0 10.048 7.628 37.213 37.213 0 0 0 27.999 0 27.382 27.382 0 0 0 10.048-7.628 28.316 28.316 0 0 0 5.8-11.282 52.072 52.072 0 0 0 1.827-14.021 50.253 50.253 0 0 0-1.827-14.023m-13.108 14.022a32.219 32.219 0 0 1-4.246 17.677 13.71 13.71 0 0 1-12.791 6.077 14.59 14.59 0 0 1-12.789-6.077 38.692 38.692 0 0 1 0-35.308 13.702 13.702 0 0 1 12.789-6.076 14.58 14.58 0 0 1 12.791 6.076 31.522 31.522 0 0 1 4.246 17.677m119.987 21.923a1.228 1.228 0 0 0-1.459-.913 35.7 35.7 0 0 1-6.073 1.826c-2.315.361-4.65.561-6.991.593a20 20 0 0 1-14.935-5.479 24.842 24.842 0 0 1-5.48-17.95 28.373 28.373 0 0 1 4.885-17.038 16.77 16.77 0 0 1 14.617-6.396c4.632-.074 9.25.542 13.702 1.829a1.327 1.327 0 0 0 1.509-.915c1.231-3.06 2.145-5.48 3.334-8.813a1.235 1.235 0 0 0-.825-1.509 46.893 46.893 0 0 0-8.813-2.146 86.436 86.436 0 0 0-9.728-.594 36.893 36.893 0 0 0-14.617 2.74 29.802 29.802 0 0 0-10.641 7.628 33.974 33.974 0 0 0-6.396 11.281 42.225 42.225 0 0 0-2.147 14.023 38.363 38.363 0 0 0 8.543 25.9 33.048 33.048 0 0 0 25.897 9.725 50.203 50.203 0 0 0 18.591-3.334c.492-.326.728-.93.592-1.506l-3.565-8.952zm66.688-38.366a27.37 27.37 0 0 0-5.803-10.368 23.283 23.283 0 0 0-8.54-6.395 33.06 33.06 0 0 0-12.789-2.421 35.837 35.837 0 0 0-14.617 2.74 28.397 28.397 0 0 0-10.049 7.628 34.999 34.999 0 0 0-6.074 11.556 51.755 51.755 0 0 0-1.827 14.023 41.124 41.124 0 0 0 2.145 14.023 25.987 25.987 0 0 0 6.396 11.282 34.602 34.602 0 0 0 10.962 7.309 37.573 37.573 0 0 0 16.126 2.419 46.06 46.06 0 0 0 22.242-4.247c.592-.321.915-.593.318-2.147l-3.058-8.222a1.008 1.008 0 0 0-1.218-.734l-.017.006h-.318a41.465 41.465 0 0 1-18.271 3.333 22.3 22.3 0 0 1-15.209-5.16 20.65 20.65 0 0 1-5.162-14.619h44.166a1.188 1.188 0 0 0 1.235-1.14v-.001c.914-.319 2.419-9.134-.592-18.863m-43.849 9.133a24.33 24.33 0 0 1 3.653-10.368 13.707 13.707 0 0 1 12.468-6.395 14.258 14.258 0 0 1 12.472 6.395 21.875 21.875 0 0 1 3.058 10.368h-31.651zm-309.677-9.135a27.408 27.408 0 0 0-5.802-10.368 23.283 23.283 0 0 0-8.54-6.395 33.075 33.075 0 0 0-12.79-2.421 35.866 35.866 0 0 0-14.616 2.74 28.397 28.397 0 0 0-10.049 7.628 35.018 35.018 0 0 0-6.074 11.556 51.844 51.844 0 0 0-1.827 14.023 41.1 41.1 0 0 0 2.145 14.023 25.898 25.898 0 0 0 6.395 11.282 34.624 34.624 0 0 0 10.962 7.309 37.566 37.566 0 0 0 16.123 2.419 46.078 46.078 0 0 0 22.246-4.247c.593-.321.914-.593.318-2.147l-3.426-8.13a1.002 1.002 0 0 0-1.215-.733c-.007 0-.014 0-.017.003h-.321a41.4 41.4 0 0 1-18.271 3.332 22.264 22.264 0 0 1-15.209-5.159 20.634 20.634 0 0 1-5.16-14.616h44.167a1.185 1.185 0 0 0 1.231-1.14v-.001c.913-.321 2.422-9.135-.593-18.864m-43.847 9.132a24.39 24.39 0 0 1 3.654-10.368 13.708 13.708 0 0 1 12.472-6.395 14.258 14.258 0 0 1 12.469 6.395 21.852 21.852 0 0 1 3.062 10.368h-31.657zm-77.6-2.237c-1.828 0-3.976-.321-6.988-.321-3.703.052-7.384.56-10.962 1.507a28.122 28.122 0 0 0-9.135 4.248 18.634 18.634 0 0 0-6.395 7.308 22.225 22.225 0 0 0-2.422 10.049 20.464 20.464 0 0 0 2.147 10.05 18.251 18.251 0 0 0 5.803 6.986 25.12 25.12 0 0 0 9.132 3.973 45.019 45.019 0 0 0 11.558 1.234 64.427 64.427 0 0 0 13.382-1.234c4.247-.592 9.728-1.828 11.284-2.146a19.54 19.54 0 0 0 3.058-.913 1.235 1.235 0 0 0 .914-1.463V245.75a24.9 24.9 0 0 0-6.987-19.503 30.803 30.803 0 0 0-20.419-6.076 52.441 52.441 0 0 0-11.875 1.234 43.213 43.213 0 0 0-13.7 4.888 1.37 1.37 0 0 0-.321 1.827l3.062 8.542c.132.537.674.867 1.214.734l.017-.004h.321a.959.959 0 0 0 .593-.319 46.471 46.471 0 0 1 19.048-4.568c3.85-.267 7.689.692 10.959 2.742 2.423 1.827 3.654 4.567 3.654 10.643v1.827l-6.987-.594m-17.358 31.057a8.384 8.384 0 0 1-2.42-2.74 11.374 11.374 0 0 1 2.42-14.298 18.597 18.597 0 0 1 12.789-3.06 80.86 80.86 0 0 1 11.876.914v20.097a79.23 79.23 0 0 1-11.876 1.508 19.72 19.72 0 0 1-12.789-2.421m373.623-54.081a1.094 1.094 0 0 0-.503-1.461 26.95 26.95 0 0 0-7.309-1.232 22.088 22.088 0 0 0-11.28 1.827 19.282 19.282 0 0 0-7.308 5.482v-5.482a1.327 1.327 0 0 0-1.236-1.234h-11.875a1.324 1.324 0 0 0-1.231 1.234v66.045c.043.663.57 1.189 1.231 1.236h11.559a1.326 1.326 0 0 0 1.231-1.236v-32.885c-.07-3.906.44-7.799 1.509-11.556a13.724 13.724 0 0 1 3.971-6.395 12.743 12.743 0 0 1 5.482-3.334 22.45 22.45 0 0 1 5.803-.912c1.645.02 3.283.219 4.885.593a1.373 1.373 0 0 0 1.509-1.188c.913-2.146 3.06-8.221 3.655-9.455"/><path fill="#FFF" d="M476.1 193.68l-4.248-.914a34.093 34.093 0 0 0-6.073-.594 24.34 24.34 0 0 0-18.591 6.715 38.448 38.448 0 0 0-8.814 20.097l-.592 3.06h-10.049a1.602 1.602 0 0 0-1.51 1.233l-1.506 9.135a1.323 1.323 0 0 0 1.049 1.507h10.231l-10.049 55.083a56.818 56.818 0 0 1-2.74 10.964 20.904 20.904 0 0 1-3.058 6.394 7.77 7.77 0 0 1-3.976 3.06 14.187 14.187 0 0 1-5.159.596c-.914 0-2.421-.318-3.655-.318a8.116 8.116 0 0 1-2.419-.913 1.28 1.28 0 0 0-1.509.592c-.318.914-3.058 8.223-3.334 8.814a1.372 1.372 0 0 0 .593 1.827c1.298.5 2.625.91 3.976 1.234 2.096.473 4.246.672 6.395.593 3.733.069 7.451-.55 10.962-1.827a21.356 21.356 0 0 0 8.222-5.8 30.65 30.65 0 0 0 5.798-9.73 103.515 103.515 0 0 0 3.976-14.934l10.049-56.319H464.5a1.6 1.6 0 0 0 1.51-1.233l1.506-9.135a1.323 1.323 0 0 0-1.049-1.507h-14.481a44.77 44.77 0 0 1 2.422-10.049 10.814 10.814 0 0 1 3.06-4.568 12.769 12.769 0 0 1 3.654-2.419 23.673 23.673 0 0 1 4.889-.594c1.231 0 2.74.319 3.653.319a6.08 6.08 0 0 1 2.145.594c1.509.319 1.509 0 1.827-.594l3.337-9.135c.318-.594-.596-.913-.914-1.232m-197.094 95.595a1.324 1.324 0 0 1-1.231 1.236h-11.557a1.324 1.324 0 0 1-1.231-1.236v-94.273a1.322 1.322 0 0 1 1.231-1.233h11.283a1.322 1.322 0 0 1 1.231 1.233v94.363l.274-.09z"/><path fill="#7D888E" d="M866.897 200.577a49.635 49.635 0 0 1-3.836 3.425v-18.133h-16.169v141.139h16.215v-51.753c23.338 26.859 50.24 24.162 67.644 13.291 21.329-13.199 30.466-41.654 22.839-67.918-11.828-38.686-60.293-51.978-86.693-20.051zm29.645 80.069c-21.33 0-34.394-18.271-34.576-41.108-.185-22.837 17.539-41.704 38.778-41.886 21.236-.181 38.044 17.768 38.044 41.793-.198 22.905-18.929 41.31-41.833 41.112h-.46l.047.089zm547.05-127.662v31.973h34.029v14.616h-33.162c-.229 3.516-.593 6.074-.593 9.135 0 16.809.639 33.662 0 50.242-1.006 19.779 9.136 23.981 27.403 20.326a46.661 46.661 0 0 0 4.568-1.506c3.792 12.377 1.416 16.123-10.918 17.675-25.713 3.058-38.047-7.812-38.09-33.798v-61.389l-14.615-.685v-13.704l14.522-.912v-31.973h16.856zm-335.393 140.495h-16.352v-107.61h16.033v24.848c11.28-17.036 23.794-27.907 43.802-27.085v16.763c-32.43 6.076-43.527 19.823-43.527 53.44.044 12.833.044 25.897.044 39.644zm143.83-152.416v62.575c-28.499-25.533-54.263-27.406-76.095-7.173-21.831 20.236-23.752 56.64-5.295 80.345a49.116 49.116 0 0 0 29.915 18.271c20.689 4.158 36.905-3.928 51.385-21.879v19.96h15.666V141.016h-15.576v.047zm-39.235 140.269c-21.329-.503-37.862-19.367-37.405-42.8.457-23.431 16.397-41.106 38.047-40.832 21.651.273 39.05 18.863 38.732 42.614-.183 22.609-18.317 41.474-39.328 41.018h-.046zm-149.22-63.489c-.959-16.489-11.098-27.406-26.902-31.653a81.714 81.714 0 0 0-57.823 6.714l4.566 13.381c19.138-7.124 29.276-8.54 41.792-6.986 14.069 1.781 26.538 15.208 21.742 31.149l-4.932-1.049c-18.271-3.425-36.314-5.437-53.716 2.603-16.422 6.961-24.087 25.915-17.126 42.336a32.28 32.28 0 0 0 11.736 14.208 47.287 47.287 0 0 0 30.878 7.72 52.15 52.15 0 0 0 34.301-16.58l.777 13.704h15.21c0-2.42.592-4.568.546-6.306-.135-23.155.321-46.404-1.049-69.241zm-31.196 60.472c-13.381 6.441-27.038 7.398-39.599-1.916-8.288-6.764-9.522-18.963-2.762-27.251a19.501 19.501 0 0 1 4.313-3.901 67.469 67.469 0 0 1 48.689-3.061 9.546 9.546 0 0 1 5.345 6.624c2.326 12.332-4.333 24.604-15.941 29.37l-.045.135zm314.519-95.734c-31.526-.525-57.513 24.609-58.035 56.135-.526 31.528 24.607 57.514 56.136 58.039 31.502.523 57.476-24.572 58.035-56.075v-.366c.585-31.224-24.252-57.011-55.478-57.595l-.063-.001-.595-.137zm0 99.068c-22.243 0-39.875-18.771-39.782-42.614.09-23.844 17.036-41.61 39.601-41.429 22.563.185 39.599 18.638 39.599 41.977 0 23.34-17.311 41.978-39.463 42.066h.045z"/></svg>