<svg width="108" height="44" xmlns="http://www.w3.org/2000/svg"><g fill="#EFECE6" fill-rule="evenodd"><path d="M8.137 0H0v30h4.105V19.55a261.48 261.48 0 0 0 4.802-1.731C16.762 14.759 19 11.802 19 6.719 19.006 3.143 16.363 0 8.137 0zm-.044 17.163c-.537.249-3.23 1.38-3.983 1.205V.662h2.582c4.642 0 6.974 1.871 7.7 6.548.62 4.032-2.222 8.064-6.299 9.953z" fill-rule="nonzero"/><path d="M106.845 41.18l-.443-.146c-.429-.146-.691-.354-.691-.725 0-.466.434-.646.832-.646.504 0 .978.23 1.316.584v-.826c-.162-.146-.63-.421-1.316-.421-.797 0-1.523.41-1.523 1.326 0 .837.459 1.13 1.15 1.365l.398.135c.353.118.746.326.746.77 0 .438-.307.747-.907.747-.56 0-1.064-.287-1.407-.691v.837c.171.168.67.511 1.427.511.998 0 1.573-.646 1.573-1.433-.005-.792-.464-1.157-1.155-1.387z"/><path d="M20 44L23 44 23 43.330254 20.7034483 43.330254 20.7034483 41.6039261 23 41.6039261 23 40.9745958 20.7034483 40.9745958 20.7034483 39.669746 23 39.669746 23 39 20 39z"/><path d="M32 44L35 44 35 43.330254 32.7034483 43.330254 32.7034483 41.6039261 35 41.6039261 35 40.9745958 32.7034483 40.9745958 32.7034483 39.669746 35 39.669746 35 39 32 39z"/><path d="M108 25.917h-.083c-3.883 2.51-6.315 3.054-9.94 3.054h-3.714V15.025h2.069c4.753 0 6.524.668 8.769 1.335v-3.5c-2.245.667-4.016 1.334-8.77 1.334h-2.068V.973h3.505c3.63 0 5.848.712 9.39 2.816h.083L106.64 0H90v30h17.065l.935-4.083z"/><path d="M0.739130435 39L0 39 0 44 3 44 3 43.330254 0.739130435 43.330254z"/><path d="M12.7083333 39.669746L14.953125 39.669746 14.953125 39 12 39 12 44 12.7083333 44 12.7083333 41.7944573 15 41.7944573 15 41.1535797 12.7083333 41.1535797z"/><path d="M50 18.772V0h-4.247v18.85c0 6.61-2.152 10.66-7.253 10.66s-7.253-4.056-7.253-10.66V0H27v18.772C27 25.866 30.045 30 38.5 30S50 25.866 50 18.772z"/><path d="M7 39H8V44H7z"/><path d="M48.396 39H47v5h.629v-1.64h.767c1.003 0 1.604-.612 1.604-1.674C50 39.583 49.431 39 48.396 39zm0 2.725h-.767v-2.078h.767c.606 0 .975.317.975 1.039 0 .727-.346 1.04-.975 1.04z" fill-rule="nonzero"/><path d="M69 39H70V44H69z"/><path d="M74 44L77 44 77 43.330254 74.7046632 43.330254 74.7046632 41.6039261 77 41.6039261 77 40.9745958 74.7046632 40.9745958 74.7046632 39.669746 77 39.669746 77 39 74 39z"/><path d="M64.986 40.478c0-.947-.593-1.478-1.517-1.478H62v5h.645v-2.02h.843l.787 2.02H65l-.9-2.16c.336-.092.886-.455.886-1.362zm-1.512.855h-.825v-1.686h.82c.531 0 .896.26.896.837-.005.71-.455.849-.891.849z" fill-rule="nonzero"/><path d="M85.2082111 42.7413395L82.7038123 39 82 39 82 44 82.797654 44 82.797654 40.3452656 85.2258065 44 86 44 86 39 85.2082111 39z"/><path d="M54 44L57 44 57 43.330254 54.7046632 43.330254 54.7046632 41.6039261 57 41.6039261 57 40.9745958 54.7046632 40.9745958 54.7046632 39.669746 57 39.669746 57 39 54 39z"/><path d="M73.388 15.919c4.63-2.471 6.083-5.169 6.083-9.206C79.471 3.144 76.764 0 68.331 0H60v30h4.205V19.544a272.22 272.22 0 0 0 4.92-1.73l.358-.136L78.807 30H84L73.388 15.919zm-5.102 1.238c-.55.25-3.309 1.38-4.08 1.205V.656h2.644c4.756 0 7.145 1.872 7.888 6.549.636 4.032-2.275 8.064-6.452 9.952z" fill-rule="nonzero"/><path d="M90 41.5c0 1.511.732 2.5 1.943 2.5.524 0 .89-.202 1.012-.303l.004-.764c-.339.331-.628.41-1.012.41-.786 0-1.31-.77-1.31-1.849 0-1.185.52-1.837 1.26-1.837.48 0 .877.287 1.103.528V39.4A1.745 1.745 0 0 0 91.88 39c-1.144-.006-1.88.978-1.88 2.5z"/><path d="M97 44L100 44 100 43.330254 97.7046632 43.330254 97.7046632 41.6039261 100 41.6039261 100 40.9745958 97.7046632 40.9745958 97.7046632 39.669746 100 39.669746 100 39 97 39z"/><path d="M41.9237057 39L41.0517711 39 40 40.8879908 38.9645777 39 38.0926431 39 39.5476839 41.4595843 38 44 38.8773842 44 40 42.0600462 41.1280654 44 42 44 40.4632153 41.4595843z"/></g></svg>