<svg viewBox="0 0 113.66 110.36" xmlns="http://www.w3.org/2000/svg"><path d="m10.49.76 45.95 108.93 46.76-109-46.35 37.44z" fill="#ed6957"/><path d="m66.45 46.76-55.29-44.61v42.76h-1.33v-44.15l1.08-.52 56.37 45.48z"/><path d="m46.97 46.96-.83-1.04 56.64-45.75 1.09.52v44.6h-1.33v-43.21z"/><path d="m56.83 110.23-.79-.01-36.44-27.07.79-1.06 36.05 26.78 36.7-26.79.78 1.08z"/><path d="m56.44 110.36a.7.7 0 0 1 -.61-.41l-46-108.95a.66.66 0 0 1 .39-.85.64.64 0 0 1 .61.08l45.94 37 45.93-37.09a.66.66 0 0 1 .82 0 .64.64 0 0 1 .21.79l-46.73 109a.67.67 0 0 1 -.56.43zm-44.31-107.43 44.31 105.07 45.1-105.1-44.28 35.74a.65.65 0 0 1 -.83 0z"/><path d="m45.91 101.87h21.25l-10.72 7.82z"/><path d="m113.45 46.52s-13.75-3.81-20.13-4.28-13.4-1.24-22.51 1.27-3.86 3.35-14 3.37-5-.85-14-3.37-16.12-1.75-22.5-1.27-20.1 4.28-20.1 4.28c-.45 4.76-.18 4 .82 5.92s1.44 10.39 2.19 14.31c1.09 5.74 4 11.39 8.11 14.39s11 3.56 21.23 2.55c7.84-.77 10.12-3.8 12.93-8.1 2.63-4 5.47-13.67 6.84-19.32a4.51 4.51 0 0 1 9 0c1.36 5.65 4.21 15.31 6.83 19.32 2.81 4.3 5.1 7.33 12.94 8.1 10.2 1 17.13.46 21.23-2.55s7-8.65 8.11-14.39c.74-3.92 1.18-12.39 2.18-14.31s1.29-1.17.83-5.92zm-64.24 9.75c-1.37 9.57-4.37 18.73-8.29 21.73s-11.76 4.2-20.41 3.28-11.66-7-13.39-12.57a40.93 40.93 0 0 1 -1.91-16.27s1-5 9.39-7.19a58 58 0 0 1 22.87-.82c5.96 1.18 13.07 2.27 11.74 11.84zm57.45 12.39c-1.77 5.61-4.78 11.66-13.45 12.61s-16.49-.36-20.41-3.27-6.93-12.11-8.29-21.68 5.74-10.66 11.75-11.84a58 58 0 0 1 22.87.82c8.38 2.18 9.38 7.19 9.38 7.19a40.9 40.9 0 0 1 -1.89 16.18z"/></svg>