<svg height="512" width="512" xmlns="http://www.w3.org/2000/svg" fill="#ff6952"><path d="M471.604 214.969l-55.323-5.691c-3.148-10.423-7.28-20.415-12.341-29.839l35.172-43.366a9.996 9.996 0 0 0-.695-13.367l-46.168-46.161c-3.623-3.622-9.396-3.907-13.37-.681l-43.373 35.207c-9.461-5.071-19.449-9.146-29.834-12.286l-5.691-55.431c-.523-5.102-4.82-8.745-9.948-8.745h-.01l-65.325-.172c-5.12.005-9.409 3.641-9.937 8.734l-5.748 55.492c-10.425 3.148-20.419 7.281-29.848 12.343L135.8 75.835a9.996 9.996 0 0 0-13.367.695l-46.162 46.168c-3.621 3.622-3.908 9.393-.682 13.37l35.204 43.374c-5.072 9.463-9.152 19.455-12.293 29.842l-55.385 5.748c-5.097.528-8.755 4.823-8.755 9.947v65.261c0 5.124 3.658 9.419 8.755 9.946l55.278 5.749a162.953 162.953 0 0 0 12.347 29.841l-35.177 43.372a9.997 9.997 0 0 0 .695 13.368l46.168 46.164a9.998 9.998 0 0 0 13.37.688l43.368-35.187c9.428 5.063 19.423 9.165 29.848 12.313l5.749 55.434c.528 5.093 4.817 8.847 9.937 8.852l65.325-.172h.01c5.128 0 9.425-3.643 9.948-8.744l5.69-55.313a162.878 162.878 0 0 0 29.833-12.345l43.371 35.176a9.997 9.997 0 0 0 13.367-.695l46.161-46.168c3.621-3.621 3.906-9.393.681-13.37l-35.198-43.367c5.061-9.426 9.135-19.416 12.283-29.84l55.436-5.69c5.102-.523 8.756-4.82 8.756-9.948v-65.389c-.001-5.127-3.655-9.423-8.757-9.946zm-11.244 66.308l-53.119 5.465c-4.165.427-7.399 3.404-8.441 7.46-3.431 13.354-8.647 25.962-15.507 37.47a10.001 10.001 0 0 0 .823 11.419l33.787 41.66-33.425 33.425-41.66-33.787a9.998 9.998 0 0 0-11.406-.831c-11.585 6.883-24.195 12.103-37.482 15.516a10 10 0 0 0-7.46 8.666l-5.465 53.335-47.279-.047-5.521-53.299a10 10 0 0 0-7.458-8.655c-13.353-3.43-25.958-8.647-37.47-15.508a9.997 9.997 0 0 0-11.417.823l-41.657 33.787-33.418-33.425 33.8-41.66c2.638-3.252 2.997-7.805.858-11.405-6.884-11.591-12.05-24.202-15.461-37.482-1.041-4.053-4.386-7.028-8.548-7.46l-53.075-5.52v-47.226l53.075-5.52c4.161-.431 7.399-3.407 8.44-7.459 3.412-13.283 8.632-25.894 15.515-37.483a9.998 9.998 0 0 0-.831-11.405L96.772 130.47l33.424-33.425 41.661 33.788a9.998 9.998 0 0 0 11.418.824c11.512-6.861 24.119-12.078 37.469-15.507a10 10 0 0 0 7.459-8.655l5.521-53.3 47.279-.046 5.465 53.334a10 10 0 0 0 7.46 8.667c13.282 3.412 25.893 8.631 37.481 15.515a9.994 9.994 0 0 0 11.403-.831l41.657-33.788 33.418 33.425-33.802 41.661c-2.642 3.257-2.999 7.816-.851 11.418 6.859 11.509 12.02 24.116 15.45 37.47 1.042 4.056 4.389 7.033 8.554 7.459l53.119 5.466v47.332z"/><path d="M231.451 199.105c-14.283 14.284-14.283 37.526 0 51.81 11.623 11.623 25.98 10.714 25.88 10.695 9.799 0 19.001-3.805 25.911-10.714 14.272-14.274 14.272-37.499 0-51.772-14.27-14.27-37.492-14.317-51.791-.019zm37.651 37.649c-6.483 6.481-17.052 6.475-23.508.019-6.486-6.486-6.486-17.04 0-23.526 6.457-6.457 17.027-6.462 23.507.02 6.475 6.475 6.475 17.012.001 23.487z"/><path d="M257.311 143.271c-63.391 0-114.284 51.035-114.284 114.26 0 62.483 49.928 114.08 114.284 114.08h.003c64.413 0 114.354-51.655 114.354-114.005-.001-63.432-51.101-114.335-114.357-114.335zM195.68 329.104l-.007-.006c28.697-45.112 94.784-44.841 123.336-.014-36.903 31.083-88.599 30.039-123.329.02zm137.318-15.014c-37.05-51.605-114.242-51.674-151.311-.006-26.994-36.1-25.291-89.04 8.935-123.264 36.573-36.574 96.527-36.907 133.506.074 33.757 33.756 36.244 86.634 8.87 123.196z"/></svg>