<svg enable-background="new 0 0 512 512" height="512" viewBox="0 0 512 512" width="512" xmlns="http://www.w3.org/2000/svg" stroke="#fff"><path d="m169.563 244.642c1.589 0 2.944-1.148 3.202-2.714 5.869-35.531 33.675-63.347 69.197-69.216 1.57-.262 2.714-1.617 2.714-3.202v-108.023c0-1.884-1.594-3.37-3.478-3.234-97.844 7.045-175.848 85.224-182.982 182.911-.066.9.244 1.786.862 2.447 1.814 1.959-3.225.642 110.485 1.031zm68.625-179.634v101.789c-36.056 7.087-64.251 35.288-71.334 71.358h-101.879c8.362-91.313 81.961-164.879 173.213-173.147z"/><path d="m187.319 304.689c-7.617-10.637-12.516-22.463-14.55-35.147-.253-1.575-1.612-2.732-3.206-2.732h-108.113c-1.894 0-3.371 1.612-3.234 3.478 3.094 42.609 19.537 82.313 47.559 114.816 1.219 1.42 3.403 1.519 4.753.178l76.443-76.406c1.126-1.121 1.271-2.894.348-4.187zm-78.891 73.509c-24.98-30.032-39.947-66.164-43.453-104.896h101.869c2.259 11.766 6.834 22.81 13.622 32.901z"/><path d="m450.283 218.673c-.352-1.847-2.194-3.023-4.031-2.536l-104.4 27.961c-1.514.408-2.521 1.833-2.396 3.394 5.935 74.606-75.782 117.45-132.656 76.622-1.293-.929-3.065-.783-4.186.342-1.036 1.041 10.373-10.378-76.449 76.486-1.336 1.336-1.247 3.524.178 4.753 35.995 30.998 81.966 48.061 129.361 48.061 109.434 0 198.089-88.523 198.089-198.028.001-12.155-1.181-24.619-3.51-37.055zm-12.366 96.272h-113.662c7.102-8.213 12.759-17.714 16.565-28.097h103.94c-1.578 9.624-3.88 19.008-6.843 28.097zm-94.992-34.584c2.522-8.926 3.722-18.45 3.323-28.167h101.016c.184 9.511-.355 18.947-1.542 28.167zm104.096-34.655h-86.072l83.569-22.383c1.269 7.491 2.099 14.977 2.503 22.383zm-241.74 85.257c35.001 23.568 81.83 19.847 112.771-9.53h117.633c-3.586 9.788-7.959 19.195-13.026 28.167h-235.996zm192.357 53.292h-245.616l28.153-28.167h238.65c-6.202 10.04-13.299 19.467-21.187 28.167zm-230.776 41.156h177.643c-55.786 29.297-122.208 28.997-177.643 0zm189.042-6.492h-200.47c-7.725-4.744-15.146-10.041-22.186-15.882l12.286-12.29h245.935c-10.674 10.725-22.613 20.193-35.565 28.172z"/><path d="m269.5 172.712c27.685 4.589 51.178 22.617 62.846 48.22.651 1.43 2.245 2.203 3.792 1.791l104.433-27.961c1.818-.488 2.846-2.424 2.227-4.205-25.256-72.52-91.889-126.492-172.528-132.305-1.86-.141-3.478 1.336-3.478 3.234v108.023c-.001 1.586 1.147 2.941 2.708 3.203zm3.778-107.704c73.561 6.647 136.631 55.013 162.206 124.397l-98.409 26.348c-12.525-25.425-36.062-43.486-63.797-48.951z"/><path d="m205.516 255.958c0 27.857 22.65 50.521 50.499 50.521 27.816 0 50.447-22.664 50.447-50.521 0-27.811-22.631-50.438-50.447-50.438-27.849.001-50.499 22.627-50.499 50.438zm50.498-43.945c24.239 0 43.955 19.711 43.955 43.945 0 24.281-19.716 44.034-43.955 44.034-24.267 0-44.011-19.753-44.011-44.034 0-24.234 19.744-43.945 44.011-43.945z"/><path d="m248.903 263.669-8.006.938c1.228 8.029 5.658 12.347 12.844 13.313v5.686h4.519v-5.761c8.306-1.284 12.867-7.008 12.867-14.175 0-8.105-5.096-11.339-12.867-13.393v-11.995c2.024.858 3.234 2.494 3.74 4.903l7.838-1.013c-1.145-6.328-5.143-9.975-11.578-10.749v-3.033h-4.519v3.033c-7.261.82-11.606 5.958-11.606 12.459 0 7.388 4.411 11.592 11.606 13.711v12.924c-1.974-.994-4.139-3.459-4.838-6.848zm9.357-4.753c3.168.918 5.227 2.568 5.227 5.84 0 3.263-2.231 5.648-5.227 6.234zm-4.519-20.79v10.669c-5.311-2.203-5.082-8.625 0-10.669z"/></svg>