<svg height="512" width="512" xmlns="http://www.w3.org/2000/svg" stroke="#fff"><path d="M169.563 244.642a3.243 3.243 0 0 0 3.202-2.714c5.869-35.531 33.675-63.347 69.197-69.216a3.245 3.245 0 0 0 2.714-3.202V61.487a3.24 3.24 0 0 0-3.478-3.234C143.354 65.298 65.35 143.477 58.216 241.164c-.066.9.244 1.786.862 2.447 1.814 1.959-3.225.642 110.485 1.031zm68.625-179.634v101.789c-36.056 7.087-64.251 35.288-71.334 71.358H64.975c8.362-91.313 81.961-164.879 173.213-173.147zm-50.869 239.681c-7.617-10.637-12.516-22.463-14.55-35.147a3.247 3.247 0 0 0-3.206-2.732H61.45a3.243 3.243 0 0 0-3.234 3.478c3.094 42.609 19.537 82.313 47.559 114.816a3.246 3.246 0 0 0 4.753.178l76.443-76.406a3.247 3.247 0 0 0 .348-4.187zm-78.891 73.509c-24.98-30.032-39.947-66.164-43.453-104.896h101.869c2.259 11.766 6.834 22.81 13.622 32.901zm341.855-159.525a3.252 3.252 0 0 0-4.031-2.536l-104.4 27.961a3.247 3.247 0 0 0-2.396 3.394c5.935 74.606-75.782 117.45-132.656 76.622a3.24 3.24 0 0 0-4.186.342c-1.036 1.041 10.373-10.378-76.449 76.486a3.247 3.247 0 0 0 .178 4.753c35.995 30.998 81.966 48.061 129.361 48.061 109.434 0 198.089-88.523 198.089-198.028.001-12.155-1.181-24.619-3.51-37.055zm-12.366 96.272H324.255a90.71 90.71 0 0 0 16.565-28.097h103.94a189.61 189.61 0 0 1-6.843 28.097zm-94.992-34.584a90.122 90.122 0 0 0 3.323-28.167h101.016a191.791 191.791 0 0 1-1.542 28.167zm104.096-34.655h-86.072l83.569-22.383a199.033 199.033 0 0 1 2.503 22.383zm-241.74 85.257c35.001 23.568 81.83 19.847 112.771-9.53h117.633a190.635 190.635 0 0 1-13.026 28.167H186.663zm192.357 53.292H152.022l28.153-28.167h238.65a192.745 192.745 0 0 1-21.187 28.167zm-230.776 41.156h177.643c-55.786 29.297-122.208 28.997-177.643 0zm189.042-6.492h-200.47a192.498 192.498 0 0 1-22.186-15.882l12.286-12.29h245.935a193.038 193.038 0 0 1-35.565 28.172zM269.5 172.712c27.685 4.589 51.178 22.617 62.846 48.22a3.246 3.246 0 0 0 3.792 1.791l104.433-27.961a3.253 3.253 0 0 0 2.227-4.205c-25.256-72.52-91.889-126.492-172.528-132.305a3.242 3.242 0 0 0-3.478 3.234v108.023a3.248 3.248 0 0 0 2.708 3.203zm3.778-107.704c73.561 6.647 136.631 55.013 162.206 124.397l-98.409 26.348c-12.525-25.425-36.062-43.486-63.797-48.951z"/><path d="M205.516 255.958c0 27.857 22.65 50.521 50.499 50.521 27.816 0 50.447-22.664 50.447-50.521 0-27.811-22.631-50.438-50.447-50.438-27.849.001-50.499 22.627-50.499 50.438zm50.498-43.945c24.239 0 43.955 19.711 43.955 43.945 0 24.281-19.716 44.034-43.955 44.034-24.267 0-44.011-19.753-44.011-44.034 0-24.234 19.744-43.945 44.011-43.945z"/><path d="M248.903 263.669l-8.006.938c1.228 8.029 5.658 12.347 12.844 13.313v5.686h4.519v-5.761c8.306-1.284 12.867-7.008 12.867-14.175 0-8.105-5.096-11.339-12.867-13.393v-11.995c2.024.858 3.234 2.494 3.74 4.903l7.838-1.013c-1.145-6.328-5.143-9.975-11.578-10.749v-3.033h-4.519v3.033c-7.261.82-11.606 5.958-11.606 12.459 0 7.388 4.411 11.592 11.606 13.711v12.924c-1.974-.994-4.139-3.459-4.838-6.848zm9.357-4.753c3.168.918 5.227 2.568 5.227 5.84 0 3.263-2.231 5.648-5.227 6.234zm-4.519-20.79v10.669c-5.311-2.203-5.082-8.625 0-10.669z"/></svg>