<svg height="512" width="512" xmlns="http://www.w3.org/2000/svg" fill="#ff6952"><path d="M440.847 303.986V103.6c7.275-.858 12.947-7.055 12.947-14.56 0-8.043-6.581-14.592-14.672-14.592H72.784c-8.039 0-14.578 6.549-14.578 14.592 0 7.5 5.625 13.692 12.849 14.56v200.39c-7.224.858-12.849 7.013-12.849 14.466 0 8.039 6.539 14.578 14.578 14.578h135.291l-65.307 99.487c-1.411 2.152.127 5.03 2.714 5.03h28.026a3.239 3.239 0 0 0 2.714-1.468l29.348-44.746h33.15v42.965a3.246 3.246 0 0 0 3.244 3.249h28.031a3.246 3.246 0 0 0 3.243-3.249v-42.965h33.516l29.344 44.746a3.256 3.256 0 0 0 2.719 1.468h28.051c2.766 0 4.199-3.202 2.521-5.283l-65.138-99.234H439.12c8.091 0 14.672-6.539 14.672-14.578.002-7.458-5.67-13.612-12.945-14.47zm-363.3-200.274H434.36v200.166H77.547zM64.694 89.041c0-4.467 3.628-8.1 8.09-8.1h366.338c4.509 0 8.175 3.633 8.175 8.1 0 4.509-3.666 8.18-8.175 8.18H72.784c-4.462-.001-8.09-3.671-8.09-8.18zM171.756 431.06h-20.259l64.34-98.025h20.212c-10.771 16.42-49.255 75.103-64.293 98.025zm38.072-46.21l28.894-44.058v44.058zm56.925 46.21H245.21v-98.025h21.543zm6.487-46.21v-44.61l29.26 44.61zm87.591 46.21h-20.259l-64.294-98.025h20.212zm78.291-104.518H72.784c-4.462 0-8.09-3.628-8.09-8.086 0-4.462 3.628-8.091 8.09-8.091h366.338c4.509 0 8.175 3.629 8.175 8.091 0 4.458-3.666 8.086-8.175 8.086z"/><path d="M349.74 177.634a3.243 3.243 0 0 0-2.297 3.98l11.729 43.654-43.716 11.747a3.245 3.245 0 0 0-2.287 3.979c6.065 22.565 26.615 38.325 49.969 38.325h.009c33.966 0 58.688-32.433 49.95-65.119-7.322-27.191-35.4-44.014-63.357-36.566zm13.406 95.199h-.009c-19.331 0-36.469-12.356-42.75-30.422l43.603-11.719a3.249 3.249 0 0 0 2.297-3.975l-11.709-43.538c23.287-4.472 46.097 9.839 52.256 32.7 7.622 28.534-13.931 56.954-43.688 56.954z"/><path d="M351.053 215.275l-9.759-39.155a3.242 3.242 0 0 0-3.929-2.362c-24.188 6.028-38.821 31.354-30.909 55.814a3.248 3.248 0 0 0 3.085 2.246c.984 0-1.106.473 39.375-12.675a3.237 3.237 0 0 0 2.137-3.868zm-39.282 9.16c-4.359-18.643 6.291-37.364 24.047-43.458l8.213 32.935zm103.594-106.473h-59.063a3.246 3.246 0 0 0-3.243 3.249 3.245 3.245 0 0 0 3.243 3.244h59.063a3.246 3.246 0 1 0 0-6.493zm0 12.943h-59.063a3.245 3.245 0 0 0 0 6.488h59.063a3.245 3.245 0 0 0 0-6.488zm-296.339-3.108H97.815a3.245 3.245 0 0 0-3.244 3.244v21.258a3.246 3.246 0 0 0 3.244 3.249h21.211a3.248 3.248 0 0 0 3.249-3.249v-21.258a3.246 3.246 0 0 0-3.249-3.244zm-3.243 21.258H101.06v-14.766h14.723zm109.397-17.058h-89.883a3.245 3.245 0 0 0 0 6.488h89.883a3.245 3.245 0 0 0 0-6.488zm0 12.844h-89.883a3.246 3.246 0 0 0 0 6.492h89.883a3.247 3.247 0 0 0 0-6.492zM119.026 167.95H97.815a3.245 3.245 0 0 0-3.244 3.244v21.168a3.245 3.245 0 0 0 3.244 3.244h21.211a3.246 3.246 0 0 0 3.249-3.244v-21.168a3.246 3.246 0 0 0-3.249-3.244zm-3.243 21.164H101.06v-14.672h14.723zm109.397-16.968h-89.883a3.246 3.246 0 1 0 0 6.493h89.883a3.246 3.246 0 0 0 0-6.493zm0 12.848h-89.883a3.246 3.246 0 0 0 0 6.493h89.883a3.247 3.247 0 0 0 0-6.493zm-106.154 23.109H97.815a3.245 3.245 0 0 0-3.244 3.244v21.164a3.246 3.246 0 0 0 3.244 3.249h21.211a3.248 3.248 0 0 0 3.249-3.249v-21.164a3.246 3.246 0 0 0-3.249-3.244zm-3.243 21.164H101.06v-14.676h14.723zm109.397-17.058h-89.883a3.245 3.245 0 0 0 0 6.488h89.883a3.245 3.245 0 0 0 0-6.488zm0 12.863h-89.883a3.246 3.246 0 1 0 0 6.493h89.883a3.246 3.246 0 0 0 0-6.493zm-106.154 23.105H97.815a3.246 3.246 0 0 0-3.244 3.248v21.244a3.245 3.245 0 0 0 3.244 3.243h21.211a3.246 3.246 0 0 0 3.249-3.243v-21.244a3.247 3.247 0 0 0-3.249-3.248zm-3.243 21.243H101.06v-14.751h14.723zm109.397-17.044h-89.883a3.245 3.245 0 0 0 0 6.488h89.883a3.245 3.245 0 0 0 0-6.488zm0 12.849h-89.883a3.245 3.245 0 0 0 0 6.488h89.883a3.245 3.245 0 0 0 0-6.488z"/></svg>