<svg enable-background="new 0 0 512 512" height="512" viewBox="0 0 512 512" width="512" xmlns="http://www.w3.org/2000/svg" fill="#ff6952"><path d="m440.847 303.986v-200.386c7.275-.858 12.947-7.055 12.947-14.56 0-8.043-6.581-14.592-14.672-14.592h-366.338c-8.039 0-14.578 6.549-14.578 14.592 0 7.5 5.625 13.692 12.849 14.56v200.39c-7.224.858-12.849 7.013-12.849 14.466 0 8.039 6.539 14.578 14.578 14.578h135.291l-65.307 99.487c-1.411 2.152.127 5.03 2.714 5.03h28.026c1.097 0 2.119-.554 2.714-1.468l29.348-44.746h33.15v42.965c0 1.796 1.453 3.249 3.244 3.249h28.031c1.79 0 3.243-1.453 3.243-3.249v-42.965h33.516l29.344 44.746c.601.914 1.622 1.468 2.719 1.468 1.481 0 29.354 0 28.051 0 2.766 0 4.199-3.202 2.521-5.283l-65.138-99.234h134.869c8.091 0 14.672-6.539 14.672-14.578.002-7.458-5.67-13.612-12.945-14.47zm-363.3-200.274h356.813v200.166h-356.813zm-12.853-14.671c0-4.467 3.628-8.1 8.09-8.1h366.338c4.509 0 8.175 3.633 8.175 8.1 0 4.509-3.666 8.18-8.175 8.18-15.778 0-350.658 0-366.338 0-4.462-.001-8.09-3.671-8.09-8.18zm107.062 342.019h-20.259l64.34-98.025h20.212c-10.771 16.42-49.255 75.103-64.293 98.025zm38.072-46.21 28.894-44.058v44.058zm56.925 46.21h-21.543v-98.025h21.543zm6.487-46.21v-44.61l29.26 44.61zm87.591 46.21h-20.259l-64.294-98.025h20.212zm78.291-104.518c-17.072 0-349.88 0-366.338 0-4.462 0-8.09-3.628-8.09-8.086 0-4.462 3.628-8.091 8.09-8.091h366.338c4.509 0 8.175 3.629 8.175 8.091 0 4.458-3.666 8.086-8.175 8.086z"/><path d="m349.74 177.634c-1.734.459-2.766 2.246-2.297 3.98l11.729 43.654-43.716 11.747c-1.725.464-2.756 2.245-2.287 3.979 6.065 22.565 26.615 38.325 49.969 38.325h.009c33.966 0 58.688-32.433 49.95-65.119-7.322-27.191-35.4-44.014-63.357-36.566zm13.406 95.199h-.009c-19.331 0-36.469-12.356-42.75-30.422l43.603-11.719c1.734-.464 2.757-2.246 2.297-3.975l-11.709-43.538c23.287-4.472 46.097 9.839 52.256 32.7 7.622 28.534-13.931 56.954-43.688 56.954z"/><path d="m351.053 215.275-9.759-39.155c-.432-1.734-2.194-2.798-3.929-2.362-24.188 6.028-38.821 31.354-30.909 55.814.432 1.341 1.688 2.246 3.085 2.246.984 0-1.106.473 39.375-12.675 1.621-.526 2.55-2.218 2.137-3.868zm-39.282 9.16c-4.359-18.643 6.291-37.364 24.047-43.458l8.213 32.935z"/><path d="m415.365 117.962h-59.063c-1.79 0-3.243 1.453-3.243 3.249 0 1.791 1.453 3.244 3.243 3.244h59.063c1.791 0 3.244-1.453 3.244-3.244 0-1.795-1.453-3.249-3.244-3.249z"/><path d="m415.365 130.905h-59.063c-1.79 0-3.243 1.453-3.243 3.244s1.453 3.244 3.243 3.244h59.063c1.791 0 3.244-1.453 3.244-3.244s-1.453-3.244-3.244-3.244z"/><path d="m119.026 127.797h-21.211c-1.791 0-3.244 1.453-3.244 3.244v21.258c0 1.795 1.453 3.249 3.244 3.249h21.211c1.795 0 3.249-1.453 3.249-3.249v-21.258c0-1.791-1.453-3.244-3.249-3.244zm-3.243 21.258h-14.723v-14.766h14.723z"/><path d="m225.18 131.997h-89.883c-1.791 0-3.244 1.453-3.244 3.244s1.453 3.244 3.244 3.244h89.883c1.791 0 3.244-1.453 3.244-3.244s-1.454-3.244-3.244-3.244z"/><path d="m225.18 144.841h-89.883c-1.791 0-3.244 1.453-3.244 3.248 0 1.791 1.453 3.244 3.244 3.244h89.883c1.791 0 3.244-1.453 3.244-3.244-.001-1.795-1.454-3.248-3.244-3.248z"/><path d="m119.026 167.95h-21.211c-1.791 0-3.244 1.453-3.244 3.244v21.168c0 1.791 1.453 3.244 3.244 3.244h21.211c1.795 0 3.249-1.453 3.249-3.244v-21.168c0-1.791-1.453-3.244-3.249-3.244zm-3.243 21.164h-14.723v-14.672h14.723z"/><path d="m225.18 172.146h-89.883c-1.791 0-3.244 1.453-3.244 3.244 0 1.795 1.453 3.249 3.244 3.249h89.883c1.791 0 3.244-1.453 3.244-3.249-.001-1.791-1.454-3.244-3.244-3.244z"/><path d="m225.18 184.994h-89.883c-1.791 0-3.244 1.453-3.244 3.249 0 1.791 1.453 3.244 3.244 3.244h89.883c1.791 0 3.244-1.453 3.244-3.244-.001-1.796-1.454-3.249-3.244-3.249z"/><path d="m119.026 208.103h-21.211c-1.791 0-3.244 1.453-3.244 3.244v21.164c0 1.795 1.453 3.249 3.244 3.249h21.211c1.795 0 3.249-1.453 3.249-3.249v-21.164c0-1.791-1.453-3.244-3.249-3.244zm-3.243 21.164h-14.723v-14.676h14.723z"/><path d="m225.18 212.209h-89.883c-1.791 0-3.244 1.453-3.244 3.244s1.453 3.244 3.244 3.244h89.883c1.791 0 3.244-1.453 3.244-3.244s-1.454-3.244-3.244-3.244z"/><path d="m225.18 225.072h-89.883c-1.791 0-3.244 1.453-3.244 3.244 0 1.795 1.453 3.249 3.244 3.249h89.883c1.791 0 3.244-1.453 3.244-3.249-.001-1.791-1.454-3.244-3.244-3.244z"/><path d="m119.026 248.177h-21.211c-1.791 0-3.244 1.453-3.244 3.248v21.244c0 1.79 1.453 3.243 3.244 3.243h21.211c1.795 0 3.249-1.453 3.249-3.243v-21.244c0-1.795-1.453-3.248-3.249-3.248zm-3.243 21.243h-14.723v-14.751h14.723z"/><path d="m225.18 252.376h-89.883c-1.791 0-3.244 1.453-3.244 3.244s1.453 3.244 3.244 3.244h89.883c1.791 0 3.244-1.453 3.244-3.244-.001-1.79-1.454-3.244-3.244-3.244z"/><path d="m225.18 265.225h-89.883c-1.791 0-3.244 1.453-3.244 3.244s1.453 3.244 3.244 3.244h89.883c1.791 0 3.244-1.453 3.244-3.244s-1.454-3.244-3.244-3.244z"/></svg>