<svg height="512" width="512" xmlns="http://www.w3.org/2000/svg" fill="#ff6952"><path d="M184.969 241.672c60.53 0 109.775-49.721 109.775-110.836S245.5 20 184.969 20 75.194 69.721 75.194 130.836s49.245 110.836 109.775 110.836zm0-201.672c49.502 0 89.775 40.749 89.775 90.836s-40.273 90.836-89.775 90.836-89.775-40.749-89.775-90.836S135.467 40 184.969 40zM400 250c-29.314 0-56.926 12.849-75.825 34.824C309.71 273.867 292.154 268 273.685 268h-170C57.541 268 20 305.254 20 351.397V490c0 5.522 4.477 10 10 10h317.368c5.522 0 9.632-4.478 9.632-10v-49.705c13.336 6.373 27.929 9.705 43 9.705 55.141 0 100-44.859 100-100s-44.859-100-100-100zm-63 230h-60v-53.686c0-5.522-4.478-10-10-10s-10 4.478-10 10V480H115v-53.686c0-5.522-4.477-10-10-10s-10 4.478-10 10V480H40V351.397C40 316.281 68.568 288 103.684 288h170c14.33 0 27.853 4.563 38.98 13.243-24.519 43.616-12.573 96.361 24.335 126.709V480zm63-50c-16.924 0-33.099-5.222-46.777-15.099-34.805-25.138-43.998-73.876-19.274-109.97C349.352 282.487 374.147 270 400 270c44.112 0 80 35.888 80 80s-35.888 80-80 80z"/><path d="M450 320h-20v-20c0-5.522-4.478-10-10-10h-40c-5.522 0-10 4.478-10 10v20h-20c-5.522 0-10 4.478-10 10v40c0 5.522 4.478 10 10 10h20v20c0 5.522 4.478 10 10 10h40c5.522 0 10-4.478 10-10v-20h20c5.522 0 10-4.478 10-10v-40c0-5.522-4.478-10-10-10zm-10 40h-20c-5.522 0-10 4.478-10 10v20h-20v-20c0-5.522-4.478-10-10-10h-20v-20h20c5.522 0 10-4.478 10-10v-20h20v20c0 5.522 4.478 10 10 10h20z"/></svg>