<svg enable-background="new 0 0 512 512" height="512" viewBox="0 0 512 512" width="512" xmlns="http://www.w3.org/2000/svg" fill="#ff6952"><path d="m423 20h-326c-42.458 0-77 34.542-77 77v326c0 42.458 34.542 77 77 77h326c42.458 0 77-34.542 77-77v-326c0-42.458-34.542-77-77-77zm57 403c0 31.43-25.57 57-57 57h-326c-31.43 0-57-25.57-57-57v-326c0-31.43 25.57-57 57-57h326c31.43 0 57 25.57 57 57z"/><path d="m373 70h-226c-42.458 0-77 34.542-77 77v226c0 42.458 34.542 77 77 77h226c42.458 0 77-34.542 77-77v-226c0-42.458-34.542-77-77-77zm57 303c0 31.43-25.57 57-57 57h-226c-31.43 0-57-25.57-57-57v-226c0-31.43 25.57-57 57-57h226c31.43 0 57 25.57 57 57z"/><path d="m260 170c-49.626 0-90 40.374-90 90s40.374 90 90 90 90-40.374 90-90-40.374-90-90-90zm0 160c-38.598 0-70-31.402-70-70s31.402-70 70-70 70 31.402 70 70-31.402 70-70 70z"/><path d="m260 218c-23.159 0-42 18.841-42 42s18.841 42 42 42 42-18.841 42-42-18.841-42-42-42zm0 64c-12.131 0-22-9.869-22-22s9.869-22 22-22 22 9.869 22 22-9.869 22-22 22z"/><path d="m370 118c-17.645 0-32 14.355-32 32s14.355 32 32 32 32-14.355 32-32-14.355-32-32-32zm0 44c-6.617 0-12-5.383-12-12s5.383-12 12-12 12 5.383 12 12-5.383 12-12 12z"/></svg>