<svg height="512" width="512" xmlns="http://www.w3.org/2000/svg"><path d="M247.056 105.991c1.795 0 3.249-1.453 3.249-3.244s-1.453-3.244-3.249-3.244c-77.306 0-140.203 62.897-140.203 140.203 0 1.795 1.453 3.249 3.244 3.249s3.244-1.453 3.244-3.249c0-73.729 59.986-133.715 133.715-133.715z"/><path d="M408.086 104.087l18.169-19.439c2.091-2.245.183-5.874-2.846-5.428l-20.386 2.991 1.631-20.499c.239-3.056-3.511-4.711-5.605-2.475-18.76 20.442-18.863 19.374-19.031 21.403l-1.856 23.367-18.793 18.793c-29.166-28.031-68.762-45.295-112.313-45.295-89.433 0-162.192 72.764-162.192 162.201 0 62.447 35.475 116.757 87.323 143.854L132.4 448.857c-1.495 2.447.708 5.504 3.511 4.848l31.795-7.444a3.255 3.255 0 0 0 2.016-1.448l30.914-49.688c29.85 8.935 61.641 8.981 91.135.511l14.798 23.827h-93.623a3.246 3.246 0 1 0 0 6.492H310.6l11.715 18.857a3.223 3.223 0 0 0 2.016 1.448c33.618 7.843 31.823 7.533 32.535 7.533 2.742 0 4.191-3.108 2.611-5.198l-39.131-64.215c97.406-49.547 118.996-178.561 43.612-256.992l18.881-18.881c24.216-3.801 23.874-2.952 25.247-4.42zm-243.169 336.16l-22.945 5.372 35.555-58.346a155.686 155.686 0 0 0 16.346 6.432zm162.202 0l-11.325-18.234a3.212 3.212 0 0 0-1.125-1.805L298.206 393.7a158.399 158.399 0 0 0 16.304-6.427l35.555 58.346zM404.12 98.823l-14.118 2.077 11.063-11.84 14.118-2.072zm-6.67-28.368l-1.13 14.17c-2.639 2.827-8.541 9.141-11.049 11.827l1.125-14.166zm5.311 169.251c0 85.861-69.849 155.714-155.705 155.714-85.852 0-155.7-69.853-155.7-155.714 0-85.856 69.848-155.709 155.7-155.709 41.766 0 79.735 16.533 107.728 43.392l-28.664 28.664c-20.648-19.505-48.478-31.486-79.064-31.486-63.497 0-115.158 51.651-115.158 115.139 0 63.525 51.661 115.21 115.158 115.21 63.516 0 115.186-51.685 115.186-115.21 0-30.586-11.995-58.425-31.533-79.068l28.664-28.66c26.856 27.989 43.388 65.967 43.388 107.728zm-155.705 3.249c.834 0 1.664-.319 2.297-.952l20.25-20.25c14.953 18.75 1.631 46.786-22.547 46.786-15.9 0-28.837-12.933-28.837-28.833 0-24.173 28.045-37.5 46.795-22.542l-20.25 20.25c-2.044 2.044-.572 5.541 2.292 5.541zm22.571-30.403c-22.88-19.05-57.9-2.719-57.9 27.154 0 19.481 15.853 35.325 35.33 35.325 29.892 0 46.196-35.025 27.16-57.896l23.044-23.043c10.964 12.061 17.657 28.069 17.657 45.614 0 37.421-30.44 67.866-67.861 67.866-37.416 0-67.856-30.445-67.856-67.866 0-37.42 30.44-67.865 67.856-67.865 17.545 0 33.558 6.693 45.614 17.662zm27.633-27.638c-13.238-12.136-30.867-19.561-50.204-19.561-40.992 0-74.344 33.356-74.344 74.353 0 41.002 33.352 74.358 74.344 74.358 40.997 0 74.348-33.356 74.348-74.358 0-19.331-7.42-36.961-19.556-50.198l24.271-24.276c18.361 19.462 29.635 45.675 29.635 74.475 0 59.948-48.765 108.718-108.699 108.718-59.92 0-108.67-48.77-108.67-108.718 0-59.911 48.75-108.651 108.67-108.651 28.795 0 55.003 11.255 74.475 29.587z"/></svg>