<svg height="512" width="512" xmlns="http://www.w3.org/2000/svg" fill="#ff6952"><path d="M93.784 428.661a3.828 3.828 0 0 0 3.459 2.193h.004a3.831 3.831 0 0 0 3.459-2.185l19.867-41.834c.703-1.49.234 10.602.371-270.222 0-8.023-6.529-14.547-14.548-14.547H88.155c-7.996 0-14.501 6.524-14.501 14.547.005 280.008-.014 268.573.014 268.891.108 1.295-.567-.833 20.116 43.157zm19.497-70.012h-12.205V166.378h12.205zm-31.964 0V166.378h12.101v192.271zm31.964-199.929H81.317v-8.736h31.964zm0 225.604l-16.024 33.754-15.939-33.745v-18.016h31.964v18.007zm-31.964-267.71c0-3.796 3.07-6.889 6.838-6.889h18.241c3.796 0 6.885 3.093 6.885 6.889v25.712H81.317zm396.456-46.146a3.832 3.832 0 0 0-3.829-3.834h-31.125V45.656a3.83 3.83 0 0 0-3.829-3.824h-13.184c-1.885-14.454-14.3-25.656-29.283-25.656-14.961 0-27.348 11.202-29.231 25.656h-11.656c-1.885-14.454-14.295-25.656-29.278-25.656-14.984 0-27.399 11.202-29.288 25.656h-11.651c-1.884-14.454-14.276-25.656-29.231-25.656-14.956 0-27.348 11.202-29.232 25.656h-11.698c-1.889-14.454-14.304-25.656-29.288-25.656-14.96 0-27.348 11.202-29.231 25.656h-10.396a3.83 3.83 0 0 0-3.834 3.824v376.856a3.83 3.83 0 0 0 3.834 3.824h40.419v32.854a3.831 3.831 0 0 0 3.829 3.834c12.87 0 272.739.104 283.354.104a3.824 3.824 0 0 0 3.829-3.825l-.001-388.835zm-7.658 3.834v323.464l-27.296.787V74.302zm-34.954 143.181h-284.99v-38.066h284.99zm0 7.659v37.963h-284.99v-37.963zm0 45.621v38.066h-284.99v-38.066zm0-99.013h-284.99v-38.057h284.99zm-284.99 144.737h284.99v38.066h-284.99zm269.542 90.399l44.74-1.293-43.456 43.381c-.201-6.731.601 19.525-1.284-42.088zm-23.19-383.042c10.751 0 19.712 7.771 21.531 17.988h-43.016c1.819-10.218 10.762-17.988 21.485-17.988zm-70.166 0c10.751 0 19.708 7.771 21.53 17.988h-43.066c1.819-10.218 10.784-17.988 21.536-17.988zm-70.17 0c10.724 0 19.666 7.771 21.479 17.988h-42.959c1.814-10.218 10.756-17.988 21.48-17.988zm-70.218 0c10.751 0 19.717 7.771 21.536 17.988h-43.02c1.818-10.218 10.76-17.988 21.484-17.988zm21.535 25.646c-1.818 10.208-10.784 17.988-21.536 17.988a3.83 3.83 0 1 0 0 7.658c14.984 0 27.399-11.192 29.288-25.646h62.41c-1.813 10.208-10.756 17.988-21.479 17.988a3.829 3.829 0 0 0 0 7.658c14.955 0 27.348-11.192 29.231-25.646h62.47c-1.822 10.208-10.779 17.988-21.53 17.988a3.829 3.829 0 0 0 0 7.658c14.983 0 27.394-11.192 29.278-25.646h62.419c-1.819 10.208-10.78 17.988-21.531 17.988a3.83 3.83 0 1 0 0 7.658c14.983 0 27.398-11.192 29.283-25.646h9.354v76.545h-284.99V49.49zm-57.333 312.731h284.99v36.501c-20.247.638-20.046.459-21.208 1.068a3.93 3.93 0 0 0-1.49 1.425c-.979 1.753-.356 1.612-.057 17.463H150.171zm44.253 64.115h218.217l.891 29.114-219.107-.084v-29.03zm230.928 29.114l44.764-44.684v44.703z"/><path d="M146.661 437.913h-91.36c-11.614 0-21.067 9.448-21.067 21.071 0 11.614 9.454 21.072 21.067 21.072h86.097c7.939 0 14.397-6.44 14.397-14.342 0-7.968-6.458-14.454-14.397-14.454H95.884a3.831 3.831 0 0 0-3.829 3.834 3.832 3.832 0 0 0 3.829 3.834h45.514c3.716 0 6.735 3.036 6.735 6.786 0 3.675-3.019 6.674-6.735 6.674H55.301c-7.391 0-13.409-6.009-13.409-13.404s6.018-13.413 13.409-13.413h91.36c11.736 0 21.283 9.552 21.283 21.297s-9.547 21.287-21.283 21.287H38.278a3.831 3.831 0 0 0-3.829 3.834 3.83 3.83 0 0 0 3.829 3.833H146.66c15.958 0 28.946-12.991 28.946-28.954 0-15.964-12.987-28.955-28.945-28.955zm34.204-326.295H399.78a3.833 3.833 0 1 0 0-7.667H180.865a3.831 3.831 0 0 0-3.829 3.834 3.831 3.831 0 0 0 3.829 3.833zm0 45.724H399.78a3.833 3.833 0 1 0 0-7.667H180.865a3.83 3.83 0 0 0-3.829 3.833 3.831 3.831 0 0 0 3.829 3.834zm0 45.724H399.78a3.83 3.83 0 0 0 3.834-3.824 3.833 3.833 0 0 0-3.834-3.834H180.865a3.829 3.829 0 1 0 0 7.658zm0 45.622H399.78a3.83 3.83 0 0 0 3.834-3.825 3.832 3.832 0 0 0-3.834-3.833H180.865a3.829 3.829 0 0 0 0 7.658zm0 45.724H399.78a3.833 3.833 0 0 0 3.834-3.834 3.831 3.831 0 0 0-3.834-3.824H180.865a3.83 3.83 0 0 0 0 7.658zm218.915 38.067H180.865c-2.114 0-3.829 1.716-3.829 3.834s1.715 3.834 3.829 3.834H399.78a3.833 3.833 0 1 0 0-7.668zm3.834 49.558a3.833 3.833 0 0 0-3.834-3.834H180.865a3.831 3.831 0 0 0-3.829 3.834 3.83 3.83 0 0 0 3.829 3.833H399.78a3.832 3.832 0 0 0 3.834-3.833z"/></svg>