<svg xmlns="http://www.w3.org/2000/svg" id="Layer_1" data-name="Layer 1" viewBox="0 0 595.28 450"><defs><style>.cls-1{fill:#ed6957;}.cls-2{fill:#010101;}</style></defs><title>QuickFox Logo</title><polygon class="cls-1" points="132.09 48.23 178.03 157.16 224.79 48.16 178.44 85.6 132.09 48.23"/><polygon points="188.04 94.23 132.75 49.62 132.75 92.38 131.42 92.38 131.42 48.23 132.5 47.71 188.87 93.19 188.04 94.23"/><polygon points="168.56 94.43 167.73 93.39 224.38 47.65 225.46 48.16 225.46 92.76 224.13 92.76 224.13 49.55 168.56 94.43"/><polygon points="178.42 157.7 177.63 157.7 141.19 130.63 141.98 129.56 178.03 156.34 214.73 129.56 215.51 130.63 178.42 157.7"/><path d="M178,157.83h0a.65.65,0,0,1-.61-.41L131.47,48.49a.67.67,0,0,1,.22-.79.65.65,0,0,1,.81,0l45.94,37,45.94-37.09a.65.65,0,0,1,.81,0,.66.66,0,0,1,.21.79l-46.76,109A.66.66,0,0,1,178,157.83ZM133.72,50.4,178,155.47,223.13,50.36,178.86,86.12a.69.69,0,0,1-.84,0Z"/><polygon points="167.5 149.34 188.75 149.34 178.03 157.16 167.5 149.34"/><path d="M235.05,94s-13.76-3.8-20.14-4.28S201.52,88.44,192.4,91c-9,2.51-3.86,3.34-14,3.37s-5-.86-14-3.37-16.12-1.75-22.5-1.28S121.83,94,121.83,94c-.45,4.76-.18,4,.82,5.93s1.44,10.39,2.19,14.3c1.09,5.74,4,11.39,8.11,14.4s11,3.55,21.23,2.55c7.84-.77,10.12-3.81,12.94-8.11,2.62-4,5.46-13.67,6.83-19.32a4.51,4.51,0,0,1,9,0c1.37,5.65,4.21,15.31,6.83,19.32,2.82,4.3,5.1,7.34,12.94,8.11,10.2,1,17.13.45,21.23-2.55s7-8.66,8.11-14.4c.74-3.91,1.18-12.39,2.18-14.3S235.5,98.75,235.05,94Zm-64.29,9.75c-1.37,9.57-4.37,18.77-8.29,21.69s-11.75,4.19-20.41,3.28-11.66-7-13.39-12.58a41,41,0,0,1-1.92-16.21s1-5,9.39-7.2A58.16,58.16,0,0,1,159,91.9C165,93.08,172.13,94.18,170.76,103.74Zm57.45,12.39c-1.73,5.56-4.74,11.67-13.39,12.58s-16.49-.37-20.41-3.28-6.93-12.12-8.29-21.69,5.74-10.66,11.75-11.84a58.16,58.16,0,0,1,22.87.82c8.38,2.18,9.39,7.2,9.39,7.2A41,41,0,0,1,228.21,116.13Z"/><path class="cls-2" d="M277.42,135.33H263.25l-.31-.31V112l.31-.31h3.29l.32.31v19.46h10.58l.29.37V135Zm-13.86-.62h13.55V132H266.24V112.26h-2.68Z"/><path class="cls-2" d="M305.74,135.33h-3.55l-.33-.36-2.06-5.08H290l-2.13,5.19-.26.25h-3.55l-.41-.4,9.38-23,.26-.25h3.22l.32.35,9.31,22.94Zm-3.3-.62h2.94l-9.13-22.45-2.74,0-9.1,22.42,3,0,2.2-5.41h10.64Zm-3.3-8.12h-8.48l4.24-10.88Zm-7.58-.61h6.68l-3.34-8.57Z"/><path class="cls-2" d="M322.1,135.33h-8l-.35-.35V112l.35-.34h5.57c4.76,0,7.72,2.39,7.72,6.24a4.63,4.63,0,0,1-1.66,3.7,6.6,6.6,0,0,1,4.46,6.35C330.15,132.15,326.69,135.33,322.1,135.33Zm-7.77-.62h7.77c4.24,0,7.44-2.91,7.44-6.78,0-2.86-1.59-4.92-4.58-6l-.56-.19.49-.35a4.08,4.08,0,0,0,1.84-3.54c0-3.47-2.72-5.62-7.1-5.62h-5.3ZM322.1,132H317v-8.2h5.09a4,4,0,0,1,4.26,4.1A3.92,3.92,0,0,1,322.1,132Zm-4.47-.62h4.47c2.28,0,3.65-1.3,3.65-3.48a3.38,3.38,0,0,0-3.65-3.48h-4.47Zm2-10.25H317v-6.23h2.62c2.65,0,3.93,1,3.93,2.95C323.56,120.15,322.35,121.16,319.63,121.16Zm-2-.62h2c2.38,0,3.31-.75,3.31-2.66,0-1.63-1-2.33-3.31-2.33h-2Z"/><path class="cls-2" d="M344.52,135.82a7.42,7.42,0,0,1-7.21-5l-.09-.21,2.74-2.19h.64l.08.18c1,2.21,2.13,3.11,3.84,3.11a3.34,3.34,0,0,0,3.31-3.64c0-1.93-2-2.93-4.23-4.08-2.73-1.39-5.82-3-5.82-6.63a6.26,6.26,0,0,1,6.41-6.25,6.89,6.89,0,0,1,6,3.62l.14.24-2.77,2H347l-.09-.11c-1-1.19-1.58-1.71-2.73-1.71a2,2,0,0,0-2,2.17c0,1.11,1.54,1.85,3.33,2.71,3,1.44,6.72,3.23,6.72,8A7.72,7.72,0,0,1,344.52,135.82Zm-6.55-5a6.81,6.81,0,0,0,6.55,4.37,7.1,7.1,0,0,0,7.1-7.1c0-4.38-3.53-6.08-6.37-7.44-2-1-3.68-1.77-3.68-3.27a2.62,2.62,0,0,1,2.62-2.79c1.41,0,2.13.69,3.11,1.82h.08l2.16-1.59a6.26,6.26,0,0,0-5.35-3.07,5.65,5.65,0,0,0-5.79,5.63c0,3.28,2.79,4.7,5.48,6.07,2.35,1.2,4.57,2.33,4.57,4.64a3.92,3.92,0,0,1-3.93,4.26c-1.91,0-3.21-1-4.32-3.29h0Z"/><path class="cls-2" d="M286.37,96.77l-1.65,1.94h-.19L281.38,96a13.31,13.31,0,1,1,4.88-10.23,13.07,13.07,0,0,1-2.9,8.25l3,2.6Zm-8.07-7L281,92a10.89,10.89,0,0,0,2-6.27,10.32,10.32,0,1,0-10.3,10.41A9.81,9.81,0,0,0,279,94l-2.53-2.16v-.19l1.69-1.9Z"/><path class="cls-2" d="M296.26,72.9l.19.18v13.6c0,6.09,3.48,9.46,8.1,9.46s8.14-3.37,8.14-9.46V73.08l.18-.18h2.46l.18.18V87.2c0,7.51-4.73,11.91-11,11.91s-10.93-4.4-10.93-11.91V73.08l.18-.18Z"/><path class="cls-2" d="M326.65,72.9l.19.18v25.3l-.19.18H324.2l-.19-.18V73.08l.19-.18Z"/><path class="cls-2" d="M356.43,78.51a13.66,13.66,0,0,0-8.62-3.19,10.41,10.41,0,0,0,0,20.82A13.66,13.66,0,0,0,356.43,93l.18.19v3.22a14.66,14.66,0,0,1-8.8,2.75,13.38,13.38,0,1,1,0-26.76,14.66,14.66,0,0,1,8.8,2.75v3.22Z"/><path class="cls-2" d="M367,72.9l.19.18v9.17l10.92-9.17.37-.18H382l.18.18-13,10.82,14.37,14.48-.18.18h-3.56l-.36-.18-12.28-12.5v12.5l-.19.18h-2.46l-.18-.18V73.08l.18-.18Z"/><path class="cls-2" d="M416,72.9l.19.18v2.45l-.19.19H404.05V83h9l.18.18v2.49l-.18.19h-9v12.5l-.19.18h-2.45l-.19-.18V73.08l.19-.18Z"/><path class="cls-2" d="M446.8,85.73a13.57,13.57,0,1,1-13.57-13.38A13.5,13.5,0,0,1,446.8,85.73Zm-23.91,0a10.32,10.32,0,1,0,10.34-10.41A10.39,10.39,0,0,0,422.89,85.73Z"/><path class="cls-2" d="M453.8,72.9l.36.18,7.52,9.61,7.52-9.61.36-.18h3.27l.18.18-9.5,12L474,98.38l-.18.18h-3.23l-.37-.18-8.54-10.93-8.51,10.93-.36.18h-3.23l-.18-.18,10.48-13.31-9.49-12,.18-.18Z"/><circle class="cls-2" cx="388.67" cy="84.95" r="1.92"/></svg>