<svg viewBox="0 0 352.38 110.36" xmlns="http://www.w3.org/2000/svg"><path d="m10.47.76 45.94 108.93 46.76-109-46.35 37.44z" fill="#ed6957"/><path d="m66.42 46.76-55.29-44.61v42.76h-1.33v-44.15l1.08-.52 56.37 45.48z"/><path d="m46.94 46.96-.83-1.04 56.65-45.74 1.08.51v44.6h-1.33v-43.21z"/><path d="m56.8 110.23h-.79l-36.44-27.07.79-1.07 36.05 26.78 36.7-26.78.78 1.07z"/><path d="m56.38 110.36a.65.65 0 0 1 -.61-.41l-45.92-108.95a.68.68 0 0 1 .22-.79.65.65 0 0 1 .81 0l45.94 37 45.94-37.07a.65.65 0 0 1 .81 0 .67.67 0 0 1 .21.79l-46.78 109a.66.66 0 0 1 -.62.43zm-44.28-107.43 44.28 105.07 45.13-105.11-44.27 35.76a.69.69 0 0 1 -.84 0z"/><path d="m45.88 101.87h21.25l-10.72 7.82z"/><path d="m113.43 46.53s-13.76-3.8-20.14-4.28-13.39-1.25-22.51 1.28-3.86 3.34-14 3.37-5-.86-14-3.37-16.12-1.75-22.5-1.28-20.07 4.28-20.07 4.28c-.45 4.76-.18 4 .82 5.93s1.44 10.39 2.19 14.3c1.09 5.74 4 11.39 8.11 14.4s11 3.55 21.23 2.55c7.84-.77 10.12-3.81 12.94-8.11 2.62-4 5.46-13.67 6.83-19.32a4.51 4.51 0 0 1 9 0c1.37 5.65 4.21 15.31 6.83 19.32 2.82 4.3 5.1 7.34 12.94 8.11 10.2 1 17.13.45 21.23-2.55s7-8.66 8.11-14.4c.74-3.91 1.18-12.39 2.18-14.3s1.26-1.18.81-5.93zm-64.29 9.75c-1.37 9.57-4.37 18.77-8.29 21.72s-11.75 4.16-20.41 3.25-11.66-7-13.39-12.58a41 41 0 0 1 -1.92-16.21s1-5 9.39-7.2a58.1 58.1 0 0 1 22.86-.83c6 1.18 13.13 2.28 11.76 11.84zm57.45 12.39c-1.73 5.56-4.74 11.67-13.39 12.58s-16.49-.37-20.41-3.25-6.93-12.15-8.29-21.72 5.74-10.66 11.75-11.84a58.33 58.33 0 0 1 22.87.82c8.38 2.18 9.39 7.2 9.39 7.2a41 41 0 0 1 -1.92 16.2z"/><g fill="#010101"><path d="m155.8 87.86h-14.17l-.31-.31v-23l.31-.31h3.29l.32.31v19.45h10.58l.29.37v3.17zm-13.86-.62h13.55v-2.71h-10.87v-19.74h-2.68z"/><path d="m184.12 87.86h-3.55l-.33-.36-2.06-5.08h-9.8l-2.13 5.19-.26.25h-3.55l-.41-.4 9.38-23 .26-.25h3.22l.32.35 9.31 22.94zm-3.3-.62h2.94l-9.13-22.45h-2.74l-9.1 22.42h3l2.21-5.41h10.64zm-3.3-8.12h-8.52l4.24-10.88zm-7.58-.61h6.68l-3.34-8.57z"/><path d="m200.48 87.86h-8l-.35-.35v-23l.35-.34h5.57c4.76 0 7.72 2.39 7.72 6.24a4.62 4.62 0 0 1 -1.66 3.7 6.59 6.59 0 0 1 4.46 6.35c-.04 4.22-3.5 7.4-8.09 7.4zm-7.77-.62h7.77c4.24 0 7.44-2.91 7.44-6.78 0-2.86-1.59-4.92-4.58-6l-.56-.19.49-.35a4.06 4.06 0 0 0 1.84-3.54c0-3.47-2.72-5.62-7.1-5.62h-5.3zm7.77-2.71h-5.1v-8.2h5.09a4 4 0 0 1 4.25 3.73v.37a3.92 3.92 0 0 1 -3.72 4.11 3.13 3.13 0 0 1 -.52-.01zm-4.48-.62h4.47c2.28 0 3.65-1.3 3.65-3.48a3.38 3.38 0 0 0 -3.27-3.49h-4.85zm2-10.25h-2.63v-6.23h2.63c2.65 0 3.93 1 3.93 2.95 0 2.3-1.2 3.31-3.92 3.31zm-2-.66h2c2.38 0 3.31-.75 3.31-2.66 0-1.63-1-2.33-3.31-2.33h-2z"/><path d="m222.9 88.35a7.42 7.42 0 0 1 -7.21-5l-.09-.21 2.74-2.14h.66l.08.18c1 2.21 2.13 3.11 3.84 3.11a3.33 3.33 0 0 0 3.32-3.35 2.81 2.81 0 0 0 0-.29c0-1.93-2-2.93-4.23-4.08-2.73-1.39-5.82-3-5.82-6.63a6.26 6.26 0 0 1 6.27-6.25h.14a6.9 6.9 0 0 1 6 3.62l.14.24-2.77 2h-.56l-.09-.11c-1-1.19-1.58-1.71-2.73-1.71a2 2 0 0 0 -2 2v.18c0 1.11 1.54 1.85 3.33 2.71 3 1.44 6.72 3.23 6.72 8a7.72 7.72 0 0 1 -7.64 7.73zm-6.55-5a6.81 6.81 0 0 0 6.55 4.37 7.1 7.1 0 0 0 7.1-7.1c0-4.38-3.53-6.08-6.37-7.44-2-1-3.68-1.77-3.68-3.27a2.62 2.62 0 0 1 2.45-2.78h.17c1.41 0 2.13.69 3.11 1.82h.08l2.16-1.59a6.26 6.26 0 0 0 -5.35-3.07 5.65 5.65 0 0 0 -5.79 5.51v.12c0 3.28 2.79 4.7 5.48 6.07 2.35 1.2 4.57 2.33 4.57 4.64a3.92 3.92 0 0 1 -3.56 4.25h-.37c-1.91 0-3.21-1-4.32-3.29z"/><path d="m164.75 49.3-1.65 1.94h-.19l-3.15-2.71a13.31 13.31 0 1 1 4.88-10.23 13 13 0 0 1 -2.9 8.25l3 2.6zm-8.07-7 2.7 2.23a10.82 10.82 0 0 0 2-6.27 10.32 10.32 0 1 0 -10.3 10.41 9.79 9.79 0 0 0 6.3-2.14l-2.53-2.16v-.19l1.69-1.9z"/><path d="m174.64 25.43.19.18v13.6c0 6.09 3.48 9.46 8.1 9.46s8.14-3.37 8.14-9.46v-13.6l.18-.18h2.46l.18.18v14.12c0 7.51-4.73 11.91-11 11.91s-10.89-4.4-10.89-11.91v-14.12l.18-.18z"/><path d="m205 25.43.19.18v25.3l-.19.18h-2.45l-.19-.18v-25.3l.19-.18z"/><path d="m234.81 31a13.66 13.66 0 0 0 -8.62-3.19 10.41 10.41 0 1 0 0 20.82 13.63 13.63 0 0 0 8.62-3.14l.18.19v3.22a14.61 14.61 0 0 1 -8.8 2.75 13.38 13.38 0 1 1 0-26.76 14.68 14.68 0 0 1 8.8 2.75v3.26z"/><path d="m245.38 25.43.19.18v9.17l10.92-9.17.37-.18h3.52l.18.18-13 10.82 14.37 14.48-.18.18h-3.56l-.36-.18-12.28-12.5v12.5l-.19.18h-2.46l-.18-.18v-25.3l.18-.18z"/><path d="m294.38 25.43.19.18v2.45l-.19.19h-11.95v7.28h9l.18.18v2.49l-.18.19h-9v12.5l-.19.18h-2.45l-.19-.18v-25.28l.19-.18z"/><path d="m325.18 38.26a13.57 13.57 0 1 1 -13.76-13.38h.19a13.5 13.5 0 0 1 13.57 13.38zm-23.91 0a10.32 10.32 0 1 0 10.34-10.41 10.32 10.32 0 0 0 -10.34 10.41z"/><path d="m332.18 25.43.36.18 7.52 9.61 7.52-9.61.36-.18h3.27l.18.18-9.5 12 10.49 13.3-.18.18h-3.2l-.37-.18-8.57-10.91-8.51 10.93-.36.18h-3.19l-.18-.18 10.44-13.33-9.49-12 .18-.18z"/><circle cx="267.05" cy="37.48" r="1.92"/></g></svg>