<svg xmlns="http://www.w3.org/2000/svg" viewBox="0 0 113.66 110.36"><defs><style>.cls-1{fill:#ed6957;}</style></defs><title>Asset 1qfl-logo-notext</title><g id="Layer_2" data-name="Layer 2"><g id="Layer_1-2" data-name="Layer 1"><polygon class="cls-1" points="10.49 0.76 56.44 109.69 103.2 0.69 56.85 38.13 10.49 0.76"/><polygon points="66.45 46.76 11.16 2.15 11.16 44.91 9.83 44.91 9.83 0.76 10.91 0.24 67.28 45.72 66.45 46.76"/><polygon points="46.97 46.96 46.14 45.92 102.78 0.17 103.87 0.69 103.87 45.29 102.54 45.29 102.54 2.08 46.97 46.96"/><polygon points="56.83 110.23 56.04 110.22 19.6 83.15 20.39 82.09 56.44 108.87 93.14 82.08 93.92 83.16 56.83 110.23"/><path d="M56.44,110.36h0a.7.7,0,0,1-.61-.41L9.83,1a.66.66,0,0,1,.39-.85.64.64,0,0,1,.61.08l45.94,37L102.7.14a.66.66,0,0,1,.82,0,.64.64,0,0,1,.21.79L57,109.93A.67.67,0,0,1,56.44,110.36ZM12.13,2.93,56.44,108l45.1-105.1L57.26,38.64a.65.65,0,0,1-.83,0Z"/><polygon points="45.91 101.87 67.16 101.87 56.44 109.69 45.91 101.87"/><path d="M113.45,46.52S99.7,42.71,93.32,42.24,79.92,41,70.81,43.51s-3.86,3.35-14,3.37-5-.85-14-3.37-16.12-1.75-22.5-1.27S.21,46.52.21,46.52c-.45,4.76-.18,4,.82,5.92S2.47,62.83,3.22,66.75c1.09,5.74,4,11.39,8.11,14.39s11,3.56,21.23,2.55c7.84-.77,10.12-3.8,12.93-8.1,2.63-4,5.47-13.67,6.84-19.32a4.51,4.51,0,0,1,9,0c1.36,5.65,4.21,15.31,6.83,19.32,2.81,4.3,5.1,7.33,12.94,8.1,10.2,1,17.13.46,21.23-2.55s7-8.65,8.11-14.39c.74-3.92,1.18-12.39,2.18-14.31S113.91,51.27,113.45,46.52ZM49.21,56.27C47.84,65.84,44.84,75,40.92,78s-11.76,4.2-20.41,3.28-11.66-7-13.39-12.57A40.93,40.93,0,0,1,5.21,52.44s1-5,9.39-7.19a58,58,0,0,1,22.87-.82C43.43,45.61,50.54,46.7,49.21,56.27Zm57.45,12.39c-1.77,5.61-4.78,11.66-13.45,12.61S76.72,80.91,72.8,78s-6.93-12.11-8.29-21.68,5.74-10.66,11.75-11.84a58,58,0,0,1,22.87.82c8.38,2.18,9.38,7.19,9.38,7.19a40.9,40.9,0,0,1-1.89,16.18Z"/></g></g></svg>