<svg data-name="Layer 1" xmlns="http://www.w3.org/2000/svg" width="860" height="653"><path d="M218.483 65.737c6.474 8.635 13.459 18.517 20.352 29.287l.984-49.676.543.347a96.958 96.958 0 0 0-23.984-12.821l.543.302zm-2.651-33.054c-8.878-3.028-17.492-4.032-25.366-2.628-.41.073-.813.157-1.215.243 2.001 2.146 13.66 14.822 28.094 33.927zM267.78 149.32q1.592 3.802 3.028 7.551l18.221-53.8.524.5q-3.227-6.07-6.842-11.803l-14.683 57.771zm-10.64-22.687l9.522-56.405.54.433a152.422 152.422 0 0 0-26.288-24.565l-1.004 50.623q9.623 15.185 17.23 29.914zm-96.76-39.912l-.224-.689a127.27 127.27 0 0 0 5.03 25.154l87.553 9.03a395.807 395.807 0 0 0-13.87-23.543zm5.243 25.84l-.23-.687q1.328 4.332 2.978 8.76l-.236-.686 88.613 7.876q-1.606-3.14-3.248-6.198zm101.53 35.292l14.56-57.29.533.47a182.02 182.02 0 0 0-14.531-19.77l-9.65 57.167q5.017 9.85 9.088 19.423zm3.705 11.896l-86.232-8.304a176.089 176.089 0 0 0 15.286 17.943l-.214-.763 78.824 16.216a218.907 218.907 0 0 0-7.664-25.092zM188.54 30.843l.203-.436c-11.854 2.691-20.223 10.757-24.829 22.43l52.75 11.92c-15.62-20.666-27.946-33.727-28.124-33.914zm83.867 130.298a217.51 217.51 0 0 1 6.894 22.64l20.534-51.501.502.503a86.227 86.227 0 0 0-6.556-20.752q-1.817-3.89-3.804-7.661l-18.438 54.44c.29.778.587 1.557.868 2.331zm-34.453-65.904c-6.823-10.642-13.729-20.405-20.129-28.938l-53.96-12.193-.183-.681c-3.369 8.87-4.6 19.769-3.58 31.94zM183.58 150.01l86.725 8.352.017-.052a295.424 295.424 0 0 0-12.862-29.085l-88.831-7.896q2.262 5.99 5.113 12.11a105.863 105.863 0 0 0 9.838 16.571zm209.594 16.822l.197.614a96.957 96.957 0 0 0-10.295-25.172l.226.578-19.566 26.075c-.52 10.78-1.444 22.846-3.004 35.537zm-10.397-25.054c-4.907-7.994-10.9-14.262-17.86-18.203a37.664 37.664 0 0 0-1.09-.587c.171 2.929 1.066 20.128-.003 44.048zm-34.382 122.967q-1.199 3.943-2.484 7.747l48.347-29.814.085.72q1.386-6.735 2.259-13.456l-48.156 35.13zm6.276-24.26l43.31-37.37.14.679a152.42 152.42 0 0 0-4.58-35.687l-33.061 38.35q-2.274 17.832-5.81 34.028zm43.46-35.901l-43.895 37.875q-2.418 10.786-5.389 20.756l47.754-34.837.111.701a182.02 182.02 0 0 0 1.42-24.495z" fill="#e6e6e6"/><path d="M313.415 332.484q.057-.886.11-1.82a151.475 151.475 0 0 0 19.87-30.465l-26.51-33.036q-.521-1.691-1.09-3.374l28.218 35.165a218.885 218.885 0 0 0 10.1-24.214l-55.809-56.063c.175-.44.351-.89.53-1.35l55.738 55.991.046-.029a295.46 295.46 0 0 0 8.644-30.604l-55.35-54.79q.175-.763.345-1.534l55.351 54.791q.767-3.443 1.452-6.845l-55.187-56.194q.138-.805.27-1.615l55.23 56.239a395.857 395.857 0 0 0 4.334-26.98l-54.105-57.727.268-.673a111.78 111.78 0 0 0-3.742 5.854 111.54 111.54 0 0 0-1.557-19.146l-20.731 51.994a167.381 167.381 0 0 1 3.593 21.768c-.126 1.24-.239 2.486-.33 3.745l.682.684c.043.668.083 1.335.117 1.999l-.907-.91a142.7 142.7 0 0 0-.106 2.2 157.628 157.628 0 0 0-4.047-29.352l-78.247-16.097c3.942 4.046 8.073 7.978 12.294 11.77a95.652 95.652 0 0 0-25.28-4.32l.61.119 11.55 30.484c8.826 6.211 18.523 13.45 28.408 21.561l-14.22-46.89q.791.704 1.585 1.4l14.182 46.77q13.845 11.467 25.633 23.123l-6.518-44.016q.686.478 1.364.948l6.588 44.492q7.816 7.817 14.647 15.663l-3.159-48.257 1.32.823 3.193 48.767-.304-.132q2.69 3.123 5.214 6.246l.61-49.617q.706.413 1.305.76l-.622 50.475c.517.65 1.04 1.3 1.546 1.948a217.498 217.498 0 0 1 13.554 19.401l.295-4.514q.544 2.007 1.09 3.947l-.168 2.567c.607 1.01 1.197 2.018 1.777 3.026q.68 2.306 1.344 4.485-1.928-3.573-4.028-7.075l-79.39 8.876c41.743 21.959 93.543 32.368 96.845 33.017a119.598 119.598 0 0 0-2.831-10.296c.285-.299.566-.6.848-.902.135.406.274.813.405 1.218-.148.158-.293.32-.44.476l.512-.243q1.144 3.586 2.051 7.149c.242-1.93.565-4.86.848-8.566 14.297-7.158 51.326-28.075 70.126-60.87l-49.13 26.823a152.977 152.977 0 0 1-20.834 31.752zm-16.279-77.47l.122-1.863 1.246 1.553-.122 1.863zm65.795-132.06l.434-.206c-10.846-5.488-22.437-4.615-33.43 1.44l33.026 42.824c1.15-25.88-.013-43.801-.03-44.058z" fill="#e6e6e6"/><path d="M344.418 276.8a217.492 217.492 0 0 1-9.131 21.834l48.664-26.569.065.708a86.23 86.23 0 0 0 8.187-20.165q1.081-4.154 1.957-8.327l-48.924 30.17c-.272.784-.54 1.573-.818 2.349zm18.454-107.86l-33.783-43.808.293-.64c-8.252 4.683-16.152 12.291-23.13 22.317l53.665 57.257c1.533-12.548 2.441-24.471 2.955-35.126zm-175.841 8.593c-9.38-.135-17.882 1.572-24.937 5.341-.367.196-.724.4-1.08.606 2.567 1.423 17.573 9.875 37.205 23.582zm41.69 53.735l-77.724 14.796-.424-.586a127.27 127.27 0 0 0 12.557 22.368l86.058-18.474a395.818 395.818 0 0 0-20.467-18.104zm26.63 24.1q-2.497-2.49-5.004-4.891l-86.375 18.542-.433-.583q2.603 3.71 5.541 7.412l-.436-.581zm38.332 47.494a218.91 218.91 0 0 0-15.044-21.495l-84.576 18.757a176.092 176.092 0 0 0 20.084 12.34l-.44-.66zM160.507 184.218l.058-.476c-10.442 6.223-15.908 16.48-16.68 29.006l53.851-4.97c-21.244-14.825-37.003-23.437-37.23-23.56zm38.81 24.668l-55.087 5.083-.384-.591c-.462 9.478 1.735 20.223 6.468 31.484l77.09-14.676c-9.778-8.012-19.363-15.163-28.087-21.3zm78.367 71.28a295.441 295.441 0 0 0-21.223-23.686l-86.922 19.948q4.003 4.998 8.606 9.936a105.87 105.87 0 0 0 14.479 12.72l85.059-18.864z" fill="#e6e6e6"/><path d="M218.483 65.737c6.474 8.635 13.459 18.517 20.352 29.287l.984-49.676.543.347a96.958 96.958 0 0 0-23.984-12.821l.543.302zm-2.651-33.054c-8.878-3.028-17.492-4.032-25.366-2.628-.41.073-.813.157-1.215.243 2.001 2.146 13.66 14.822 28.094 33.927zM267.78 149.32q1.592 3.802 3.028 7.551l18.221-53.8.524.5q-3.227-6.07-6.842-11.803l-14.683 57.771zm-10.64-22.687l9.522-56.405.54.433a152.422 152.422 0 0 0-26.288-24.565l-1.004 50.623q9.623 15.185 17.23 29.914zm-96.76-39.912l-.224-.689a127.27 127.27 0 0 0 5.03 25.154l87.553 9.03a395.807 395.807 0 0 0-13.87-23.543zm5.243 25.84l-.23-.687q1.328 4.332 2.978 8.76l-.236-.686 88.613 7.876q-1.606-3.14-3.248-6.198zm101.53 35.292l14.56-57.29.533.47a182.02 182.02 0 0 0-14.531-19.77l-9.65 57.167q5.017 9.85 9.088 19.423zm3.705 11.896l-86.232-8.304a176.089 176.089 0 0 0 15.286 17.943l-.214-.763 78.824 16.216a218.907 218.907 0 0 0-7.664-25.092zM188.54 30.843l.203-.436c-11.854 2.691-20.223 10.757-24.829 22.43l52.75 11.92c-15.62-20.666-27.946-33.727-28.124-33.914zm83.867 130.298a217.51 217.51 0 0 1 6.894 22.64l20.534-51.501.502.503a86.227 86.227 0 0 0-6.556-20.752q-1.817-3.89-3.804-7.661l-18.438 54.44c.29.778.587 1.557.868 2.331zm-34.453-65.904c-6.823-10.642-13.729-20.405-20.129-28.938l-53.96-12.193-.183-.681c-3.369 8.87-4.6 19.769-3.58 31.94zM183.58 150.01l86.725 8.352.017-.052a295.424 295.424 0 0 0-12.862-29.085l-88.831-7.896q2.262 5.99 5.113 12.11a105.863 105.863 0 0 0 9.838 16.571zm209.594 16.822l.197.614a96.957 96.957 0 0 0-10.295-25.172l.226.578-19.566 26.075c-.52 10.78-1.444 22.846-3.004 35.537zm-10.397-25.054c-4.907-7.994-10.9-14.262-17.86-18.203a37.664 37.664 0 0 0-1.09-.587c.171 2.929 1.066 20.128-.003 44.048zm-34.382 122.967q-1.199 3.943-2.484 7.747l48.347-29.814.085.72q1.386-6.735 2.259-13.456l-48.156 35.13zm6.276-24.26l43.31-37.37.14.679a152.42 152.42 0 0 0-4.58-35.687l-33.061 38.35q-2.274 17.832-5.81 34.028zm43.46-35.901l-43.895 37.875q-2.418 10.786-5.389 20.756l47.754-34.837.111.701a182.02 182.02 0 0 0 1.42-24.495z" fill="#3d8ca3"/><path d="M313.415 332.484q.057-.886.11-1.82a151.475 151.475 0 0 0 19.87-30.465l-26.51-33.036q-.521-1.691-1.09-3.374l28.218 35.165a218.885 218.885 0 0 0 10.1-24.214l-55.809-56.063c.175-.44.351-.89.53-1.35l55.738 55.991.046-.029a295.46 295.46 0 0 0 8.644-30.604l-55.35-54.79q.175-.763.345-1.534l55.351 54.791q.767-3.443 1.452-6.845l-55.187-56.194q.138-.805.27-1.615l55.23 56.239a395.857 395.857 0 0 0 4.334-26.98l-54.105-57.727.268-.673a111.78 111.78 0 0 0-3.742 5.854 111.54 111.54 0 0 0-1.557-19.146l-20.731 51.994a167.381 167.381 0 0 1 3.593 21.768c-.126 1.24-.239 2.486-.33 3.745l.682.684c.043.668.083 1.335.117 1.999l-.907-.91a142.7 142.7 0 0 0-.106 2.2 157.628 157.628 0 0 0-4.047-29.352l-78.247-16.097c3.942 4.046 8.073 7.978 12.294 11.77a95.652 95.652 0 0 0-25.28-4.32l.61.119 11.55 30.484c8.826 6.211 18.523 13.45 28.408 21.561l-14.22-46.89q.791.704 1.585 1.4l14.182 46.77q13.845 11.467 25.633 23.123l-6.518-44.016q.686.478 1.364.948l6.588 44.492q7.816 7.817 14.647 15.663l-3.159-48.257 1.32.823 3.193 48.767-.304-.132q2.69 3.123 5.214 6.246l.61-49.617q.706.413 1.305.76l-.622 50.475c.517.65 1.04 1.3 1.546 1.948a217.498 217.498 0 0 1 13.554 19.401l.295-4.514q.544 2.007 1.09 3.947l-.168 2.567c.607 1.01 1.197 2.018 1.777 3.026q.68 2.306 1.344 4.485-1.928-3.573-4.028-7.075l-79.39 8.876c41.743 21.959 93.543 32.368 96.845 33.017a119.598 119.598 0 0 0-2.831-10.296c.285-.299.566-.6.848-.902.135.406.274.813.405 1.218-.148.158-.293.32-.44.476l.512-.243q1.144 3.586 2.051 7.149c.242-1.93.565-4.86.848-8.566 14.297-7.158 51.326-28.075 70.126-60.87l-49.13 26.823a152.977 152.977 0 0 1-20.834 31.752zm-16.279-77.47l.122-1.863 1.246 1.553-.122 1.863zm65.795-132.06l.434-.206c-10.846-5.488-22.437-4.615-33.43 1.44l33.026 42.824c1.15-25.88-.013-43.801-.03-44.058z" fill="#3d8ca3"/><path d="M344.418 276.8a217.492 217.492 0 0 1-9.131 21.834l48.664-26.569.065.708a86.23 86.23 0 0 0 8.187-20.165q1.081-4.154 1.957-8.327l-48.924 30.17c-.272.784-.54 1.573-.818 2.349zm18.454-107.86l-33.783-43.808.293-.64c-8.252 4.683-16.152 12.291-23.13 22.317l53.665 57.257c1.533-12.548 2.441-24.471 2.955-35.126zm-175.841 8.593c-9.38-.135-17.882 1.572-24.937 5.341-.367.196-.724.4-1.08.606 2.567 1.423 17.573 9.875 37.205 23.582zm41.69 53.735l-77.724 14.796-.424-.586a127.27 127.27 0 0 0 12.557 22.368l86.058-18.474a395.818 395.818 0 0 0-20.467-18.104zm26.63 24.1q-2.497-2.49-5.004-4.891l-86.375 18.542-.433-.583q2.603 3.71 5.541 7.412l-.436-.581zm38.332 47.494a218.91 218.91 0 0 0-15.044-21.495l-84.576 18.757a176.092 176.092 0 0 0 20.084 12.34l-.44-.66zM160.507 184.218l.058-.476c-10.442 6.223-15.908 16.48-16.68 29.006l53.851-4.97c-21.244-14.825-37.003-23.437-37.23-23.56zm38.81 24.668l-55.087 5.083-.384-.591c-.462 9.478 1.735 20.223 6.468 31.484l77.09-14.676c-9.778-8.012-19.363-15.163-28.087-21.3zm78.367 71.28a295.441 295.441 0 0 0-21.223-23.686l-86.922 19.948q4.003 4.998 8.606 9.936a105.87 105.87 0 0 0 14.479 12.72l85.059-18.864z" fill="#3d8ca3"/><path d="M780.745 53.934s-12.742 36.267-4.9 41.846-26.465 51.145-26.465 51.145l-41.167-11.16 22.543-38.125s2.94-38.126 2.94-43.706 47.049 0 47.049 0z" fill="#ffb8b8"/><path d="M780.745 53.934s-12.742 36.267-4.9 41.846-26.465 51.145-26.465 51.145l-41.167-11.16 22.543-38.125s2.94-38.126 2.94-43.706 47.049 0 47.049 0z" opacity=".1"/><path d="M802.133 312.447s3.72 46.496 0 70.673-9.3 91.13-9.3 91.13 0 126.467-20.457 128.327-35.336 3.72-37.196-3.72 9.299-11.158 3.72-14.878-7.44-16.738 0-31.616 0-165.523 0-165.523l-35.337 94.85s-3.72 78.112-7.44 89.27 3.72 31.617-9.298 33.477-27.897-9.299-35.337-13.019 11.16-3.72 7.44-5.579-14.879-7.44-11.16-9.299 7.44-91.13 7.44-91.13 10.229-190.63 23.248-198.07 21.387 5.374 21.387 5.374z" fill="#2f2e41"/><path d="M768.656 596.138v14.879s16.738 40.444 0 40.444-29.757 4.19-29.757-1.389v-50.214zm-109.728-1.026v14.878s-16.739 40.444 0 40.444 29.757 4.191 29.757-1.388v-50.215z" fill="#2f2e41"/><circle cx="754.708" cy="47.425" r="33.477" fill="#ffb8b8"/><path d="M764.937 109.729s-9.3 27.897-24.178 22.317l-14.878-5.58-26.038 178.542s20.458 29.757 50.215 11.16 14.879-206.44 14.879-206.44z" fill="#d0cde1"/><path d="M738.9 104.15l-8.37-17.669s-49.285 23.248-56.724 30.687-7.44 18.598-7.44 18.598l13.02 46.495s-3.72 102.29-3.72 106.009-13.019 24.177-3.72 16.738 11.16-14.878 18.598-3.72 24.178 24.178 24.178 24.178z" fill="#d0cde1"/><path d="M673.806 238.055l5.58 52.075s33.476 29.757 26.037 31.617-11.159-5.58-11.159-5.58-13.019 13.019-20.458 5.58-26.037-78.112-26.037-78.112z" fill="#ffb8b8"/><path d="M753.994.113c7.422-.265 15.364-.396 21.621 3.603a31.652 31.652 0 0 1 7.472 7.314c6.094 7.705 11.36 17.398 9.096 26.957l-2.629-1.026a17.216 17.216 0 0 0 1.66 7.377c-.37-1.077-1.61.663-1.278 1.752l2.897 9.502c-4.761-1.745-10.684 1.789-11.409 6.807-.33-11.036-1.476-23.69-10.428-30.153-4.515-3.259-10.229-4.254-15.726-5.137-5.072-.815-10.388-1.592-15.246.077s-8.994 6.638-7.893 11.655c-2.24-.771-4.745.79-5.852 2.884s-1.165 4.565-1.198 6.934c-2.388 1.688-5.105-1.663-6.078-4.42-2.284-6.472-4.314-13.36-3.084-20.112s6.732-13.203 13.595-13.226a4.765 4.765 0 0 1-1.24-3.355l5.657-.478a6.252 6.252 0 0 1-3.736-1.97c2.271 2.5 20.127-4.854 23.8-4.985z" fill="#2f2e41"/><path d="M755.638 98.57s15.14-14.837 20.588-13.928 12.888 13.928 12.888 13.928 44.635 14.878 42.776 29.757-22.318 87.41-22.318 87.41-16.738 87.411-1.86 96.71-70.673 33.477-72.532 22.318-5.58-122.747 0-139.485 20.458-96.71 20.458-96.71zm-65.094 29.757h-22.996s-16.06 70.672-17.92 78.112-5.579 42.775-3.719 42.775 39.056-7.44 39.056-1.86z" fill="#d0cde1"/><circle cx="27.382" cy="149.763" r="17.97" fill="#3f3d56"/><circle cx="27.382" cy="219.074" r="17.97" fill="#3d8ca3"/><circle cx="27.382" cy="288.385" r="17.97" fill="#3f3d56"/><circle cx="27.382" cy="357.696" r="17.97" fill="#3f3d56"/><circle cx="27.382" cy="427.007" r="17.97" fill="#3f3d56"/><path fill="#3f3d56" d="M25 651H860V653H25z"/><path fill="#3d8ca3" d="M26.15 156.964L17.599 145.563 19.624 144.044 26.59 153.332 54.017 130.892 55.62 132.852 26.15 156.964z"/><path fill="#3f3d56" d="M137.767 215.651L75.301 216.507 137.767 241.956 137.767 652.055 759 652.055 759 215.651 137.767 215.651z"/><path fill="#3f3d56" d="M0 166.877H55.62V168.58800000000002H0z"/><path fill="#3f3d56" d="M0 236.188H55.62V237.899H0z"/><path fill="#3f3d56" d="M0 305.499H55.62V307.21000000000004H0z"/><path fill="#3f3d56" d="M0 374.81H55.62V376.521H0z"/><path fill="#3f3d56" d="M0 444.121H55.62V445.832H0z"/><circle cx="27.382" cy="219.074" r="8.557" fill="#f2f2f2"/><path fill="#fff" d="M253.285 238.755H643.481V271.271H253.285z"/><path fill="#3d8ca3" d="M614.388 585.311H729.907V624.673H614.388z"/><path fill="#fff" d="M166.86 320.046H456.94V556.217H166.86z"/><path transform="rotate(-50.849 266.998 678.694)" fill="#f2f2f2" d="M481.044 374.6H482.756V748.663H481.044z"/><path transform="rotate(-39.154 223.264 738.896)" fill="#f2f2f2" d="M294.869 560.776H668.932V562.4879999999999H294.869z"/><path fill="#fff" d="M521.973 340.582H730.762V346.572H521.973z"/><path fill="#fff" d="M521.973 359.408H730.762V365.398H521.973z"/><path fill="#fff" d="M521.973 378.233H730.762V384.223H521.973z"/><path fill="#fff" d="M521.973 397.058H730.762V403.048H521.973z"/><path fill="#fff" d="M521.973 415.883H730.762V421.873H521.973z"/><path fill="#fff" d="M521.973 434.709H730.762V440.699H521.973z"/><path fill="#fff" d="M521.973 453.534H730.762V459.524H521.973z"/><path fill="#fff" d="M521.973 472.359H730.762V478.349H521.973z"/><path fill="#fff" d="M521.973 491.184H730.762V497.17400000000004H521.973z"/><path fill="#fff" d="M521.973 510.01H730.762V516H521.973z"/><path fill="#fff" d="M521.973 528.835H730.762V534.825H521.973z"/><path fill="#fff" d="M521.973 547.66H730.762V553.65H521.973z"/><path d="M815.151 254.793l-26.037 11.16s-50.215 7.439-50.215-13.02 50.215-9.298 50.215-9.298l16.74-5.352z" fill="#ffb8b8"/><path d="M809.572 117.168l22.318 5.58 16.738 98.569s5.58 26.037-3.72 27.897-35.336 16.738-35.336 16.738-3.72-27.897-11.159-27.897l18.598-14.878-11.159-65.093z" fill="#d0cde1"/></svg>