<svg xmlns="http://www.w3.org/2000/svg" viewBox="0 0 473.86 792"><defs><style>.cls-1{fill:#8788ab}</style></defs><g id="Layer_2" data-name="Layer 2"><g id="Capa_1" data-name="Capa 1"><path class="cls-1" d="M455.51.13L335.13.18S332.69 0 328.3 0c-24.7 0-149.62 6.86-183.6 140.81-.53 1.48-12 35-12.15 113H18.35A18.36 18.36 0 0 0 0 272.15v105.22a18.36 18.36 0 0 0 18.35 18.36h124.9v377.92A18.36 18.36 0 0 0 161.6 792h143a18.36 18.36 0 0 0 18.4-18.35V396.11h125.3a18.36 18.36 0 0 0 18.36-18.35V272.15a18.36 18.36 0 0 0-18.36-18.35h-125v-45.17c0-30.07 19.08-62.21 72.67-62.21h59.62a18.36 18.36 0 0 0 18.35-18.35V18.48A18.34 18.34 0 0 0 455.51.13zm-18.35 109.59h-41.27c-75.55 0-109.37 49.68-109.37 98.92v63.51a18.36 18.36 0 0 0 18.35 18.35h125v68.91H304.61a18.36 18.36 0 0 0-18.35 18.35V755.3H180V377.37A18.36 18.36 0 0 0 161.6 359H36.7v-68.5h114.35a18.37 18.37 0 0 0 18.35-18.72c-1.63-83.46 9.84-118.6 10.39-120.38C206.85 45 300.32 36.7 328.3 36.7c2.55 0 4.08.08 5.56.13h103.3v72.89z" id="facebook"/></g></g></svg>