<svg xmlns="http://www.w3.org/2000/svg" viewBox="0 0 473.86 792"><defs><style>.cls-1{fill:#8788ab;}</style></defs><title>Asset 1</title><g id="Layer_2" data-name="Layer 2"><g id="Capa_1" data-name="Capa 1"><g id="facebook"><path class="cls-1" d="M455.51.13,335.13.18S332.69,0,328.3,0C303.6,0,178.68,6.86,144.7,140.81c-.53,1.48-12,35-12.15,113H18.35A18.36,18.36,0,0,0,0,272.15V377.37a18.36,18.36,0,0,0,18.35,18.36h124.9V773.65A18.36,18.36,0,0,0,161.6,792h143A18.36,18.36,0,0,0,323,773.65V396.11h125.3a18.36,18.36,0,0,0,18.36-18.35V272.15a18.36,18.36,0,0,0-18.36-18.35h-125V208.63c0-30.07,19.08-62.21,72.67-62.21h59.62a18.36,18.36,0,0,0,18.35-18.35V18.48A18.34,18.34,0,0,0,455.51.13ZM437.16,109.72H395.89c-75.55,0-109.37,49.68-109.37,98.92v63.51a18.36,18.36,0,0,0,18.35,18.35h125v68.91H304.61a18.36,18.36,0,0,0-18.35,18.35V755.3H180V377.37A18.36,18.36,0,0,0,161.6,359H36.7V290.5H151.05a18.37,18.37,0,0,0,18.35-18.72c-1.63-83.46,9.84-118.6,10.39-120.38C206.85,45,300.32,36.7,328.3,36.7c2.55,0,4.08.08,5.56.13h103.3v72.89Z"/></g></g></g></svg>