<svg xmlns="http://www.w3.org/2000/svg" viewBox="0 0 612 597.43"><defs><style>.cls-1{fill:#8788ab}</style></defs><g id="Layer_2" data-name="Layer 2"><g id="Capa_1" data-name="Capa 1"><path class="cls-1" d="M513.38 77.58h-56.16a33.32 33.32 0 0 0-33.28 33.28V167a33.32 33.32 0 0 0 33.28 33.28h56.16A33.32 33.32 0 0 0 546.66 167v-56.14a33.32 33.32 0 0 0-33.28-33.28zm4.14 89.42a4.14 4.14 0 0 1-4.14 4.14h-56.16a4.14 4.14 0 0 1-4.14-4.14v-56.14a4.15 4.15 0 0 1 4.14-4.14h56.16a4.15 4.15 0 0 1 4.14 4.14zM480.86 0H131.14C58.84 0 0 58.84 0 131.14v335.14c0 72.31 58.84 131.15 131.14 131.15h349.72c72.3 0 131.14-58.84 131.14-131.14V131.14C612 58.84 553.16 0 480.86 0zm102 466.29a102.12 102.12 0 0 1-102 102H131.14a102.12 102.12 0 0 1-102-102V247.71H176a174 174 0 0 0-44.9 116.57c0 96.42 78.44 174.86 174.86 174.86s174.9-78.44 174.9-174.86A174 174 0 0 0 436 247.71h146.9zM306 218.57c80.35 0 145.71 65.37 145.71 145.71S386.35 510 306 510s-145.71-65.37-145.71-145.71S225.65 218.57 306 218.57zm276.86 0H402.45a174.19 174.19 0 0 0-192.9 0H29.14v-87.43a102.12 102.12 0 0 1 102-102h349.72a102.12 102.12 0 0 1 102 102zM306 466.29a102 102 0 1 0-102-102 102.11 102.11 0 0 0 102 102zm0-174.86a72.86 72.86 0 1 1-72.86 72.85A72.94 72.94 0 0 1 306 291.43z" id="instagram"/></g></g></svg>