<svg xmlns="http://www.w3.org/2000/svg" viewBox="0 0 612 597.43"><defs><style>.cls-1{fill:#8788ab;}</style></defs><title>Asset 1ig</title><g id="Layer_2" data-name="Layer 2"><g id="Capa_1" data-name="Capa 1"><g id="instagram"><path class="cls-1" d="M513.38,77.58H457.22a33.32,33.32,0,0,0-33.28,33.28V167a33.32,33.32,0,0,0,33.28,33.28h56.16A33.32,33.32,0,0,0,546.66,167V110.86A33.32,33.32,0,0,0,513.38,77.58ZM517.52,167a4.14,4.14,0,0,1-4.14,4.14H457.22a4.14,4.14,0,0,1-4.14-4.14V110.86a4.15,4.15,0,0,1,4.14-4.14h56.16a4.15,4.15,0,0,1,4.14,4.14ZM480.86,0H131.14C58.84,0,0,58.84,0,131.14V466.28c0,72.31,58.84,131.15,131.14,131.15H480.86c72.3,0,131.14-58.84,131.14-131.14V131.14C612,58.84,553.16,0,480.86,0Zm102,466.29a102.12,102.12,0,0,1-102,102H131.14a102.12,102.12,0,0,1-102-102V247.71H176a174,174,0,0,0-44.9,116.57c0,96.42,78.44,174.86,174.86,174.86S480.86,460.7,480.86,364.28A174,174,0,0,0,436,247.71h146.9ZM306,218.57c80.35,0,145.71,65.37,145.71,145.71S386.35,510,306,510,160.29,444.63,160.29,364.29,225.65,218.57,306,218.57Zm276.86,0H402.45a174.19,174.19,0,0,0-192.9,0H29.14V131.14a102.12,102.12,0,0,1,102-102H480.86a102.12,102.12,0,0,1,102,102ZM306,466.29a102,102,0,1,0-102-102A102.11,102.11,0,0,0,306,466.29Zm0-174.86a72.86,72.86,0,1,1-72.86,72.85A72.94,72.94,0,0,1,306,291.43Z"/></g></g></g></svg>