<svg xmlns="http://www.w3.org/2000/svg" viewBox="0 0 611.98 500.41"><defs><style>.cls-1{fill:#8788ab}</style></defs><g id="Layer_2" data-name="Layer 2"><g id="Capa_1" data-name="Capa 1"><path class="cls-1" d="M606 58.37a13.86 13.86 0 0 0-16.14.32c-3.29 2.46-8.19 4.64-13.9 6.54 18.82-23.35 19.1-38.95 18.82-42.79a13.87 13.87 0 0 0-21.9-10.26 121.77 121.77 0 0 1-66.31 22.88A130.48 130.48 0 0 0 417.11 0c-72.49 0-131.48 59-131.48 131.45a132.07 132.07 0 0 0 .93 15.67c-121-3-219.1-117-220.09-118.2a13.85 13.85 0 0 0-22.55 2c-30.79 52.6-18.22 102.47 2.89 137.35a13.88 13.88 0 0 0-20.45 12c-.9 55.28 24.36 88.43 49.83 107.73a13.68 13.68 0 0 0-5 3.48 13.85 13.85 0 0 0-3 13.45c17.71 57.13 59.31 78.54 88.51 86.56-33.48 23.6-74.89 29.14-106.36 29.14a218.44 218.44 0 0 1-34.08-2.42A13.88 13.88 0 0 0 5.53 443c63.15 47.47 139.4 57.44 192.25 57.44 41.78 0 70.81-6.1 72.28-6.42 271.3-63.35 281.61-306.62 281.18-350.94 50.85-46.73 59-65 60.23-69.51a13.86 13.86 0 0 0-5.47-15.2z" id="twitter"/></g></g></svg>